<svg version="1.1" xmlns="http://www.w3.org/2000/svg" viewBox="0 0 1005 300" width="1005" height="300">
  <!-- svg-source:excalidraw -->
  
  <defs>
    <style>
      @font-face {
        font-family: "Virgil";
        src: url("https://excalidraw.com/Virgil.woff2");
      }
      @font-face {
        font-family: "Cascadia";
        src: url("https://excalidraw.com/Cascadia.woff2");
      }
    </style>
  </defs>
  <rect x="0" y="0" width="1005" height="300" fill="#ffffff"></rect><g stroke-linecap="round" transform="translate(610 90) rotate(0 80 36)"><path d="M18 0 L142 0 L149.88 1.13 L155.5 4.5 L157.47 7.03 L159.72 13.78 L160 54 L158.88 61.88 L157.47 64.97 L152.97 69.47 L149.88 70.88 L142 72 L18 72 L10.13 70.88 L4.5 67.5 L2.53 64.97 L0.28 58.22 L0.28 13.78 L1.13 10.13 L4.5 4.5 L10.13 1.13 L18 0" stroke="none" stroke-width="0" fill="#FFF"></path><path d="M18 0 M18 0 C50.46 0, 82.92 0, 142 0 M18 0 C44.03 0, 70.05 0, 142 0 M142 0 C154 0, 160 6, 160 18 M142 0 C154 0, 160 6, 160 18 M160 18 C160 30.09, 160 42.17, 160 54 M160 18 C160 29.79, 160 41.58, 160 54 M160 54 C160 66, 154 72, 142 72 M160 54 C160 66, 154 72, 142 72 M142 72 C111.43 72, 80.85 72, 18 72 M142 72 C97.23 72, 52.46 72, 18 72 M18 72 C6 72, 0 66, 0 54 M18 72 C6 72, 0 66, 0 54 M0 54 C0 44.83, 0 35.67, 0 18 M0 54 C0 46.25, 0 38.51, 0 18 M0 18 C0 6, 6 0, 18 0 M0 18 C0 6, 6 0, 18 0" stroke="#364fc7" stroke-width="2" fill="none"></path></g><g transform="translate(675 112) rotate(0 42.5 14)"><text x="0" y="12" font-family="Helvetica, Segoe UI Emoji" font-size="12px" fill="#364fc7" text-anchor="start" style="white-space: pre;" direction="ltr">Container</text><text x="0" y="26" font-family="Helvetica, Segoe UI Emoji" font-size="12px" fill="#364fc7" text-anchor="start" style="white-space: pre;" direction="ltr">Registry</text></g><g stroke-linecap="round"><g transform="translate(635.3933334350586 114) rotate(0 -3.1133333444595337 12)" fill-rule="evenodd"><path d="M0 0 L-6.23 3.68 L-6.23 20.32 L0 24 L0 20.8 L-3.56 18.69 L-3.56 5.31 L0 3.2 L0 0 L0 0" stroke="none" stroke-width="0" fill="#aecbfa" fill-rule="evenodd"></path><path d="M0 0 C-2.1 1.24, -4.19 2.48, -6.23 3.68 M0 0 C-1.49 0.88, -2.98 1.76, -6.23 3.68 M-6.23 3.68 C-6.23 9.74, -6.23 15.8, -6.23 20.32 M-6.23 3.68 C-6.23 8.77, -6.23 13.86, -6.23 20.32 M-6.23 20.32 C-4.9 21.1, -3.57 21.89, 0 24 M-6.23 20.32 C-4.41 21.4, -2.59 22.47, 0 24 M0 24 C0 22.85, 0 21.7, 0 20.8 M0 24 C0 22.74, 0 21.49, 0 20.8 M0 20.8 C-1.14 20.12, -2.28 19.45, -3.56 18.69 M0 20.8 C-1.38 19.98, -2.76 19.17, -3.56 18.69 M-3.56 18.69 C-3.56 15.76, -3.56 12.83, -3.56 5.31 M-3.56 18.69 C-3.56 15.57, -3.56 12.44, -3.56 5.31 M-3.56 5.31 C-2.67 4.78, -1.78 4.25, 0 3.2 M-3.56 5.31 C-2.34 4.58, -1.12 3.86, 0 3.2 M0 3.2 C0 2.41, 0 1.62, 0 0 M0 3.2 C0 2.01, 0 0.82, 0 0 M0 0 C0 0, 0 0, 0 0 M0 0 C0 0, 0 0, 0 0 M0 0 C0 0, 0 0, 0 0 M0 0 C0 0, 0 0, 0 0" stroke="#364fc7" stroke-width="1" fill="none"></path></g></g><g stroke-linecap="round"><g transform="translate(638.9400005340576 122.18666744232178) rotate(0 3.560000419616699 -2.1066670417785645)" fill-rule="evenodd"><path d="M0 0 L3.56 2.09 L7.12 0 L7.12 -4.21 L3.56 -6.31 L0 -4.21 L0 0 L0 0" stroke="none" stroke-width="0" fill="#aecbfa" fill-rule="evenodd"></path><path d="M0 0 C1.05 0.62, 2.1 1.23, 3.56 2.09 M0 0 C1.28 0.75, 2.56 1.5, 3.56 2.09 M3.56 2.09 C4.83 1.35, 6.1 0.6, 7.12 0 M3.56 2.09 C4.64 1.46, 5.71 0.83, 7.12 0 M7.12 0 C7.12 -1.09, 7.12 -2.18, 7.12 -4.21 M7.12 0 C7.12 -1.05, 7.12 -2.11, 7.12 -4.21 M7.12 -4.21 C5.92 -4.92, 4.73 -5.62, 3.56 -6.31 M7.12 -4.21 C5.71 -5.04, 4.3 -5.87, 3.56 -6.31 M3.56 -6.31 C2.67 -5.78, 1.78 -5.26, 0 -4.21 M3.56 -6.31 C2.65 -5.77, 1.75 -5.24, 0 -4.21 M0 -4.21 C0 -3.08, 0 -1.95, 0 0 M0 -4.21 C0 -3.24, 0 -2.27, 0 0 M0 0 C0 0, 0 0, 0 0 M0 0 C0 0, 0 0, 0 0 M0 0 C0 0, 0 0, 0 0 M0 0 C0 0, 0 0, 0 0" stroke="#364fc7" stroke-width="1" fill="none"></path></g></g><g stroke-linecap="round"><g transform="translate(638.9400005340576 117.97333335876465) rotate(0 3.560000419616699 3.1533336639404297)" fill-rule="evenodd"><path d="M0 0 L0 4.21 L3.56 6.31 L7.12 4.21 L7.12 0 L3.56 2.11 L0 0 L0 0" stroke="none" stroke-width="0" fill="#669df6" fill-rule="evenodd"></path><path d="M0 0 C0 1.41, 0 2.82, 0 4.21 M0 0 C0 1.2, 0 2.41, 0 4.21 M0 4.21 C1.15 4.89, 2.3 5.57, 3.56 6.31 M0 4.21 C1.35 5.01, 2.7 5.8, 3.56 6.31 M3.56 6.31 C4.97 5.48, 6.37 4.65, 7.12 4.21 M3.56 6.31 C4.52 5.74, 5.48 5.18, 7.12 4.21 M7.12 4.21 C7.12 2.59, 7.12 0.96, 7.12 0 M7.12 4.21 C7.12 3.03, 7.12 1.86, 7.12 0 M7.12 0 C6.16 0.57, 5.2 1.14, 3.56 2.11 M7.12 0 C6.15 0.58, 5.18 1.15, 3.56 2.11 M3.56 2.11 C2.77 1.64, 1.97 1.17, 0 0 M3.56 2.11 C2.35 1.39, 1.13 0.67, 0 0 M0 0 C0 0, 0 0, 0 0 M0 0 C0 0, 0 0, 0 0 M0 0 C0 0, 0 0, 0 0 M0 0 C0 0, 0 0, 0 0" stroke="#364fc7" stroke-width="1" fill="none"></path></g></g><g stroke-linecap="round"><g transform="translate(642.5 124.28000068664551) rotate(0 1.7800006866455078 -3.1533336639404297)" fill-rule="evenodd"><path d="M0 0 L3.56 -2.09 L3.56 -6.31 L0 -4.2 L0 0 L0 0" stroke="none" stroke-width="0" fill="#4285f4" fill-rule="evenodd"></path><path d="M0 0 C1.08 -0.64, 2.17 -1.27, 3.56 -2.09 M0 0 C0.82 -0.48, 1.64 -0.96, 3.56 -2.09 M3.56 -2.09 C3.56 -3.27, 3.56 -4.46, 3.56 -6.31 M3.56 -2.09 C3.56 -3.18, 3.56 -4.26, 3.56 -6.31 M3.56 -6.31 C2.26 -5.54, 0.96 -4.77, 0 -4.2 M3.56 -6.31 C2.21 -5.51, 0.87 -4.71, 0 -4.2 M0 -4.2 C0 -3.24, 0 -2.28, 0 0 M0 -4.2 C0 -2.56, 0 -0.92, 0 0 M0 0 C0 0, 0 0, 0 0 M0 0 C0 0, 0 0, 0 0 M0 0 C0 0, 0 0, 0 0 M0 0 C0 0, 0 0, 0 0" stroke="#364fc7" stroke-width="1" fill="none"></path></g></g><g stroke-linecap="round"><g transform="translate(643.3933334350586 130.8400001525879) rotate(0 3.553333282470703 -2.113332748413086)" fill-rule="evenodd"><path d="M0 0 L3.55 2.09 L7.11 0 L7.11 -4.21 L3.55 -6.32 L0 -4.21 L0 0 L0 0" stroke="none" stroke-width="0" fill="#aecbfa" fill-rule="evenodd"></path><path d="M0 0 C0.99 0.59, 1.99 1.17, 3.55 2.09 M0 0 C1.11 0.65, 2.22 1.31, 3.55 2.09 M3.55 2.09 C4.85 1.32, 6.16 0.56, 7.11 0 M3.55 2.09 C4.63 1.45, 5.72 0.82, 7.11 0 M7.11 0 C7.11 -1.65, 7.11 -3.3, 7.11 -4.21 M7.11 0 C7.11 -1.04, 7.11 -2.08, 7.11 -4.21 M7.11 -4.21 C6.25 -4.72, 5.4 -5.22, 3.55 -6.32 M7.11 -4.21 C6.23 -4.73, 5.34 -5.26, 3.55 -6.32 M3.55 -6.32 C2.37 -5.62, 1.2 -4.92, 0 -4.21 M3.55 -6.32 C2.78 -5.87, 2.02 -5.41, 0 -4.21 M0 -4.21 C0 -2.58, 0 -0.95, 0 0 M0 -4.21 C0 -3.22, 0 -2.24, 0 0 M0 0 C0 0, 0 0, 0 0 M0 0 C0 0, 0 0, 0 0 M0 0 C0 0, 0 0, 0 0 M0 0 C0 0, 0 0, 0 0" stroke="#364fc7" stroke-width="1" fill="none"></path></g></g><g stroke-linecap="round"><g transform="translate(643.3933334350586 126.62666702270508) rotate(0 3.553333282470703 3.1533336639404297)" fill-rule="evenodd"><path d="M0 0 L0 4.21 L3.55 6.31 L7.11 4.21 L7.11 0 L3.55 2.11 L0 0 L0 0" stroke="none" stroke-width="0" fill="#669df6" fill-rule="evenodd"></path><path d="M0 0 C0 1.22, 0 2.44, 0 4.21 M0 0 C0 1.01, 0 2.03, 0 4.21 M0 4.21 C1.13 4.88, 2.25 5.54, 3.55 6.31 M0 4.21 C1.41 5.04, 2.81 5.87, 3.55 6.31 M3.55 6.31 C4.29 5.87, 5.04 5.43, 7.11 4.21 M3.55 6.31 C4.47 5.76, 5.39 5.22, 7.11 4.21 M7.11 4.21 C7.11 2.83, 7.11 1.45, 7.11 0 M7.11 4.21 C7.11 2.87, 7.11 1.53, 7.11 0 M7.11 0 C5.82 0.76, 4.54 1.52, 3.55 2.11 M7.11 0 C6.11 0.59, 5.1 1.18, 3.55 2.11 M3.55 2.11 C2.78 1.65, 2.02 1.2, 0 0 M3.55 2.11 C2.71 1.61, 1.88 1.11, 0 0 M0 0 C0 0, 0 0, 0 0 M0 0 C0 0, 0 0, 0 0 M0 0 C0 0, 0 0, 0 0 M0 0 C0 0, 0 0, 0 0" stroke="#364fc7" stroke-width="1" fill="none"></path></g></g><g stroke-linecap="round"><g transform="translate(646.9400005340576 132.93333435058594) rotate(0 1.7799997329711914 -3.1533336639404297)" fill-rule="evenodd"><path d="M0 0 L3.56 -2.09 L3.56 -6.31 L0 -4.2 L0 0 L0 0" stroke="none" stroke-width="0" fill="#4285f4" fill-rule="evenodd"></path><path d="M0 0 C1.4 -0.82, 2.8 -1.64, 3.56 -2.09 M0 0 C1.1 -0.65, 2.2 -1.3, 3.56 -2.09 M3.56 -2.09 C3.56 -3.06, 3.56 -4.03, 3.56 -6.31 M3.56 -2.09 C3.56 -3.61, 3.56 -5.14, 3.56 -6.31 M3.56 -6.31 C2.42 -5.63, 1.28 -4.96, 0 -4.2 M3.56 -6.31 C2.25 -5.53, 0.95 -4.76, 0 -4.2 M0 -4.2 C0 -2.55, 0 -0.9, 0 0 M0 -4.2 C0 -2.58, 0 -0.95, 0 0 M0 0 C0 0, 0 0, 0 0 M0 0 C0 0, 0 0, 0 0 M0 0 C0 0, 0 0, 0 0 M0 0 C0 0, 0 0, 0 0" stroke="#364fc7" stroke-width="1" fill="none"></path></g></g><g stroke-linecap="round"><g transform="translate(634.5 130.8400001525879) rotate(0 3.553333282470703 -2.113332748413086)" fill-rule="evenodd"><path d="M0 0 L3.56 2.09 L7.11 0 L7.11 -4.21 L3.56 -6.32 L0 -4.21 L0 0 L0 0" stroke="none" stroke-width="0" fill="#aecbfa" fill-rule="evenodd"></path><path d="M0 0 C1.08 0.63, 2.16 1.27, 3.56 2.09 M0 0 C0.74 0.43, 1.47 0.87, 3.56 2.09 M3.56 2.09 C4.41 1.59, 5.26 1.09, 7.11 0 M3.56 2.09 C4.42 1.59, 5.28 1.08, 7.11 0 M7.11 0 C7.11 -1.51, 7.11 -3.03, 7.11 -4.21 M7.11 0 C7.11 -1.65, 7.11 -3.3, 7.11 -4.21 M7.11 -4.21 C5.78 -5, 4.46 -5.79, 3.56 -6.32 M7.11 -4.21 C6.3 -4.7, 5.48 -5.18, 3.56 -6.32 M3.56 -6.32 C2.22 -5.53, 0.88 -4.73, 0 -4.21 M3.56 -6.32 C2.7 -5.81, 1.83 -5.3, 0 -4.21 M0 -4.21 C0 -3.24, 0 -2.26, 0 0 M0 -4.21 C0 -2.95, 0 -1.69, 0 0 M0 0 C0 0, 0 0, 0 0 M0 0 C0 0, 0 0, 0 0 M0 0 C0 0, 0 0, 0 0 M0 0 C0 0, 0 0, 0 0" stroke="#364fc7" stroke-width="1" fill="none"></path></g></g><g stroke-linecap="round"><g transform="translate(634.5 126.62666702270508) rotate(0 3.553333282470703 3.1533336639404297)" fill-rule="evenodd"><path d="M0 0 L0 4.21 L3.56 6.31 L7.11 4.21 L7.11 0 L3.56 2.11 L0 0 L0 0" stroke="none" stroke-width="0" fill="#669df6" fill-rule="evenodd"></path><path d="M0 0 C0 1.02, 0 2.05, 0 4.21 M0 0 C0 1.35, 0 2.7, 0 4.21 M0 4.21 C0.74 4.65, 1.48 5.08, 3.56 6.31 M0 4.21 C0.76 4.66, 1.53 5.11, 3.56 6.31 M3.56 6.31 C4.9 5.51, 6.24 4.72, 7.11 4.21 M3.56 6.31 C4.27 5.88, 4.99 5.46, 7.11 4.21 M7.11 4.21 C7.11 3.31, 7.11 2.4, 7.11 0 M7.11 4.21 C7.11 2.75, 7.11 1.28, 7.11 0 M7.11 0 C6.39 0.43, 5.67 0.86, 3.56 2.11 M7.11 0 C5.97 0.68, 4.83 1.35, 3.56 2.11 M3.56 2.11 C2.76 1.63, 1.97 1.16, 0 0 M3.56 2.11 C2.22 1.31, 0.88 0.52, 0 0 M0 0 C0 0, 0 0, 0 0 M0 0 C0 0, 0 0, 0 0 M0 0 C0 0, 0 0, 0 0 M0 0 C0 0, 0 0, 0 0" stroke="#364fc7" stroke-width="1" fill="none"></path></g></g><g stroke-linecap="round"><g transform="translate(638.0600004196167 132.93333435058594) rotate(0 1.7733330726623535 -3.1533336639404297)" fill-rule="evenodd"><path d="M0 0 L3.55 -2.09 L3.55 -6.31 L0 -4.2 L0 0 L0 0" stroke="none" stroke-width="0" fill="#4285f4" fill-rule="evenodd"></path><path d="M0 0 C1.21 -0.71, 2.42 -1.43, 3.55 -2.09 M0 0 C0.97 -0.57, 1.94 -1.15, 3.55 -2.09 M3.55 -2.09 C3.55 -3.76, 3.55 -5.42, 3.55 -6.31 M3.55 -2.09 C3.55 -3.2, 3.55 -4.3, 3.55 -6.31 M3.55 -6.31 C2.52 -5.69, 1.49 -5.08, 0 -4.2 M3.55 -6.31 C2.36 -5.6, 1.17 -4.89, 0 -4.2 M0 -4.2 C0 -3.15, 0 -2.09, 0 0 M0 -4.2 C0 -3.16, 0 -2.13, 0 0 M0 0 C0 0, 0 0, 0 0 M0 0 C0 0, 0 0, 0 0 M0 0 C0 0, 0 0, 0 0 M0 0 C0 0, 0 0, 0 0" stroke="#364fc7" stroke-width="1" fill="none"></path></g></g><g stroke-linecap="round"><g transform="translate(629.1666667461395 120.8933334350586) rotate(0 1.3333333730697632 5.106667518615723)" fill-rule="evenodd"><path d="M0 0 L0 10.23 L2.67 11.8 L2.67 -1.59 L0 0 L0 0" stroke="none" stroke-width="0" fill="#669df6" fill-rule="evenodd"></path><path d="M0 0 C0 4.05, 0 8.1, 0 10.23 M0 0 C0 2.53, 0 5.05, 0 10.23 M0 10.23 C0.83 10.71, 1.65 11.2, 2.67 11.8 M0 10.23 C0.61 10.58, 1.21 10.94, 2.67 11.8 M2.67 11.8 C2.67 7.93, 2.67 4.06, 2.67 -1.59 M2.67 11.8 C2.67 7.14, 2.67 2.48, 2.67 -1.59 M2.67 -1.59 C1.82 -1.09, 0.98 -0.58, 0 0 M2.67 -1.59 C2.02 -1.2, 1.37 -0.82, 0 0 M0 0 C0 0, 0 0, 0 0 M0 0 C0 0, 0 0, 0 0 M0 0 C0 0, 0 0, 0 0 M0 0 C0 0, 0 0, 0 0" stroke="#364fc7" stroke-width="1" fill="none"></path></g></g><g stroke-linecap="round"><g transform="translate(629.1666667461395 120.8933334350586) rotate(0 1.3333333730697632 -0.7933330535888672)" fill-rule="evenodd"><path d="M0 0 L2.67 -0.61 L2.67 -1.59 L0 0 L0 0" stroke="none" stroke-width="0" fill="#4285f4" fill-rule="evenodd"></path><path d="M0 0 C0.64 -0.15, 1.28 -0.29, 2.67 -0.61 M0 0 C0.97 -0.22, 1.94 -0.45, 2.67 -0.61 M2.67 -0.61 C2.67 -0.91, 2.67 -1.21, 2.67 -1.59 M2.67 -0.61 C2.67 -0.82, 2.67 -1.03, 2.67 -1.59 M2.67 -1.59 C1.89 -1.12, 1.11 -0.66, 0 0 M2.67 -1.59 C1.71 -1.02, 0.75 -0.45, 0 0 M0 0 C0 0, 0 0, 0 0 M0 0 C0 0, 0 0, 0 0 M0 0 C0 0, 0 0, 0 0 M0 0 C0 0, 0 0, 0 0" stroke="#364fc7" stroke-width="1" fill="none"></path></g></g><g stroke-linecap="round"><g transform="translate(631.833333492279 132.69333457946777) rotate(0 -1.3333333730697632 -0.7866668701171875)" fill-rule="evenodd"><path d="M0 0 L0 -0.77 L-2.67 -1.57 L0 0 L0 0" stroke="none" stroke-width="0" fill="#4285f4" fill-rule="evenodd"></path><path d="M0 0 C0 -0.28, 0 -0.56, 0 -0.77 M0 0 C0 -0.28, 0 -0.55, 0 -0.77 M0 -0.77 C-0.81 -1.02, -1.61 -1.26, -2.67 -1.57 M0 -0.77 C-0.69 -0.98, -1.38 -1.19, -2.67 -1.57 M-2.67 -1.57 C-2 -1.18, -1.33 -0.79, 0 0 M-2.67 -1.57 C-1.77 -1.04, -0.87 -0.52, 0 0 M0 0 C0 0, 0 0, 0 0 M0 0 C0 0, 0 0, 0 0 M0 0 C0 0, 0 0, 0 0 M0 0 C0 0, 0 0, 0 0" stroke="#364fc7" stroke-width="1" fill="none"></path></g></g><g stroke-linecap="round"><g transform="translate(649.6066665649414 114) rotate(0 3.1133337020874023 12)" fill-rule="evenodd"><path d="M0 0 L0 3.2 L3.56 5.31 L3.56 18.69 L0 20.8 L0 24 L6.23 20.32 L6.23 3.68 L0 0 L0 0" stroke="none" stroke-width="0" fill="#aecbfa" fill-rule="evenodd"></path><path d="M0 0 C0 0.91, 0 1.83, 0 3.2 M0 0 C0 1.03, 0 2.07, 0 3.2 M0 3.2 C1.35 4, 2.7 4.8, 3.56 5.31 M0 3.2 C1.41 4.03, 2.81 4.86, 3.56 5.31 M3.56 5.31 C3.56 8.92, 3.56 12.54, 3.56 18.69 M3.56 5.31 C3.56 10.48, 3.56 15.64, 3.56 18.69 M3.56 18.69 C2.56 19.28, 1.57 19.87, 0 20.8 M3.56 18.69 C2.6 19.26, 1.64 19.83, 0 20.8 M0 20.8 C0 21.67, 0 22.55, 0 24 M0 20.8 C0 21.51, 0 22.23, 0 24 M0 24 C2.12 22.74, 4.25 21.49, 6.23 20.32 M0 24 C2.44 22.56, 4.87 21.12, 6.23 20.32 M6.23 20.32 C6.23 13.91, 6.23 7.49, 6.23 3.68 M6.23 20.32 C6.23 14.43, 6.23 8.55, 6.23 3.68 M6.23 3.68 C4.96 2.93, 3.7 2.18, 0 0 M6.23 3.68 C4.42 2.61, 2.6 1.54, 0 0 M0 0 C0 0, 0 0, 0 0 M0 0 C0 0, 0 0, 0 0 M0 0 C0 0, 0 0, 0 0 M0 0 C0 0, 0 0, 0 0" stroke="#364fc7" stroke-width="1" fill="none"></path></g></g><g stroke-linecap="round"><g transform="translate(653.1666679382324 132.69333457946777) rotate(0 1.3333330154418945 -6.693333625793457)" fill-rule="evenodd"><path d="M0 0 L2.67 -1.57 L2.67 -11.8 L0 -13.39 L0 0 L0 0" stroke="none" stroke-width="0" fill="#669df6" fill-rule="evenodd"></path><path d="M0 0 C0.61 -0.36, 1.23 -0.72, 2.67 -1.57 M0 0 C0.75 -0.44, 1.5 -0.88, 2.67 -1.57 M2.67 -1.57 C2.67 -4.2, 2.67 -6.83, 2.67 -11.8 M2.67 -1.57 C2.67 -5.31, 2.67 -9.05, 2.67 -11.8 M2.67 -11.8 C1.66 -12.4, 0.65 -13, 0 -13.39 M2.67 -11.8 C2.06 -12.16, 1.45 -12.53, 0 -13.39 M0 -13.39 C0 -8.16, 0 -2.94, 0 0 M0 -13.39 C0 -9.15, 0 -4.9, 0 0 M0 0 C0 0, 0 0, 0 0 M0 0 C0 0, 0 0, 0 0 M0 0 C0 0, 0 0, 0 0 M0 0 C0 0, 0 0, 0 0" stroke="#364fc7" stroke-width="1" fill="none"></path></g></g><g stroke-linecap="round"><g transform="translate(653.1666679382324 120.28000068664551) rotate(0 1.3333330154418945 -0.18000030517578125)" fill-rule="evenodd"><path d="M0 0 L2.67 0.61 L0 -0.97 L0 0 L0 0" stroke="none" stroke-width="0" fill="#4285f4" fill-rule="evenodd"></path><path d="M0 0 C0.83 0.19, 1.67 0.38, 2.67 0.61 M0 0 C0.98 0.23, 1.96 0.45, 2.67 0.61 M2.67 0.61 C1.85 0.13, 1.04 -0.36, 0 -0.97 M2.67 0.61 C1.62 -0.01, 0.58 -0.63, 0 -0.97 M0 -0.97 C0 -0.73, 0 -0.49, 0 0 M0 -0.97 C0 -0.74, 0 -0.51, 0 0 M0 0 C0 0, 0 0, 0 0 M0 0 C0 0, 0 0, 0 0 M0 0 C0 0, 0 0, 0 0 M0 0 C0 0, 0 0, 0 0" stroke="#364fc7" stroke-width="1" fill="none"></path></g></g><g stroke-linecap="round"><g transform="translate(653.1666679382324 131.92000198364258) rotate(0 1.3333330154418945 -0.013334274291992188)" fill-rule="evenodd"><path d="M0 0 L0 0.77 L2.67 -0.8 L0 0 L0 0" stroke="none" stroke-width="0" fill="#4285f4" fill-rule="evenodd"></path><path d="M0 0 C0 0.19, 0 0.37, 0 0.77 M0 0 C0 0.25, 0 0.49, 0 0.77 M0 0.77 C1.06 0.15, 2.12 -0.48, 2.67 -0.8 M0 0.77 C0.56 0.44, 1.12 0.11, 2.67 -0.8 M2.67 -0.8 C1.98 -0.59, 1.29 -0.39, 0 0 M2.67 -0.8 C1.79 -0.54, 0.92 -0.28, 0 0 M0 0 C0 0, 0 0, 0 0 M0 0 C0 0, 0 0, 0 0 M0 0 C0 0, 0 0, 0 0 M0 0 C0 0, 0 0, 0 0" stroke="#364fc7" stroke-width="1" fill="none"></path></g></g><g stroke-linecap="round" transform="translate(410 90) rotate(0 80 36)"><path d="M18 0 L142 0 L149.88 1.13 L155.5 4.5 L157.47 7.03 L159.72 13.78 L160 54 L158.88 61.88 L157.47 64.97 L152.97 69.47 L149.88 70.88 L142 72 L18 72 L10.13 70.88 L4.5 67.5 L2.53 64.97 L0.28 58.22 L0.28 13.78 L1.13 10.13 L4.5 4.5 L10.13 1.13 L18 0" stroke="none" stroke-width="0" fill="white"></path><path d="M18 0 M18 0 C63.51 0, 109.02 0, 142 0 M18 0 C65.88 0, 113.76 0, 142 0 M142 0 C154 0, 160 6, 160 18 M142 0 C154 0, 160 6, 160 18 M160 18 C160 31.93, 160 45.85, 160 54 M160 18 C160 27.72, 160 37.44, 160 54 M160 54 C160 66, 154 72, 142 72 M160 54 C160 66, 154 72, 142 72 M142 72 C113.69 72, 85.38 72, 18 72 M142 72 C114.31 72, 86.62 72, 18 72 M18 72 C6 72, 0 66, 0 54 M18 72 C6 72, 0 66, 0 54 M0 54 C0 42.06, 0 30.12, 0 18 M0 54 C0 39.91, 0 25.83, 0 18 M0 18 C0 6, 6 0, 18 0 M0 18 C0 6, 6 0, 18 0" stroke="#364fc7" stroke-width="2" fill="none"></path></g><g transform="translate(475 119) rotate(0 42.5 7)"><text x="0" y="13" font-family="Helvetica, Segoe UI Emoji" font-size="12px" fill="#364fc7" text-anchor="start" style="white-space: pre;" direction="ltr">Cloud Build</text></g><g stroke-linecap="round"><g transform="translate(442.70000076293945 131.65333366394043) rotate(0 1.5599994659423828 -4.519999980926514)" fill-rule="evenodd"><path d="M0 0 L4.69 -2.71 L4.69 -8.12 L3.12 -9.04 L-1.57 -0.91 L0 0 L0 0" stroke="none" stroke-width="0" fill="#4285f4" fill-rule="evenodd"></path><path d="M0 0 C1.5 -0.87, 3 -1.73, 4.69 -2.71 M0 0 C0.97 -0.56, 1.95 -1.12, 4.69 -2.71 M4.69 -2.71 C4.69 -3.87, 4.69 -5.03, 4.69 -8.12 M4.69 -2.71 C4.69 -4.76, 4.69 -6.8, 4.69 -8.12 M4.69 -8.12 C4.38 -8.31, 4.06 -8.49, 3.12 -9.04 M4.69 -8.12 C4.36 -8.32, 4.02 -8.52, 3.12 -9.04 M3.12 -9.04 C1.49 -6.21, -0.14 -3.38, -1.57 -0.91 M3.12 -9.04 C2.17 -7.39, 1.21 -5.74, -1.57 -0.91 M-1.57 -0.91 C-1.07 -0.62, -0.56 -0.32, 0 0 M-1.57 -0.91 C-1.22 -0.7, -0.87 -0.5, 0 0 M0 0 C0 0, 0 0, 0 0 M0 0 C0 0, 0 0, 0 0 M0 0 C0 0, 0 0, 0 0 M0 0 C0 0, 0 0, 0 0" stroke="#364fc7" stroke-width="1" fill="none"></path></g></g><g stroke-linecap="round"><g transform="translate(438.006667137146 123.53333282470703) rotate(0 3.1399998664855957 1.8000011444091797)" fill-rule="evenodd"><path d="M0 0 L0 5.41 L1.57 6.32 L6.28 -1.8 L4.69 -2.72 L0 0 L0 0" stroke="none" stroke-width="0" fill="#669df6" fill-rule="evenodd"></path><path d="M0 0 C0 1.48, 0 2.96, 0 5.41 M0 0 C0 2.14, 0 4.27, 0 5.41 M0 5.41 C0.41 5.65, 0.82 5.89, 1.57 6.32 M0 5.41 C0.46 5.68, 0.91 5.94, 1.57 6.32 M1.57 6.32 C3.15 3.59, 4.73 0.87, 6.28 -1.8 M1.57 6.32 C2.75 4.28, 3.93 2.25, 6.28 -1.8 M6.28 -1.8 C5.89 -2.03, 5.5 -2.25, 4.69 -2.72 M6.28 -1.8 C5.91 -2.02, 5.54 -2.23, 4.69 -2.72 M4.69 -2.72 C3.5 -2.03, 2.3 -1.34, 0 0 M4.69 -2.72 C3.66 -2.12, 2.62 -1.52, 0 0 M0 0 C0 0, 0 0, 0 0 M0 0 C0 0, 0 0, 0 0 M0 0 C0 0, 0 0, 0 0 M0 0 C0 0, 0 0, 0 0" stroke="#364fc7" stroke-width="1" fill="none"></path></g></g><g stroke-linecap="round"><g transform="translate(441.7800006866455 133.26666831970215) rotate(0 -5.313333511352539 -3.4266676902770996)" fill-rule="evenodd"><path d="M0 0 L-5.63 -3.25 L-5.63 -9.73 L-10.63 -12.63 L-10.63 -0.36 L0 5.77 L0 0 L0 0" stroke="none" stroke-width="0" fill="#aecbfa" fill-rule="evenodd"></path><path d="M0 0 C-1.39 -0.8, -2.78 -1.61, -5.63 -3.25 M0 0 C-1.74 -1.01, -3.48 -2.01, -5.63 -3.25 M-5.63 -3.25 C-5.63 -4.73, -5.63 -6.2, -5.63 -9.73 M-5.63 -3.25 C-5.63 -5.13, -5.63 -7, -5.63 -9.73 M-5.63 -9.73 C-7.37 -10.74, -9.11 -11.75, -10.63 -12.63 M-5.63 -9.73 C-7.21 -10.65, -8.78 -11.56, -10.63 -12.63 M-10.63 -12.63 C-10.63 -9.65, -10.63 -6.67, -10.63 -0.36 M-10.63 -12.63 C-10.63 -9.01, -10.63 -5.39, -10.63 -0.36 M-10.63 -0.36 C-7.44 1.48, -4.26 3.32, 0 5.77 M-10.63 -0.36 C-7.19 1.62, -3.76 3.6, 0 5.77 M0 5.77 C0 3.78, 0 1.78, 0 0 M0 5.77 C0 4.31, 0 2.85, 0 0 M0 0 C0 0, 0 0, 0 0 M0 0 C0 0, 0 0, 0 0 M0 0 C0 0, 0 0, 0 0 M0 0 C0 0, 0 0, 0 0" stroke="#364fc7" stroke-width="1" fill="none"></path></g></g><g stroke-linecap="round"><g transform="translate(437.0733337402344 121.93333339691162) rotate(0 5.62666654586792 -4.519999980926514)" fill-rule="evenodd"><path d="M0 0 L5.63 -3.25 L11.25 0 L16.27 -2.89 L5.63 -9.04 L-5.01 -2.89 L0 0 L0 0" stroke="none" stroke-width="0" fill="#aecbfa" fill-rule="evenodd"></path><path d="M0 0 C2.05 -1.18, 4.1 -2.37, 5.63 -3.25 M0 0 C1.72 -1, 3.44 -1.99, 5.63 -3.25 M5.63 -3.25 C6.83 -2.56, 8.02 -1.87, 11.25 0 M5.63 -3.25 C7.27 -2.3, 8.92 -1.35, 11.25 0 M11.25 0 C13.06 -1.04, 14.86 -2.08, 16.27 -2.89 M11.25 0 C13.22 -1.14, 15.19 -2.27, 16.27 -2.89 M16.27 -2.89 C12.86 -4.86, 9.44 -6.83, 5.63 -9.04 M16.27 -2.89 C12.14 -5.28, 8.02 -7.66, 5.63 -9.04 M5.63 -9.04 C3.3 -7.69, 0.96 -6.35, -5.01 -2.89 M5.63 -9.04 C3.14 -7.6, 0.65 -6.17, -5.01 -2.89 M-5.01 -2.89 C-3.76 -2.17, -2.51 -1.45, 0 0 M-5.01 -2.89 C-3.29 -1.9, -1.57 -0.91, 0 0 M0 0 C0 0, 0 0, 0 0 M0 0 C0 0, 0 0, 0 0 M0 0 C0 0, 0 0, 0 0 M0 0 C0 0, 0 0, 0 0" stroke="#364fc7" stroke-width="1" fill="none"></path></g></g><g stroke-linecap="round"><g transform="translate(449.24666595458984 130.013334274292) rotate(0 -0.30666542053222656 -0.17333364486694336)" fill-rule="evenodd"><path d="M0 0 L-5.63 3.25 L-5.63 9.03 L5.01 2.89 L5.01 -9.37 L0 -6.48 L0 0 L0 0" stroke="none" stroke-width="0" fill="#aecbfa" fill-rule="evenodd"></path><path d="M0 0 C-2.01 1.16, -4.02 2.32, -5.63 3.25 M0 0 C-1.7 0.98, -3.4 1.97, -5.63 3.25 M-5.63 3.25 C-5.63 4.75, -5.63 6.24, -5.63 9.03 M-5.63 3.25 C-5.63 4.7, -5.63 6.14, -5.63 9.03 M-5.63 9.03 C-2.05 6.96, 1.53 4.9, 5.01 2.89 M-5.63 9.03 C-1.42 6.6, 2.79 4.18, 5.01 2.89 M5.01 2.89 C5.01 -0.18, 5.01 -3.25, 5.01 -9.37 M5.01 2.89 C5.01 -0.23, 5.01 -3.35, 5.01 -9.37 M5.01 -9.37 C3.67 -8.6, 2.32 -7.82, 0 -6.48 M5.01 -9.37 C3.86 -8.71, 2.7 -8.04, 0 -6.48 M0 -6.48 C0 -4.86, 0 -3.24, 0 0 M0 -6.48 C0 -4.67, 0 -2.87, 0 0 M0 0 C0 0, 0 0, 0 0 M0 0 C0 0, 0 0, 0 0 M0 0 C0 0, 0 0, 0 0 M0 0 C0 0, 0 0, 0 0" stroke="#364fc7" stroke-width="1" fill="none"></path></g></g><g stroke-linecap="round" transform="translate(210 90) rotate(0 80 36)"><path d="M18 0 L142 0 L149.88 1.13 L155.5 4.5 L157.47 7.03 L159.72 13.78 L160 54 L158.88 61.88 L157.47 64.97 L152.97 69.47 L149.88 70.88 L142 72 L18 72 L10.13 70.88 L4.5 67.5 L2.53 64.97 L0.28 58.22 L0.28 13.78 L1.13 10.13 L4.5 4.5 L10.13 1.13 L18 0" stroke="none" stroke-width="0" fill="#DEDEDE"></path><path d="M18 0 M18 0 C43.93 0, 69.87 0, 142 0 M18 0 C53.97 0, 89.94 0, 142 0 M142 0 C154 0, 160 6, 160 18 M142 0 C154 0, 160 6, 160 18 M160 18 C160 29.96, 160 41.92, 160 54 M160 18 C160 27.49, 160 36.99, 160 54 M160 54 C160 66, 154 72, 142 72 M160 54 C160 66, 154 72, 142 72 M142 72 C97.47 72, 52.94 72, 18 72 M142 72 C101.24 72, 60.47 72, 18 72 M18 72 C6 72, 0 66, 0 54 M18 72 C6 72, 0 66, 0 54 M0 54 C0 46.77, 0 39.54, 0 18 M0 54 C0 44.88, 0 35.77, 0 18 M0 18 C0 6, 6 0, 18 0 M0 18 C0 6, 6 0, 18 0" stroke="#000" stroke-width="2" fill="none"></path></g><g transform="translate(275 119) rotate(0 33.5 13.5)"><text x="0" y="10.5" font-family="Helvetica, Segoe UI Emoji" font-size="12px" fill="#000000" text-anchor="start" style="white-space: pre;" direction="ltr">Github Repo</text><text x="0" y="24" font-family="Helvetica, Segoe UI Emoji" font-size="12px" fill="#000000" text-anchor="start" style="white-space: pre;" direction="ltr"></text></g><g stroke-linecap="round"><g transform="translate(226.5 110) rotate(0 16 16)" fill-rule="evenodd"><path d="M0 0 L32 0 L32 32 L0 32 L0 0" stroke="none" stroke-width="0" fill="#00000000" fill-rule="evenodd"></path><path d="M0 0 C7.62 0, 15.23 0, 32 0 M0 0 C7.87 0, 15.74 0, 32 0 M32 0 C32 12.06, 32 24.11, 32 32 M32 0 C32 9.59, 32 19.18, 32 32 M32 32 C24.35 32, 16.7 32, 0 32 M32 32 C19.42 32, 6.84 32, 0 32 M0 32 C0 22.05, 0 12.1, 0 0 M0 32 C0 21.87, 0 11.73, 0 0 M0 0 C0 0, 0 0, 0 0 M0 0 C0 0, 0 0, 0 0" stroke="#00000000" stroke-width="1" fill="none"></path></g></g><g stroke-linecap="round"><g transform="translate(245.16666793823242 115.33333349227905) rotate(0 3.6066665649414062 4.393333673477173)" fill-rule="evenodd"><path d="M0 0 L3.05 3.05 L-0.79 6.89 L1.11 8.79 L4.95 4.95 L8 8 L8 0 L0 0" stroke="none" stroke-width="0" fill="#000" fill-rule="evenodd"></path><path d="M0 0 C1.01 1.01, 2.01 2.01, 3.05 3.05 M0 0 C1 1, 2.01 2.01, 3.05 3.05 M3.05 3.05 C1.83 4.28, 0.6 5.5, -0.79 6.89 M3.05 3.05 C1.55 4.56, 0.05 6.06, -0.79 6.89 M-0.79 6.89 C-0.13 7.55, 0.53 8.21, 1.11 8.79 M-0.79 6.89 C-0.35 7.33, 0.09 7.77, 1.11 8.79 M1.11 8.79 C2.22 7.67, 3.34 6.56, 4.95 4.95 M1.11 8.79 C1.97 7.93, 2.83 7.07, 4.95 4.95 M4.95 4.95 C5.97 5.97, 7 7, 8 8 M4.95 4.95 C5.62 5.62, 6.29 6.29, 8 8 M8 8 C8 5.01, 8 2.03, 8 0 M8 8 C8 6.24, 8 4.48, 8 0 M8 0 C5.83 0, 3.67 0, 0 0 M8 0 C5.29 0, 2.58 0, 0 0 M0 0 C0 0, 0 0, 0 0 M0 0 C0 0, 0 0, 0 0" stroke="#00000000" stroke-width="1" fill="none"></path></g></g><g stroke-linecap="round"><g transform="translate(239.8333339691162 115.33333349227905) rotate(0 -2.000000238418579 10.666667222976685)" fill-rule="evenodd"><path d="M0 0 L-8 0 L-8 8 L-4.95 4.95 L1.33 11.21 L1.33 21.33 L4 21.33 L4 10.12 L-3.05 3.05 L0 0" stroke="none" stroke-width="0" fill="#000" fill-rule="evenodd"></path><path d="M0 0 C-2.72 0, -5.43 0, -8 0 M0 0 C-2.19 0, -4.39 0, -8 0 M-8 0 C-8 2.26, -8 4.52, -8 8 M-8 0 C-8 2.35, -8 4.71, -8 8 M-8 8 C-7.07 7.07, -6.14 6.14, -4.95 4.95 M-8 8 C-6.9 6.9, -5.8 5.8, -4.95 4.95 M-4.95 4.95 C-2.89 7, -0.83 9.06, 1.33 11.21 M-4.95 4.95 C-3.28 6.61, -1.61 8.28, 1.33 11.21 M1.33 11.21 C1.33 14, 1.33 16.78, 1.33 21.33 M1.33 11.21 C1.33 14.6, 1.33 17.98, 1.33 21.33 M1.33 21.33 C1.94 21.33, 2.55 21.33, 4 21.33 M1.33 21.33 C1.89 21.33, 2.44 21.33, 4 21.33 M4 21.33 C4 17.96, 4 14.6, 4 10.12 M4 21.33 C4 17.62, 4 13.91, 4 10.12 M4 10.12 C1.2 7.32, -1.59 4.52, -3.05 3.05 M4 10.12 C1.66 7.78, -0.67 5.44, -3.05 3.05 M-3.05 3.05 C-2.19 2.19, -1.34 1.34, 0 0 M-3.05 3.05 C-2.11 2.11, -1.17 1.17, 0 0 M0 0 C0 0, 0 0, 0 0 M0 0 C0 0, 0 0, 0 0" stroke="#00000000" stroke-width="1" fill="none"></path></g></g><g stroke-opacity="0.9" fill-opacity="0.9" stroke-linecap="round" transform="translate(830 50) rotate(0 80 120)"><path d="M0 0 C0 0, 0 0, 0 0 M0 0 C0 0, 0 0, 0 0 M-0.26 6.4 C1.17 4.75, 2.61 3.09, 4.99 0.36 M-0.26 6.4 C0.97 4.98, 2.2 3.57, 4.99 0.36 M0.13 12.04 C3.63 8.02, 7.12 4, 10.63 -0.03 M0.13 12.04 C2.31 9.54, 4.48 7.04, 10.63 -0.03 M-0.13 18.44 C3.1 14.73, 6.33 11.01, 15.62 0.33 M-0.13 18.44 C4.77 12.81, 9.66 7.17, 15.62 0.33 M0.27 24.08 C6.69 16.69, 13.12 9.29, 21.26 -0.07 M0.27 24.08 C7.11 16.21, 13.95 8.34, 21.26 -0.07 M0 30.48 C10.36 18.57, 20.72 6.65, 26.25 0.29 M0 30.48 C6.16 23.4, 12.31 16.33, 26.25 0.29 M-0.26 36.88 C7.95 27.44, 16.15 18, 31.89 -0.1 M-0.26 36.88 C12.23 22.52, 24.71 8.16, 31.89 -0.1 M0.14 42.52 C10.55 30.54, 20.97 18.56, 36.88 0.26 M0.14 42.52 C13.87 26.72, 27.6 10.93, 36.88 0.26 M-0.12 48.92 C15.66 30.76, 31.44 12.61, 42.52 -0.14 M-0.12 48.92 C15.95 30.43, 32.03 11.94, 42.52 -0.14 M0.27 54.56 C13.76 39.05, 27.24 23.54, 47.51 0.22 M0.27 54.56 C12.07 40.99, 23.87 27.42, 47.51 0.22 M0.01 60.96 C19.35 38.71, 38.7 16.45, 53.15 -0.17 M0.01 60.96 C14.65 44.11, 29.3 27.27, 53.15 -0.17 M-0.25 67.36 C16.58 47.99, 33.42 28.62, 58.14 0.19 M-0.25 67.36 C13.44 51.6, 27.14 35.85, 58.14 0.19 M0.14 73 C23.93 45.63, 47.72 18.27, 63.78 -0.21 M0.14 73 C23.66 45.94, 47.19 18.88, 63.78 -0.21 M-0.12 79.4 C24.2 51.43, 48.51 23.46, 68.77 0.15 M-0.12 79.4 C17.23 59.44, 34.58 39.48, 68.77 0.15 M0.28 85.04 C19.53 62.89, 38.79 40.74, 74.41 -0.24 M0.28 85.04 C25.94 55.51, 51.61 25.99, 74.41 -0.24 M0.01 91.44 C16.99 71.91, 33.97 52.37, 79.4 0.12 M0.01 91.44 C22.01 66.14, 44 40.84, 79.4 0.12 M-0.25 97.84 C25.8 67.87, 51.85 37.9, 85.04 -0.28 M-0.25 97.84 C33.35 59.19, 66.95 20.54, 85.04 -0.28 M0.15 103.48 C34.21 64.3, 68.27 25.11, 90.03 0.08 M0.15 103.48 C21.45 78.97, 42.75 54.47, 90.03 0.08 M-0.11 109.88 C30.35 74.83, 60.81 39.79, 95.67 -0.31 M-0.11 109.88 C28.9 76.5, 57.91 43.13, 95.67 -0.31 M0.28 115.52 C23.32 89.02, 46.36 62.51, 100.66 0.05 M0.28 115.52 C31.41 79.71, 62.54 43.9, 100.66 0.05 M0.02 121.92 C34.89 81.81, 69.75 41.7, 106.3 -0.34 M0.02 121.92 C38.8 77.31, 77.57 32.7, 106.3 -0.34 M-0.24 128.32 C35.48 87.22, 71.21 46.12, 111.29 0.02 M-0.24 128.32 C25.01 99.26, 50.27 70.21, 111.29 0.02 M0.15 133.96 C33.77 95.29, 67.38 56.62, 116.27 0.38 M0.15 133.96 C31.86 97.48, 63.58 61, 116.27 0.38 M-0.11 140.36 C34 101.12, 68.11 61.87, 121.92 -0.02 M-0.11 140.36 C44.74 88.77, 89.58 37.18, 121.92 -0.02 M0.29 146 C48.37 90.69, 96.45 35.38, 126.91 0.34 M0.29 146 C28.45 113.6, 56.62 81.19, 126.91 0.34 M0.02 152.4 C40.95 105.31, 81.88 58.23, 132.55 -0.05 M0.02 152.4 C35.34 111.77, 70.65 71.15, 132.55 -0.05 M-0.24 158.8 C41.05 111.3, 82.33 63.81, 137.54 0.31 M-0.24 158.8 C28.61 125.61, 57.46 92.43, 137.54 0.31 M0.16 164.44 C40.67 117.83, 81.19 71.22, 143.18 -0.09 M0.16 164.44 C44.21 113.76, 88.26 63.08, 143.18 -0.09 M-0.1 170.84 C55.28 107.12, 110.67 43.41, 148.17 0.27 M-0.1 170.84 C49.09 114.24, 98.29 57.65, 148.17 0.27 M0.29 176.48 C38.88 132.09, 77.47 87.69, 153.81 -0.12 M0.29 176.48 C35.35 136.14, 70.42 95.81, 153.81 -0.12 M0.03 182.88 C39.58 137.37, 79.14 91.87, 158.8 0.24 M0.03 182.88 C45.96 130.04, 91.89 77.21, 158.8 0.24 M-0.23 189.27 C54.28 126.56, 108.8 63.85, 162.47 2.11 M-0.23 189.27 C34.82 148.95, 69.87 108.63, 162.47 2.11 M0.16 194.92 C64.59 120.8, 129.02 46.68, 162.21 8.5 M0.16 194.92 C46.01 142.18, 91.85 89.44, 162.21 8.5 M-0.1 201.32 C37.28 158.31, 74.67 115.31, 162.6 14.15 M-0.1 201.32 C33.82 162.29, 67.75 123.26, 162.6 14.15 M0.3 206.96 C34.9 167.15, 69.5 127.35, 162.34 20.55 M0.3 206.96 C51.4 148.17, 102.5 89.39, 162.34 20.55 M0.03 213.36 C49.54 156.41, 99.04 99.46, 162.74 26.19 M0.03 213.36 C64.88 138.76, 129.72 64.17, 162.74 26.19 M-0.23 219.75 C51.02 160.8, 102.27 101.85, 162.48 32.59 M-0.23 219.75 C47.09 165.32, 94.41 110.89, 162.48 32.59 M0.17 225.4 C48.92 169.32, 97.66 113.24, 162.21 38.98 M0.17 225.4 C53.33 164.24, 106.49 103.08, 162.21 38.98 M-0.09 231.8 C39.51 186.24, 79.11 140.68, 162.61 44.63 M-0.09 231.8 C51.17 172.82, 102.44 113.84, 162.61 44.63 M0.3 237.44 C38.41 193.6, 76.52 149.76, 162.35 51.02 M0.3 237.44 C63.68 164.52, 127.07 91.61, 162.35 51.02 M2.01 241.57 C60.48 174.31, 118.95 107.05, 162.74 56.67 M2.01 241.57 C65.59 168.43, 129.17 95.29, 162.74 56.67 M6.99 241.93 C53.08 188.91, 99.17 135.89, 162.48 63.07 M6.99 241.93 C58.83 182.3, 110.67 122.66, 162.48 63.07 M12.64 241.54 C67.14 178.84, 121.64 116.14, 162.22 69.46 M12.64 241.54 C63.66 182.84, 114.68 124.15, 162.22 69.46 M17.62 241.9 C67.96 183.99, 118.29 126.09, 162.61 75.11 M17.62 241.9 C68.66 183.18, 119.7 124.47, 162.61 75.11 M23.27 241.5 C72.93 184.38, 122.59 127.25, 162.35 81.5 M23.27 241.5 C59.73 199.55, 96.2 157.61, 162.35 81.5 M28.25 241.86 C58.3 207.3, 88.34 172.74, 162.75 87.15 M28.25 241.86 C81.48 180.63, 134.71 119.4, 162.75 87.15 M33.9 241.47 C82.37 185.7, 130.85 129.94, 162.48 93.55 M33.9 241.47 C68.73 201.4, 103.56 161.34, 162.48 93.55 M38.88 241.83 C67.81 208.55, 96.74 175.27, 162.22 99.94 M38.88 241.83 C71.56 204.23, 104.25 166.64, 162.22 99.94 M44.53 241.43 C77.93 203, 111.34 164.57, 162.62 105.59 M44.53 241.43 C89.49 189.71, 134.45 137.99, 162.62 105.59 M49.51 241.79 C79.25 207.59, 108.99 173.38, 162.36 111.98 M49.51 241.79 C84.66 201.36, 119.81 160.93, 162.36 111.98 M55.16 241.4 C82.79 209.61, 110.43 177.81, 162.75 117.63 M55.16 241.4 C77.42 215.79, 99.69 190.17, 162.75 117.63 M60.14 241.76 C87.44 210.36, 114.73 178.97, 162.49 124.02 M60.14 241.76 C94.81 201.88, 129.49 161.99, 162.49 124.02 M65.79 241.36 C95.15 207.59, 124.5 173.82, 162.23 130.42 M65.79 241.36 C91.46 211.83, 117.14 182.29, 162.23 130.42 M70.77 241.73 C105.1 202.24, 139.42 162.75, 162.62 136.07 M70.77 241.73 C98.49 209.84, 126.22 177.95, 162.62 136.07 M76.42 241.33 C106.89 206.28, 137.36 171.22, 162.36 142.46 M76.42 241.33 C100.21 213.96, 124.01 186.59, 162.36 142.46 M81.4 241.69 C112.96 205.39, 144.51 169.1, 162.76 148.11 M81.4 241.69 C98.26 222.3, 115.12 202.91, 162.76 148.11 M87.05 241.3 C114.19 210.08, 141.32 178.86, 162.49 154.5 M87.05 241.3 C106.57 218.84, 126.09 196.39, 162.49 154.5 M92.03 241.66 C112.09 218.58, 132.15 195.51, 162.23 160.9 M92.03 241.66 C106.99 224.45, 121.95 207.25, 162.23 160.9 M97.02 242.02 C122.98 212.15, 148.94 182.29, 162.63 166.55 M97.02 242.02 C112.32 224.42, 127.62 206.82, 162.63 166.55 M102.66 241.62 C121.62 219.82, 140.57 198.02, 162.37 172.94 M102.66 241.62 C122.31 219.02, 141.96 196.42, 162.37 172.94 M107.65 241.98 C127.59 219.04, 147.53 196.11, 162.76 178.59 M107.65 241.98 C125.47 221.49, 143.28 201, 162.76 178.59 M113.29 241.59 C128.38 224.24, 143.46 206.89, 162.5 184.98 M113.29 241.59 C128.87 223.67, 144.44 205.76, 162.5 184.98 M118.28 241.95 C130.62 227.75, 142.97 213.55, 162.24 191.38 M118.28 241.95 C129.42 229.13, 140.56 216.32, 162.24 191.38 M123.92 241.55 C137.47 225.98, 151.01 210.4, 162.63 197.02 M123.92 241.55 C138.95 224.27, 153.97 206.99, 162.63 197.02 M128.91 241.91 C142.26 226.56, 155.6 211.21, 162.37 203.42 M128.91 241.91 C137.27 232.3, 145.63 222.68, 162.37 203.42 M134.55 241.52 C143.52 231.21, 152.48 220.89, 162.77 209.07 M134.55 241.52 C143.26 231.51, 151.96 221.5, 162.77 209.07 M139.54 241.88 C146.1 234.34, 152.65 226.79, 162.5 215.46 M139.54 241.88 C147.35 232.89, 155.16 223.91, 162.5 215.46 M145.19 241.48 C151.23 234.53, 157.27 227.58, 162.24 221.86 M145.19 241.48 C150.19 235.73, 155.19 229.97, 162.24 221.86 M150.17 241.84 C154.33 237.06, 158.5 232.27, 162.64 227.5 M150.17 241.84 C153.33 238.21, 156.49 234.57, 162.64 227.5 M155.82 241.45 C158.28 238.61, 160.75 235.77, 162.38 233.9 M155.82 241.45 C157.85 239.11, 159.88 236.77, 162.38 233.9" stroke="#0b7285" stroke-width="0.5" fill="none"></path><path d="M0 0 C59.41 0, 118.81 0, 160 0 M160 0 C160 67, 160 133.99, 160 240 M160 240 C122.64 240, 85.27 240, 0 240 M0 240 C0 171.04, 0 102.07, 0 0" stroke="#0b7285" stroke-width="1.5" fill="none" stroke-dasharray="8 9"></path></g><g stroke-linecap="round" transform="translate(830 50) rotate(0 80 36)"><path d="M18 0 L142 0 L149.88 1.13 L155.5 4.5 L157.47 7.03 L159.72 13.78 L160 54 L158.88 61.88 L157.47 64.97 L152.97 69.47 L149.88 70.88 L142 72 L18 72 L10.13 70.88 L4.5 67.5 L2.53 64.97 L0.28 58.22 L0.28 13.78 L1.13 10.13 L4.5 4.5 L10.13 1.13 L18 0" stroke="none" stroke-width="0" fill="#FFF"></path><path d="M18 0 M18 0 C57.23 0, 96.47 0, 142 0 M18 0 C46.18 0, 74.36 0, 142 0 M142 0 C154 0, 160 6, 160 18 M142 0 C154 0, 160 6, 160 18 M160 18 C160 28.43, 160 38.86, 160 54 M160 18 C160 26, 160 34.01, 160 54 M160 54 C160 66, 154 72, 142 72 M160 54 C160 66, 154 72, 142 72 M142 72 C109.8 72, 77.61 72, 18 72 M142 72 C96.56 72, 51.13 72, 18 72 M18 72 C6 72, 0 66, 0 54 M18 72 C6 72, 0 66, 0 54 M0 54 C0 44.69, 0 35.38, 0 18 M0 54 C0 41.91, 0 29.82, 0 18 M0 18 C0 6, 6 0, 18 0 M0 18 C0 6, 6 0, 18 0" stroke="#364fc7" stroke-width="2" fill="none"></path></g><g transform="translate(895 79) rotate(0 39.5 13.5)"><text x="0" y="10.5" font-family="Helvetica, Segoe UI Emoji" font-size="12px" fill="#364fc7" text-anchor="start" style="white-space: pre;" direction="ltr">Cloud Run</text><text x="0" y="24" font-family="Helvetica, Segoe UI Emoji" font-size="12px" fill="#364fc7" text-anchor="start" style="white-space: pre;" direction="ltr">mlclassifier api</text></g><g stroke-linecap="round"><g transform="translate(858.3755550384521 73.5022222995758) rotate(0 8.311112403869629 6.248888850212097)" fill-rule="evenodd"><path d="M0 0 L4.15 12.5 L16.62 12.5 L0 0 L0 0" stroke="none" stroke-width="0" fill="#aecbfa" fill-rule="evenodd"></path><path d="M0 0 C1.16 3.49, 2.32 6.99, 4.15 12.5 M0 0 C1.61 4.85, 3.22 9.69, 4.15 12.5 M4.15 12.5 C8.64 12.5, 13.13 12.5, 16.62 12.5 M4.15 12.5 C8.53 12.5, 12.9 12.5, 16.62 12.5 M16.62 12.5 C12.35 9.29, 8.09 6.08, 0 0 M16.62 12.5 C12.17 9.15, 7.72 5.8, 0 0 M0 0 C0 0, 0 0, 0 0 M0 0 C0 0, 0 0, 0 0 M0 0 C0 0, 0 0, 0 0 M0 0 C0 0, 0 0, 0 0" stroke="#364fc7" stroke-width="1" fill="none"></path></g></g><g stroke-linecap="round"><g transform="translate(874.9977798461914 86) rotate(0 -8.311112403869629 6.248889923095703)" fill-rule="evenodd"><path d="M0 0 L-12.47 0 L-16.62 12.5 L0 0 L0 0" stroke="none" stroke-width="0" fill="#4285f4" fill-rule="evenodd"></path><path d="M0 0 C-3.61 0, -7.22 0, -12.47 0 M0 0 C-3.85 0, -7.7 0, -12.47 0 M-12.47 0 C-13.77 3.91, -15.07 7.83, -16.62 12.5 M-12.47 0 C-13.87 4.22, -15.28 8.45, -16.62 12.5 M-16.62 12.5 C-11.43 8.59, -6.23 4.68, 0 0 M-16.62 12.5 C-12.81 9.63, -8.99 6.76, 0 0 M0 0 C0 0, 0 0, 0 0 M0 0 C0 0, 0 0, 0 0 M0 0 C0 0, 0 0, 0 0 M0 0 C0 0, 0 0, 0 0" stroke="#364fc7" stroke-width="1" fill="none"></path></g></g><g stroke-linecap="round"><g transform="translate(851.0866665840149 98.4977798461914) rotate(0 3.644444227218628 -6.248889923095703)" fill-rule="evenodd"><path d="M0 0 L4.17 -2.08 L7.29 -12.5 L3.12 -12.5 L0 0 L0 0" stroke="none" stroke-width="0" fill="#4285f4" fill-rule="evenodd"></path><path d="M0 0 C1.15 -0.58, 2.31 -1.15, 4.17 -2.08 M0 0 C1.17 -0.58, 2.33 -1.16, 4.17 -2.08 M4.17 -2.08 C4.95 -4.68, 5.73 -7.28, 7.29 -12.5 M4.17 -2.08 C5.25 -5.7, 6.34 -9.32, 7.29 -12.5 M7.29 -12.5 C6.23 -12.5, 5.16 -12.5, 3.12 -12.5 M7.29 -12.5 C5.63 -12.5, 3.97 -12.5, 3.12 -12.5 M3.12 -12.5 C2.03 -8.12, 0.93 -3.74, 0 0 M3.12 -12.5 C2.19 -8.76, 1.25 -5.02, 0 0 M0 0 C0 0, 0 0, 0 0 M0 0 C0 0, 0 0, 0 0 M0 0 C0 0, 0 0, 0 0 M0 0 C0 0, 0 0, 0 0" stroke="#364fc7" stroke-width="1" fill="none"></path></g></g><g stroke-linecap="round"><g transform="translate(851.0866665840149 73.5022222995758) rotate(0 3.644444227218628 6.248888850212097)" fill-rule="evenodd"><path d="M0 0 L3.12 12.5 L7.29 12.5 L4.17 2.08 L0 0 L0 0" stroke="none" stroke-width="0" fill="#aecbfa" fill-rule="evenodd"></path><path d="M0 0 C0.75 3.01, 1.5 6.02, 3.12 12.5 M0 0 C1.25 4.99, 2.49 9.98, 3.12 12.5 M3.12 12.5 C4.01 12.5, 4.9 12.5, 7.29 12.5 M3.12 12.5 C4.51 12.5, 5.91 12.5, 7.29 12.5 M7.29 12.5 C6.36 9.41, 5.44 6.33, 4.17 2.08 M7.29 12.5 C6.2 8.85, 5.1 5.2, 4.17 2.08 M4.17 2.08 C2.74 1.37, 1.32 0.66, 0 0 M4.17 2.08 C2.54 1.27, 0.91 0.45, 0 0 M0 0 C0 0, 0 0, 0 0 M0 0 C0 0, 0 0, 0 0 M0 0 C0 0, 0 0, 0 0 M0 0 C0 0, 0 0, 0 0" stroke="#364fc7" stroke-width="1" fill="none"></path></g></g><g stroke-linecap="round" transform="translate(830 210) rotate(0 80 36)"><path d="M18 0 L142 0 L149.88 1.13 L155.5 4.5 L157.47 7.03 L159.72 13.78 L160 54 L158.88 61.88 L157.47 64.97 L152.97 69.47 L149.88 70.88 L142 72 L18 72 L10.13 70.88 L4.5 67.5 L2.53 64.97 L0.28 58.22 L0.28 13.78 L1.13 10.13 L4.5 4.5 L10.13 1.13 L18 0" stroke="none" stroke-width="0" fill="#FFF"></path><path d="M18 0 M18 0 C63.46 0, 108.92 0, 142 0 M18 0 C65.21 0, 112.42 0, 142 0 M142 0 C154 0, 160 6, 160 18 M142 0 C154 0, 160 6, 160 18 M160 18 C160 28.83, 160 39.66, 160 54 M160 18 C160 29.21, 160 40.43, 160 54 M160 54 C160 66, 154 72, 142 72 M160 54 C160 66, 154 72, 142 72 M142 72 C97.44 72, 52.87 72, 18 72 M142 72 C116.34 72, 90.68 72, 18 72 M18 72 C6 72, 0 66, 0 54 M18 72 C6 72, 0 66, 0 54 M0 54 C0 40.44, 0 26.88, 0 18 M0 54 C0 41.8, 0 29.61, 0 18 M0 18 C0 6, 6 0, 18 0 M0 18 C0 6, 6 0, 18 0" stroke="#364fc7" stroke-width="2" fill="none"></path></g><g transform="translate(895 239) rotate(0 43.5 13.5)"><text x="0" y="10.5" font-family="Helvetica, Segoe UI Emoji" font-size="12px" fill="#364fc7" text-anchor="start" style="white-space: pre;" direction="ltr">Cloud Functions</text><text x="0" y="24" font-family="Helvetica, Segoe UI Emoji" font-size="12px" fill="#364fc7" text-anchor="start" style="white-space: pre;" direction="ltr">userlog</text></g><g stroke-linecap="round"><g transform="translate(848.3131700754166 250.98376846313477) rotate(0 2.121898829936981 -5.035223007202148)" fill-rule="evenodd"><path d="M0 0 L4.24 3.45 L4.24 -13.52 L0 -10.09 L0 0" stroke="none" stroke-width="0" fill="#669df6" fill-rule="evenodd"></path><path d="M0 0 C0.99 0.8, 1.97 1.6, 4.24 3.45 M0 0 C1.26 1.02, 2.52 2.05, 4.24 3.45 M4.24 3.45 C4.24 -2.25, 4.24 -7.94, 4.24 -13.52 M4.24 3.45 C4.24 -3.31, 4.24 -10.07, 4.24 -13.52 M4.24 -13.52 C3.18 -12.66, 2.12 -11.8, 0 -10.09 M4.24 -13.52 C3.21 -12.68, 2.17 -11.84, 0 -10.09 M0 -10.09 C0 -6.73, 0 -3.37, 0 0 M0 -10.09 C0 -7.87, 0 -5.66, 0 0 M0 0 C0 0, 0 0, 0 0 M0 0 C0 0, 0 0, 0 0" stroke="#364fc7" stroke-width="1" fill="none"></path></g></g><g stroke-linecap="round"><g transform="translate(848.3131700754166 243.11853122711182) rotate(0 2.121898829936981 -2.8275656700134277)" fill-rule="evenodd"><path d="M0 0 L4.24 -2.83 L4.24 -5.66 L0 0" stroke="none" stroke-width="0" fill="#4285f4" fill-rule="evenodd"></path><path d="M0 0 C1.25 -0.83, 2.5 -1.67, 4.24 -2.83 M0 0 C1.27 -0.85, 2.55 -1.7, 4.24 -2.83 M4.24 -2.83 C4.24 -3.42, 4.24 -4.02, 4.24 -5.66 M4.24 -2.83 C4.24 -3.71, 4.24 -4.6, 4.24 -5.66 M4.24 -5.66 C2.74 -3.65, 1.23 -1.64, 0 0 M4.24 -5.66 C2.98 -3.97, 1.71 -2.28, 0 0 M0 0 C0 0, 0 0, 0 0 M0 0 C0 0, 0 0, 0 0" stroke="#364fc7" stroke-width="1" fill="none"></path></g></g><g stroke-linecap="round"><g transform="translate(852.5569677352905 254.43369102478027) rotate(0 -2.121898829936981 -2.830015182495117)" fill-rule="evenodd"><path d="M0 0 L0 -2.83 L-4.24 -5.66 L0 0" stroke="none" stroke-width="0" fill="#4285f4" fill-rule="evenodd"></path><path d="M0 0 C0 -0.62, 0 -1.23, 0 -2.83 M0 0 C0 -1.08, 0 -2.16, 0 -2.83 M0 -2.83 C-1.66 -3.93, -3.31 -5.04, -4.24 -5.66 M0 -2.83 C-1.26 -3.67, -2.52 -4.51, -4.24 -5.66 M-4.24 -5.66 C-3.37 -4.49, -2.49 -3.32, 0 0 M-4.24 -5.66 C-2.89 -3.85, -1.53 -2.04, 0 0 M0 0 C0 0, 0 0, 0 0 M0 0 C0 0, 0 0, 0 0" stroke="#364fc7" stroke-width="1" fill="none"></path></g></g><g stroke-linecap="round"><g transform="translate(856.7958660125732 257.2612552642822) rotate(0 -4.241347968578339 -2.830014228820801)" fill-rule="evenodd"><path d="M0 0 L-8.48 -8.49 L-8.48 -2.83 L-2.83 2.83 L0 0" stroke="none" stroke-width="0" fill="#aecbfa" fill-rule="evenodd"></path><path d="M0 0 C-1.9 -1.9, -3.8 -3.8, -8.48 -8.49 M0 0 C-3.12 -3.12, -6.24 -6.25, -8.48 -8.49 M-8.48 -8.49 C-8.48 -6.9, -8.48 -5.32, -8.48 -2.83 M-8.48 -8.49 C-8.48 -7.08, -8.48 -5.67, -8.48 -2.83 M-8.48 -2.83 C-6.41 -0.75, -4.34 1.32, -2.83 2.83 M-8.48 -2.83 C-6.97 -1.32, -5.46 0.19, -2.83 2.83 M-2.83 2.83 C-2.09 2.09, -1.35 1.35, 0 0 M-2.83 2.83 C-2.17 2.17, -1.52 1.52, 0 0 M0 0 C0 0, 0 0, 0 0 M0 0 C0 0, 0 0, 0 0" stroke="#364fc7" stroke-width="1" fill="none"></path></g></g><g stroke-linecap="round"><g transform="translate(853.9535994529724 231.82297098636627) rotate(0 -1.4039823412895203 5.647780120372772)" fill-rule="evenodd"><path d="M0 0 L-5.64 5.64 L-5.63 11.3 L2.83 2.83 L0 0" stroke="none" stroke-width="0" fill="#aecbfa" fill-rule="evenodd"></path><path d="M0 0 C-2.07 2.07, -4.13 4.13, -5.64 5.64 M0 0 C-1.82 1.82, -3.65 3.65, -5.64 5.64 M-5.64 5.64 C-5.64 7.54, -5.63 9.44, -5.63 11.3 M-5.64 5.64 C-5.64 6.88, -5.63 8.11, -5.63 11.3 M-5.63 11.3 C-3.58 9.24, -1.53 7.19, 2.83 2.83 M-5.63 11.3 C-2.81 8.48, 0.01 5.66, 2.83 2.83 M2.83 2.83 C1.93 1.93, 1.03 1.03, 0 0 M2.83 2.83 C1.98 1.98, 1.14 1.13, 0 0 M0 0 C0 0, 0 0, 0 0 M0 0 C0 0, 0 0, 0 0" stroke="#364fc7" stroke-width="1" fill="none"></path></g></g><g stroke-linecap="round"><g transform="translate(876.5937213897705 240.9280252456665) rotate(0 -2.119448661804199 5.035222053527832)" fill-rule="evenodd"><path d="M0 0 L-4.24 -3.45 L-4.24 13.52 L0 10.09 L0 0" stroke="none" stroke-width="0" fill="#669df6" fill-rule="evenodd"></path><path d="M0 0 C-1.15 -0.93, -2.3 -1.87, -4.24 -3.45 M0 0 C-0.99 -0.81, -1.99 -1.62, -4.24 -3.45 M-4.24 -3.45 C-4.24 1.05, -4.24 5.54, -4.24 13.52 M-4.24 -3.45 C-4.24 1.35, -4.24 6.15, -4.24 13.52 M-4.24 13.52 C-2.63 12.22, -1.01 10.91, 0 10.09 M-4.24 13.52 C-3.12 12.62, -2 11.71, 0 10.09 M0 10.09 C0 6.95, 0 3.81, 0 0 M0 10.09 C0 7.5, 0 4.91, 0 0 M0 0 C0 0, 0 0, 0 0 M0 0 C0 0, 0 0, 0 0" stroke="#364fc7" stroke-width="1" fill="none"></path></g></g><g stroke-linecap="round"><g transform="translate(876.5937213897705 248.78836250305176) rotate(0 -2.119448661804199 2.830015182495117)" fill-rule="evenodd"><path d="M0 0 L-4.24 2.83 L-4.24 5.66 L0 0" stroke="none" stroke-width="0" fill="#4285f4" fill-rule="evenodd"></path><path d="M0 0 C-1.7 1.13, -3.39 2.26, -4.24 2.83 M0 0 C-0.86 0.57, -1.72 1.14, -4.24 2.83 M-4.24 2.83 C-4.24 3.78, -4.24 4.74, -4.24 5.66 M-4.24 2.83 C-4.24 3.47, -4.24 4.11, -4.24 5.66 M-4.24 5.66 C-3.2 4.28, -2.17 2.9, 0 0 M-4.24 5.66 C-3.39 4.52, -2.53 3.38, 0 0 M0 0 C0 0, 0 0, 0 0 M0 0 C0 0, 0 0, 0 0" stroke="#364fc7" stroke-width="1" fill="none"></path></g></g><g stroke-linecap="round"><g transform="translate(872.3548240661621 237.47810173034668) rotate(0 2.119448661804199 2.8275651931762695)" fill-rule="evenodd"><path d="M0 0 L0 2.83 L4.24 5.66 L0 0" stroke="none" stroke-width="0" fill="#4285f4" fill-rule="evenodd"></path><path d="M0 0 C0 0.99, 0 1.97, 0 2.83 M0 0 C0 0.74, 0 1.49, 0 2.83 M0 2.83 C1.19 3.62, 2.39 4.42, 4.24 5.66 M0 2.83 C1.39 3.76, 2.79 4.69, 4.24 5.66 M4.24 5.66 C3.02 4.03, 1.8 2.4, 0 0 M4.24 5.66 C3.28 4.37, 2.31 3.09, 0 0 M0 0 C0 0, 0 0, 0 0 M0 0 C0 0, 0 0, 0 0" stroke="#364fc7" stroke-width="1" fill="none"></path></g></g><g stroke-linecap="round"><g transform="translate(868.111026763916 234.65053606033325) rotate(0 4.241347312927246 2.8275654911994934)" fill-rule="evenodd"><path d="M0 0 L8.48 8.48 L8.48 2.83 L2.83 -2.83 L0 0" stroke="none" stroke-width="0" fill="#aecbfa" fill-rule="evenodd"></path><path d="M0 0 C3.04 3.04, 6.07 6.07, 8.48 8.48 M0 0 C2.19 2.19, 4.39 4.39, 8.48 8.48 M8.48 8.48 C8.48 6.72, 8.48 4.95, 8.48 2.83 M8.48 8.48 C8.48 6.46, 8.48 4.45, 8.48 2.83 M8.48 2.83 C6.32 0.66, 4.15 -1.51, 2.83 -2.83 M8.48 2.83 C6.63 0.97, 4.77 -0.88, 2.83 -2.83 M2.83 -2.83 C1.94 -1.94, 1.05 -1.05, 0 0 M2.83 -2.83 C2.22 -2.22, 1.62 -1.62, 0 0 M0 0 C0 0, 0 0, 0 0 M0 0 C0 0, 0 0, 0 0" stroke="#364fc7" stroke-width="1" fill="none"></path></g></g><g stroke-linecap="round"><g transform="translate(870.9532928466797 260.0888214111328) rotate(0 1.4064311981201172 -5.650229454040527)" fill-rule="evenodd"><path d="M0 0 L5.64 -5.64 L5.63 -11.3 L-2.83 -2.83 L0 0" stroke="none" stroke-width="0" fill="#aecbfa" fill-rule="evenodd"></path><path d="M0 0 C2.2 -2.2, 4.41 -4.41, 5.64 -5.64 M0 0 C1.42 -1.42, 2.84 -2.84, 5.64 -5.64 M5.64 -5.64 C5.63 -7.8, 5.63 -9.95, 5.63 -11.3 M5.64 -5.64 C5.64 -7.72, 5.63 -9.79, 5.63 -11.3 M5.63 -11.3 C2.85 -8.52, 0.07 -5.73, -2.83 -2.83 M5.63 -11.3 C3.08 -8.75, 0.54 -6.2, -2.83 -2.83 M-2.83 -2.83 C-1.89 -1.89, -0.96 -0.96, 0 0 M-2.83 -2.83 C-1.81 -1.81, -0.8 -0.8, 0 0 M0 0 C0 0, 0 0, 0 0 M0 0 C0 0, 0 0, 0 0" stroke="#364fc7" stroke-width="1" fill="none"></path></g></g><g stroke-linecap="round" transform="translate(855.3796329498291 244.52986240386963) rotate(0 1.4162328243255615 1.4162328243255615)"><path d="M2.83 1.42 C2.83 1.5, 2.83 1.58, 2.81 1.66 C2.8 1.74, 2.78 1.82, 2.75 1.9 C2.72 1.98, 2.68 2.05, 2.64 2.12 C2.6 2.2, 2.55 2.26, 2.5 2.33 C2.45 2.39, 2.39 2.45, 2.33 2.5 C2.26 2.55, 2.2 2.6, 2.12 2.64 C2.05 2.68, 1.98 2.72, 1.9 2.75 C1.82 2.78, 1.74 2.8, 1.66 2.81 C1.58 2.83, 1.5 2.83, 1.42 2.83 C1.33 2.83, 1.25 2.83, 1.17 2.81 C1.09 2.8, 1.01 2.78, 0.93 2.75 C0.85 2.72, 0.78 2.68, 0.71 2.64 C0.64 2.6, 0.57 2.55, 0.51 2.5 C0.44 2.45, 0.38 2.39, 0.33 2.33 C0.28 2.26, 0.23 2.2, 0.19 2.12 C0.15 2.05, 0.11 1.98, 0.09 1.9 C0.06 1.82, 0.04 1.74, 0.02 1.66 C0.01 1.58, 0 1.5, 0 1.42 C0 1.33, 0.01 1.25, 0.02 1.17 C0.04 1.09, 0.06 1.01, 0.09 0.93 C0.11 0.85, 0.15 0.78, 0.19 0.71 C0.23 0.64, 0.28 0.57, 0.33 0.51 C0.38 0.44, 0.44 0.38, 0.51 0.33 C0.57 0.28, 0.64 0.23, 0.71 0.19 C0.78 0.15, 0.85 0.11, 0.93 0.09 C1.01 0.06, 1.09 0.04, 1.17 0.02 C1.25 0.01, 1.33 0, 1.42 0 C1.5 0, 1.58 0.01, 1.66 0.02 C1.74 0.04, 1.82 0.06, 1.9 0.09 C1.98 0.11, 2.05 0.15, 2.12 0.19 C2.2 0.23, 2.26 0.28, 2.33 0.33 C2.39 0.38, 2.45 0.44, 2.5 0.51 C2.55 0.57, 2.6 0.64, 2.64 0.71 C2.68 0.78, 2.72 0.85, 2.75 0.93 C2.78 1.01, 2.8 1.09, 2.81 1.17 C2.83 1.25, 2.83 1.38, 2.83 1.42 C2.84 1.46, 2.84 1.38, 2.83 1.42" stroke="none" stroke-width="0" fill="#aecbfa"></path><path d="M2.83 1.42 C2.83 1.5, 2.83 1.58, 2.81 1.66 C2.8 1.74, 2.78 1.82, 2.75 1.9 C2.72 1.98, 2.68 2.05, 2.64 2.12 C2.6 2.2, 2.55 2.26, 2.5 2.33 C2.45 2.39, 2.39 2.45, 2.33 2.5 C2.26 2.55, 2.2 2.6, 2.12 2.64 C2.05 2.68, 1.98 2.72, 1.9 2.75 C1.82 2.78, 1.74 2.8, 1.66 2.81 C1.58 2.83, 1.5 2.83, 1.42 2.83 C1.33 2.83, 1.25 2.83, 1.17 2.81 C1.09 2.8, 1.01 2.78, 0.93 2.75 C0.85 2.72, 0.78 2.68, 0.71 2.64 C0.64 2.6, 0.57 2.55, 0.51 2.5 C0.44 2.45, 0.38 2.39, 0.33 2.33 C0.28 2.26, 0.23 2.2, 0.19 2.12 C0.15 2.05, 0.11 1.98, 0.09 1.9 C0.06 1.82, 0.04 1.74, 0.02 1.66 C0.01 1.58, 0 1.5, 0 1.42 C0 1.33, 0.01 1.25, 0.02 1.17 C0.04 1.09, 0.06 1.01, 0.09 0.93 C0.11 0.85, 0.15 0.78, 0.19 0.71 C0.23 0.64, 0.28 0.57, 0.33 0.51 C0.38 0.44, 0.44 0.38, 0.51 0.33 C0.57 0.28, 0.64 0.23, 0.71 0.19 C0.78 0.15, 0.85 0.11, 0.93 0.09 C1.01 0.06, 1.09 0.04, 1.17 0.02 C1.25 0.01, 1.33 0, 1.42 0 C1.5 0, 1.58 0.01, 1.66 0.02 C1.74 0.04, 1.82 0.06, 1.9 0.09 C1.98 0.11, 2.05 0.15, 2.12 0.19 C2.2 0.23, 2.26 0.28, 2.33 0.33 C2.39 0.38, 2.45 0.44, 2.5 0.51 C2.55 0.57, 2.6 0.64, 2.64 0.71 C2.68 0.78, 2.72 0.85, 2.75 0.93 C2.78 1.01, 2.8 1.09, 2.81 1.17 C2.83 1.25, 2.83 1.38, 2.83 1.42 C2.84 1.46, 2.84 1.38, 2.83 1.42" stroke="#364fc7" stroke-width="1" fill="none"></path></g><g stroke-linecap="round" transform="translate(861.0396642684937 244.52986240386963) rotate(0 1.4162328243255615 1.4162328243255615)"><path d="M2.83 1.42 C2.83 1.5, 2.83 1.58, 2.81 1.66 C2.8 1.74, 2.78 1.82, 2.75 1.9 C2.72 1.98, 2.68 2.05, 2.64 2.12 C2.6 2.2, 2.55 2.26, 2.5 2.33 C2.45 2.39, 2.39 2.45, 2.33 2.5 C2.26 2.55, 2.2 2.6, 2.12 2.64 C2.05 2.68, 1.98 2.72, 1.9 2.75 C1.82 2.78, 1.74 2.8, 1.66 2.81 C1.58 2.83, 1.5 2.83, 1.42 2.83 C1.33 2.83, 1.25 2.83, 1.17 2.81 C1.09 2.8, 1.01 2.78, 0.93 2.75 C0.85 2.72, 0.78 2.68, 0.71 2.64 C0.64 2.6, 0.57 2.55, 0.51 2.5 C0.44 2.45, 0.38 2.39, 0.33 2.33 C0.28 2.26, 0.23 2.2, 0.19 2.12 C0.15 2.05, 0.11 1.98, 0.09 1.9 C0.06 1.82, 0.04 1.74, 0.02 1.66 C0.01 1.58, 0 1.5, 0 1.42 C0 1.33, 0.01 1.25, 0.02 1.17 C0.04 1.09, 0.06 1.01, 0.09 0.93 C0.11 0.85, 0.15 0.78, 0.19 0.71 C0.23 0.64, 0.28 0.57, 0.33 0.51 C0.38 0.44, 0.44 0.38, 0.51 0.33 C0.57 0.28, 0.64 0.23, 0.71 0.19 C0.78 0.15, 0.85 0.11, 0.93 0.09 C1.01 0.06, 1.09 0.04, 1.17 0.02 C1.25 0.01, 1.33 0, 1.42 0 C1.5 0, 1.58 0.01, 1.66 0.02 C1.74 0.04, 1.82 0.06, 1.9 0.09 C1.98 0.11, 2.05 0.15, 2.12 0.19 C2.2 0.23, 2.26 0.28, 2.33 0.33 C2.39 0.38, 2.45 0.44, 2.5 0.51 C2.55 0.57, 2.6 0.64, 2.64 0.71 C2.68 0.78, 2.72 0.85, 2.75 0.93 C2.78 1.01, 2.8 1.09, 2.81 1.17 C2.83 1.25, 2.83 1.38, 2.83 1.42 C2.84 1.46, 2.84 1.38, 2.83 1.42" stroke="none" stroke-width="0" fill="#aecbfa"></path><path d="M2.83 1.42 C2.83 1.5, 2.83 1.58, 2.81 1.66 C2.8 1.74, 2.78 1.82, 2.75 1.9 C2.72 1.98, 2.68 2.05, 2.64 2.12 C2.6 2.2, 2.55 2.26, 2.5 2.33 C2.45 2.39, 2.39 2.45, 2.33 2.5 C2.26 2.55, 2.2 2.6, 2.12 2.64 C2.05 2.68, 1.98 2.72, 1.9 2.75 C1.82 2.78, 1.74 2.8, 1.66 2.81 C1.58 2.83, 1.5 2.83, 1.42 2.83 C1.33 2.83, 1.25 2.83, 1.17 2.81 C1.09 2.8, 1.01 2.78, 0.93 2.75 C0.85 2.72, 0.78 2.68, 0.71 2.64 C0.64 2.6, 0.57 2.55, 0.51 2.5 C0.44 2.45, 0.38 2.39, 0.33 2.33 C0.28 2.26, 0.23 2.2, 0.19 2.12 C0.15 2.05, 0.11 1.98, 0.09 1.9 C0.06 1.82, 0.04 1.74, 0.02 1.66 C0.01 1.58, 0 1.5, 0 1.42 C0 1.33, 0.01 1.25, 0.02 1.17 C0.04 1.09, 0.06 1.01, 0.09 0.93 C0.11 0.85, 0.15 0.78, 0.19 0.71 C0.23 0.64, 0.28 0.57, 0.33 0.51 C0.38 0.44, 0.44 0.38, 0.51 0.33 C0.57 0.28, 0.64 0.23, 0.71 0.19 C0.78 0.15, 0.85 0.11, 0.93 0.09 C1.01 0.06, 1.09 0.04, 1.17 0.02 C1.25 0.01, 1.33 0, 1.42 0 C1.5 0, 1.58 0.01, 1.66 0.02 C1.74 0.04, 1.82 0.06, 1.9 0.09 C1.98 0.11, 2.05 0.15, 2.12 0.19 C2.2 0.23, 2.26 0.28, 2.33 0.33 C2.39 0.38, 2.45 0.44, 2.5 0.51 C2.55 0.57, 2.6 0.64, 2.64 0.71 C2.68 0.78, 2.72 0.85, 2.75 0.93 C2.78 1.01, 2.8 1.09, 2.81 1.17 C2.83 1.25, 2.83 1.38, 2.83 1.42 C2.84 1.46, 2.84 1.38, 2.83 1.42" stroke="#364fc7" stroke-width="1" fill="none"></path></g><g stroke-linecap="round" transform="translate(866.6800918579102 244.52986240386963) rotate(0 1.4162328243255615 1.4162328243255615)"><path d="M2.83 1.42 C2.83 1.5, 2.83 1.58, 2.81 1.66 C2.8 1.74, 2.78 1.82, 2.75 1.9 C2.72 1.98, 2.68 2.05, 2.64 2.12 C2.6 2.2, 2.55 2.26, 2.5 2.33 C2.45 2.39, 2.39 2.45, 2.33 2.5 C2.26 2.55, 2.2 2.6, 2.12 2.64 C2.05 2.68, 1.98 2.72, 1.9 2.75 C1.82 2.78, 1.74 2.8, 1.66 2.81 C1.58 2.83, 1.5 2.83, 1.42 2.83 C1.33 2.83, 1.25 2.83, 1.17 2.81 C1.09 2.8, 1.01 2.78, 0.93 2.75 C0.85 2.72, 0.78 2.68, 0.71 2.64 C0.64 2.6, 0.57 2.55, 0.51 2.5 C0.44 2.45, 0.38 2.39, 0.33 2.33 C0.28 2.26, 0.23 2.2, 0.19 2.12 C0.15 2.05, 0.11 1.98, 0.09 1.9 C0.06 1.82, 0.04 1.74, 0.02 1.66 C0.01 1.58, 0 1.5, 0 1.42 C0 1.33, 0.01 1.25, 0.02 1.17 C0.04 1.09, 0.06 1.01, 0.09 0.93 C0.11 0.85, 0.15 0.78, 0.19 0.71 C0.23 0.64, 0.28 0.57, 0.33 0.51 C0.38 0.44, 0.44 0.38, 0.51 0.33 C0.57 0.28, 0.64 0.23, 0.71 0.19 C0.78 0.15, 0.85 0.11, 0.93 0.09 C1.01 0.06, 1.09 0.04, 1.17 0.02 C1.25 0.01, 1.33 0, 1.42 0 C1.5 0, 1.58 0.01, 1.66 0.02 C1.74 0.04, 1.82 0.06, 1.9 0.09 C1.98 0.11, 2.05 0.15, 2.12 0.19 C2.2 0.23, 2.26 0.28, 2.33 0.33 C2.39 0.38, 2.45 0.44, 2.5 0.51 C2.55 0.57, 2.6 0.64, 2.64 0.71 C2.68 0.78, 2.72 0.85, 2.75 0.93 C2.78 1.01, 2.8 1.09, 2.81 1.17 C2.83 1.25, 2.83 1.38, 2.83 1.42 C2.84 1.46, 2.84 1.38, 2.83 1.42" stroke="none" stroke-width="0" fill="#aecbfa"></path><path d="M2.83 1.42 C2.83 1.5, 2.83 1.58, 2.81 1.66 C2.8 1.74, 2.78 1.82, 2.75 1.9 C2.72 1.98, 2.68 2.05, 2.64 2.12 C2.6 2.2, 2.55 2.26, 2.5 2.33 C2.45 2.39, 2.39 2.45, 2.33 2.5 C2.26 2.55, 2.2 2.6, 2.12 2.64 C2.05 2.68, 1.98 2.72, 1.9 2.75 C1.82 2.78, 1.74 2.8, 1.66 2.81 C1.58 2.83, 1.5 2.83, 1.42 2.83 C1.33 2.83, 1.25 2.83, 1.17 2.81 C1.09 2.8, 1.01 2.78, 0.93 2.75 C0.85 2.72, 0.78 2.68, 0.71 2.64 C0.64 2.6, 0.57 2.55, 0.51 2.5 C0.44 2.45, 0.38 2.39, 0.33 2.33 C0.28 2.26, 0.23 2.2, 0.19 2.12 C0.15 2.05, 0.11 1.98, 0.09 1.9 C0.06 1.82, 0.04 1.74, 0.02 1.66 C0.01 1.58, 0 1.5, 0 1.42 C0 1.33, 0.01 1.25, 0.02 1.17 C0.04 1.09, 0.06 1.01, 0.09 0.93 C0.11 0.85, 0.15 0.78, 0.19 0.71 C0.23 0.64, 0.28 0.57, 0.33 0.51 C0.38 0.44, 0.44 0.38, 0.51 0.33 C0.57 0.28, 0.64 0.23, 0.71 0.19 C0.78 0.15, 0.85 0.11, 0.93 0.09 C1.01 0.06, 1.09 0.04, 1.17 0.02 C1.25 0.01, 1.33 0, 1.42 0 C1.5 0, 1.58 0.01, 1.66 0.02 C1.74 0.04, 1.82 0.06, 1.9 0.09 C1.98 0.11, 2.05 0.15, 2.12 0.19 C2.2 0.23, 2.26 0.28, 2.33 0.33 C2.39 0.38, 2.45 0.44, 2.5 0.51 C2.55 0.57, 2.6 0.64, 2.64 0.71 C2.68 0.78, 2.72 0.85, 2.75 0.93 C2.78 1.01, 2.8 1.09, 2.81 1.17 C2.83 1.25, 2.83 1.38, 2.83 1.42 C2.84 1.46, 2.84 1.38, 2.83 1.42" stroke="#364fc7" stroke-width="1" fill="none"></path></g><g stroke-linecap="round" transform="translate(10 90) rotate(0 80 36)"><path d="M18 0 L142 0 L149.88 1.13 L155.5 4.5 L157.47 7.03 L159.72 13.78 L160 54 L158.88 61.88 L157.47 64.97 L152.97 69.47 L149.88 70.88 L142 72 L18 72 L10.13 70.88 L4.5 67.5 L2.53 64.97 L0.28 58.22 L0.28 13.78 L1.13 10.13 L4.5 4.5 L10.13 1.13 L18 0" stroke="none" stroke-width="0" fill="#DEDEDE"></path><path d="M18 0 M18 0 C46.93 0, 75.86 0, 142 0 M18 0 C59.23 0, 100.46 0, 142 0 M142 0 C154 0, 160 6, 160 18 M142 0 C154 0, 160 6, 160 18 M160 18 C160 31.76, 160 45.53, 160 54 M160 18 C160 25.41, 160 32.82, 160 54 M160 54 C160 66, 154 72, 142 72 M160 54 C160 66, 154 72, 142 72 M142 72 C115.21 72, 88.43 72, 18 72 M142 72 C95.28 72, 48.57 72, 18 72 M18 72 C6 72, 0 66, 0 54 M18 72 C6 72, 0 66, 0 54 M0 54 C0 43.14, 0 32.28, 0 18 M0 54 C0 42.11, 0 30.23, 0 18 M0 18 C0 6, 6 0, 18 0 M0 18 C0 6, 6 0, 18 0" stroke="#000" stroke-width="2" fill="none"></path></g><g transform="translate(75 119) rotate(0 27.5 6.5)"><text x="0" y="11" font-family="Helvetica, Segoe UI Emoji" font-size="12px" fill="#000000" text-anchor="start" style="white-space: pre;" direction="ltr">Developer</text></g><g stroke-linecap="round"><g transform="translate(26.5 110) rotate(0 16 16)" fill-rule="evenodd"><path d="M0 0 L32 0 L32 32 L0 32 L0 0" stroke="none" stroke-width="0" fill="#00000000" fill-rule="evenodd"></path><path d="M0 0 C8.36 0, 16.72 0, 32 0 M0 0 C6.96 0, 13.93 0, 32 0 M32 0 C32 8.4, 32 16.79, 32 32 M32 0 C32 9.13, 32 18.26, 32 32 M32 32 C20.33 32, 8.65 32, 0 32 M32 32 C21.82 32, 11.65 32, 0 32 M0 32 C0 23.15, 0 14.29, 0 0 M0 32 C0 25.14, 0 18.28, 0 0 M0 0 C0 0, 0 0, 0 0 M0 0 C0 0, 0 0, 0 0" stroke="#00000000" stroke-width="1" fill="none"></path></g></g><g stroke-linecap="round"><g transform="translate(48.5 126) rotate(0 -0.0066661834716796875 -3.3333330154418945)" fill-rule="evenodd"><path d="M0 0 L0 0 L1.3 -0.26 L2.35 -0.98 L3.06 -2.04 L3.32 -3.33 L3.06 -4.63 L2.35 -5.69 L1.3 -6.4 L0 -6.67 L-1.3 -6.4 L-2.36 -5.69 L-3.07 -4.63 L-3.33 -3.33 L-3.07 -2.04 L-2.36 -0.98 L-1.3 -0.26 L0 0 L0 0" stroke="none" stroke-width="0" fill="#000" fill-rule="evenodd"></path><path d="M0 0 C0 0, 0 0, 0 0 M0 0 C0 0, 0 0, 0 0 M0 0 C0.31 -0.06, 0.62 -0.13, 1.3 -0.26 M0 0 C0.32 -0.06, 0.63 -0.13, 1.3 -0.26 M1.3 -0.26 C1.62 -0.48, 1.94 -0.7, 2.35 -0.98 M1.3 -0.26 C1.55 -0.43, 1.8 -0.6, 2.35 -0.98 M2.35 -0.98 C2.5 -1.21, 2.66 -1.44, 3.06 -2.04 M2.35 -0.98 C2.52 -1.24, 2.7 -1.49, 3.06 -2.04 M3.06 -2.04 C3.14 -2.41, 3.21 -2.79, 3.32 -3.33 M3.06 -2.04 C3.16 -2.54, 3.26 -3.03, 3.32 -3.33 M3.32 -3.33 C3.24 -3.75, 3.15 -4.16, 3.06 -4.63 M3.32 -3.33 C3.22 -3.84, 3.12 -4.35, 3.06 -4.63 M3.06 -4.63 C2.8 -5.02, 2.53 -5.41, 2.35 -5.69 M3.06 -4.63 C2.86 -4.93, 2.66 -5.23, 2.35 -5.69 M2.35 -5.69 C2.07 -5.88, 1.8 -6.07, 1.3 -6.4 M2.35 -5.69 C2.02 -5.92, 1.68 -6.14, 1.3 -6.4 M1.3 -6.4 C0.84 -6.5, 0.39 -6.59, 0 -6.67 M1.3 -6.4 C0.97 -6.47, 0.64 -6.54, 0 -6.67 M0 -6.67 C-0.52 -6.56, -1.03 -6.46, -1.3 -6.4 M0 -6.67 C-0.44 -6.58, -0.87 -6.49, -1.3 -6.4 M-1.3 -6.4 C-1.71 -6.12, -2.13 -5.84, -2.36 -5.69 M-1.3 -6.4 C-1.67 -6.15, -2.04 -5.9, -2.36 -5.69 M-2.36 -5.69 C-2.64 -5.27, -2.92 -4.85, -3.07 -4.63 M-2.36 -5.69 C-2.63 -5.28, -2.91 -4.88, -3.07 -4.63 M-3.07 -4.63 C-3.16 -4.18, -3.25 -3.73, -3.33 -3.33 M-3.07 -4.63 C-3.15 -4.24, -3.23 -3.86, -3.33 -3.33 M-3.33 -3.33 C-3.24 -2.88, -3.15 -2.44, -3.07 -2.04 M-3.33 -3.33 C-3.26 -2.96, -3.18 -2.59, -3.07 -2.04 M-3.07 -2.04 C-2.91 -1.79, -2.74 -1.55, -2.36 -0.98 M-3.07 -2.04 C-2.82 -1.66, -2.56 -1.28, -2.36 -0.98 M-2.36 -0.98 C-2.07 -0.79, -1.79 -0.59, -1.3 -0.26 M-2.36 -0.98 C-2.06 -0.78, -1.77 -0.58, -1.3 -0.26 M-1.3 -0.26 C-0.87 -0.17, -0.43 -0.09, 0 0 M-1.3 -0.26 C-0.97 -0.2, -0.64 -0.13, 0 0 M0 0 C0 0, 0 0, 0 0 M0 0 C0 0, 0 0, 0 0 M0 0 C0 0, 0 0, 0 0 M0 0 C0 0, 0 0, 0 0" stroke="#00000000" stroke-width="1" fill="none"></path></g></g><g stroke-linecap="round"><g transform="translate(38.5 124.6666669845581) rotate(0 -0.006666660308837891 -4)" fill-rule="evenodd"><path d="M0 0 L0 0 L1.56 -0.31 L2.82 -1.17 L3.68 -2.44 L3.99 -4 L3.68 -5.56 L2.82 -6.83 L1.56 -7.69 L0 -8 L-1.56 -7.69 L-2.83 -6.83 L-3.69 -5.56 L-4 -4 L-3.69 -2.44 L-2.83 -1.17 L-1.56 -0.31 L0 0 L0 0" stroke="none" stroke-width="0" fill="#000" fill-rule="evenodd"></path><path d="M0 0 C0 0, 0 0, 0 0 M0 0 C0 0, 0 0, 0 0 M0 0 C0.36 -0.07, 0.72 -0.14, 1.56 -0.31 M0 0 C0.33 -0.07, 0.66 -0.13, 1.56 -0.31 M1.56 -0.31 C1.86 -0.52, 2.16 -0.72, 2.82 -1.17 M1.56 -0.31 C1.94 -0.57, 2.33 -0.83, 2.82 -1.17 M2.82 -1.17 C3.03 -1.49, 3.25 -1.8, 3.68 -2.44 M2.82 -1.17 C3.08 -1.56, 3.34 -1.95, 3.68 -2.44 M3.68 -2.44 C3.79 -3.01, 3.9 -3.58, 3.99 -4 M3.68 -2.44 C3.76 -2.89, 3.85 -3.34, 3.99 -4 M3.99 -4 C3.92 -4.35, 3.85 -4.7, 3.68 -5.56 M3.99 -4 C3.92 -4.35, 3.85 -4.69, 3.68 -5.56 M3.68 -5.56 C3.37 -6.01, 3.07 -6.45, 2.82 -6.83 M3.68 -5.56 C3.36 -6.02, 3.05 -6.49, 2.82 -6.83 M2.82 -6.83 C2.52 -7.03, 2.23 -7.23, 1.56 -7.69 M2.82 -6.83 C2.38 -7.13, 1.94 -7.42, 1.56 -7.69 M1.56 -7.69 C1.11 -7.78, 0.66 -7.87, 0 -8 M1.56 -7.69 C1.02 -7.8, 0.48 -7.9, 0 -8 M0 -8 C-0.48 -7.9, -0.96 -7.81, -1.56 -7.69 M0 -8 C-0.6 -7.88, -1.21 -7.76, -1.56 -7.69 M-1.56 -7.69 C-1.89 -7.46, -2.22 -7.24, -2.83 -6.83 M-1.56 -7.69 C-1.96 -7.42, -2.35 -7.15, -2.83 -6.83 M-2.83 -6.83 C-3.1 -6.42, -3.38 -6.02, -3.69 -5.56 M-2.83 -6.83 C-3.06 -6.48, -3.3 -6.13, -3.69 -5.56 M-3.69 -5.56 C-3.77 -5.15, -3.85 -4.75, -4 -4 M-3.69 -5.56 C-3.79 -5.07, -3.88 -4.57, -4 -4 M-4 -4 C-3.91 -3.53, -3.81 -3.06, -3.69 -2.44 M-4 -4 C-3.92 -3.6, -3.84 -3.19, -3.69 -2.44 M-3.69 -2.44 C-3.44 -2.08, -3.2 -1.72, -2.83 -1.17 M-3.69 -2.44 C-3.44 -2.08, -3.2 -1.71, -2.83 -1.17 M-2.83 -1.17 C-2.4 -0.88, -1.98 -0.6, -1.56 -0.31 M-2.83 -1.17 C-2.55 -0.98, -2.26 -0.79, -1.56 -0.31 M-1.56 -0.31 C-1.2 -0.24, -0.85 -0.17, 0 0 M-1.56 -0.31 C-1.05 -0.21, -0.54 -0.11, 0 0 M0 0 C0 0, 0 0, 0 0 M0 0 C0 0, 0 0, 0 0 M0 0 C0 0, 0 0, 0 0 M0 0 C0 0, 0 0, 0 0" stroke="#00000000" stroke-width="1" fill="none"></path></g></g><g stroke-linecap="round"><g transform="translate(48.5 128.66666793823242) rotate(0 4.76837158203125e-7 3.3333330154418945)" fill-rule="evenodd"><path d="M0 0 L0 0 L-2.18 0.23 L-4.58 0.92 L-6.53 2.06 L-7.12 2.81 L-7.33 3.67 L-7.33 6.67 L7.33 6.67 L7.33 3.67 L7.33 3.67 L7.12 2.81 L6.53 2.06 L4.58 0.92 L2.18 0.23 L0 0 L0 0" stroke="none" stroke-width="0" fill="#000" fill-rule="evenodd"></path><path d="M0 0 C0 0, 0 0, 0 0 M0 0 C0 0, 0 0, 0 0 M0 0 C-0.71 0.08, -1.42 0.15, -2.18 0.23 M0 0 C-0.72 0.08, -1.45 0.15, -2.18 0.23 M-2.18 0.23 C-3.1 0.49, -4.03 0.76, -4.58 0.92 M-2.18 0.23 C-2.87 0.43, -3.56 0.63, -4.58 0.92 M-4.58 0.92 C-5.28 1.33, -5.97 1.73, -6.53 2.06 M-4.58 0.92 C-5.1 1.23, -5.63 1.53, -6.53 2.06 M-6.53 2.06 C-6.75 2.34, -6.96 2.61, -7.12 2.81 M-6.53 2.06 C-6.69 2.27, -6.85 2.47, -7.12 2.81 M-7.12 2.81 C-7.2 3.13, -7.28 3.46, -7.33 3.67 M-7.12 2.81 C-7.18 3.07, -7.25 3.33, -7.33 3.67 M-7.33 3.67 C-7.33 4.48, -7.33 5.3, -7.33 6.67 M-7.33 3.67 C-7.33 4.72, -7.33 5.78, -7.33 6.67 M-7.33 6.67 C-3.85 6.67, -0.36 6.67, 7.33 6.67 M-7.33 6.67 C-3.9 6.67, -0.46 6.67, 7.33 6.67 M7.33 6.67 C7.33 5.92, 7.33 5.17, 7.33 3.67 M7.33 6.67 C7.33 5.52, 7.33 4.38, 7.33 3.67 M7.33 3.67 C7.33 3.67, 7.33 3.67, 7.33 3.67 M7.33 3.67 C7.33 3.67, 7.33 3.67, 7.33 3.67 M7.33 3.67 C7.28 3.44, 7.22 3.22, 7.12 2.81 M7.33 3.67 C7.27 3.4, 7.2 3.13, 7.12 2.81 M7.12 2.81 C6.93 2.57, 6.74 2.33, 6.53 2.06 M7.12 2.81 C6.95 2.6, 6.79 2.39, 6.53 2.06 M6.53 2.06 C6.13 1.83, 5.73 1.59, 4.58 0.92 M6.53 2.06 C5.93 1.71, 5.34 1.36, 4.58 0.92 M4.58 0.92 C4.09 0.78, 3.6 0.64, 2.18 0.23 M4.58 0.92 C4.02 0.76, 3.45 0.6, 2.18 0.23 M2.18 0.23 C1.32 0.14, 0.46 0.05, 0 0 M2.18 0.23 C1.71 0.18, 1.25 0.13, 0 0 M0 0 C0 0, 0 0, 0 0 M0 0 C0 0, 0 0, 0 0 M0 0 C0 0, 0 0, 0 0 M0 0 C0 0, 0 0, 0 0" stroke="#00000000" stroke-width="1" fill="none"></path></g></g><g stroke-linecap="round"><g transform="translate(38.5 127.33333396911621) rotate(0 -3.086666703224182 4)" fill-rule="evenodd"><path d="M0 0 L0 0 L-1.29 0.07 L-2.77 0.29 L-5.83 1.17 L-7.2 1.82 L-8.31 2.63 L-9.06 3.57 L-9.33 4.67 L-9.33 8 L0 8 L0 5 L0 5 L0.11 4.01 L0.56 2.83 L1.52 1.57 L3.16 0.37 L1.48 0.1 L0 0 L0 0" stroke="none" stroke-width="0" fill="#000" fill-rule="evenodd"></path><path d="M0 0 C0 0, 0 0, 0 0 M0 0 C0 0, 0 0, 0 0 M0 0 C-0.48 0.03, -0.96 0.05, -1.29 0.07 M0 0 C-0.47 0.03, -0.94 0.05, -1.29 0.07 M-1.29 0.07 C-1.63 0.12, -1.96 0.17, -2.77 0.29 M-1.29 0.07 C-1.71 0.14, -2.13 0.2, -2.77 0.29 M-2.77 0.29 C-3.64 0.54, -4.52 0.79, -5.83 1.17 M-2.77 0.29 C-3.9 0.62, -5.04 0.94, -5.83 1.17 M-5.83 1.17 C-6.21 1.35, -6.58 1.53, -7.2 1.82 M-5.83 1.17 C-6.33 1.41, -6.82 1.65, -7.2 1.82 M-7.2 1.82 C-7.58 2.1, -7.97 2.38, -8.31 2.63 M-7.2 1.82 C-7.48 2.03, -7.76 2.23, -8.31 2.63 M-8.31 2.63 C-8.57 2.95, -8.82 3.27, -9.06 3.57 M-8.31 2.63 C-8.59 2.97, -8.86 3.32, -9.06 3.57 M-9.06 3.57 C-9.16 3.97, -9.26 4.37, -9.33 4.67 M-9.06 3.57 C-9.16 3.97, -9.26 4.37, -9.33 4.67 M-9.33 4.67 C-9.33 5.45, -9.33 6.23, -9.33 8 M-9.33 4.67 C-9.33 5.67, -9.33 6.67, -9.33 8 M-9.33 8 C-6.9 8, -4.46 8, 0 8 M-9.33 8 C-7.14 8, -4.95 8, 0 8 M0 8 C0 7.08, 0 6.16, 0 5 M0 8 C0 7.12, 0 6.24, 0 5 M0 5 C0 5, 0 5, 0 5 M0 5 C0 5, 0 5, 0 5 M0 5 C0.04 4.64, 0.08 4.28, 0.11 4.01 M0 5 C0.03 4.71, 0.07 4.41, 0.11 4.01 M0.11 4.01 C0.23 3.7, 0.34 3.4, 0.56 2.83 M0.11 4.01 C0.22 3.72, 0.33 3.43, 0.56 2.83 M0.56 2.83 C0.91 2.37, 1.26 1.91, 1.52 1.57 M0.56 2.83 C0.93 2.34, 1.31 1.85, 1.52 1.57 M1.52 1.57 C1.85 1.33, 2.18 1.09, 3.16 0.37 M1.52 1.57 C1.86 1.32, 2.21 1.07, 3.16 0.37 M3.16 0.37 C2.62 0.28, 2.07 0.19, 1.48 0.1 M3.16 0.37 C2.71 0.3, 2.26 0.23, 1.48 0.1 M1.48 0.1 C1.03 0.07, 0.58 0.04, 0 0 M1.48 0.1 C0.9 0.06, 0.33 0.02, 0 0 M0 0 C0 0, 0 0, 0 0 M0 0 C0 0, 0 0, 0 0 M0 0 C0 0, 0 0, 0 0 M0 0 C0 0, 0 0, 0 0" stroke="#00000000" stroke-width="1" fill="none"></path></g></g><g stroke-linecap="round"><g transform="translate(171 130) rotate(0 19 0)"><path d="M0 0 C6.33 0, 31.67 0, 38 0 M0 0 C6.33 0, 31.67 0, 38 0" stroke="#000000" stroke-width="1" fill="none"></path></g><g transform="translate(171 130) rotate(0 19 0)"><path d="M38 0 L24.41 6.34 L24.41 -6.34 L38 0" stroke="none" stroke-width="0" fill="#000000" fill-rule="evenodd"></path><path d="M38 0 C35.03 1.38, 32.07 2.77, 24.41 6.34 M38 0 C34.68 1.55, 31.35 3.1, 24.41 6.34 M24.41 6.34 C24.41 2.68, 24.41 -0.99, 24.41 -6.34 M24.41 6.34 C24.41 1.46, 24.41 -3.41, 24.41 -6.34 M24.41 -6.34 C28.73 -4.32, 33.05 -2.31, 38 0 M24.41 -6.34 C29.76 -3.84, 35.11 -1.35, 38 0 M38 0 C38 0, 38 0, 38 0 M38 0 C38 0, 38 0, 38 0" stroke="#000000" stroke-width="1" fill="none"></path></g></g><g stroke-linecap="round"><g transform="translate(371 129.99999999999955) rotate(0 19 0)"><path d="M0 0 C6.33 0, 31.67 0, 38 0 M0 0 C6.33 0, 31.67 0, 38 0" stroke="#000000" stroke-width="1" fill="none"></path></g><g transform="translate(371 129.99999999999955) rotate(0 19 0)"><path d="M38 0 L24.41 6.34 L24.41 -6.34 L38 0" stroke="none" stroke-width="0" fill="#000000" fill-rule="evenodd"></path><path d="M38 0 C33.85 1.93, 29.71 3.87, 24.41 6.34 M38 0 C33.03 2.32, 28.06 4.64, 24.41 6.34 M24.41 6.34 C24.41 2.7, 24.41 -0.95, 24.41 -6.34 M24.41 6.34 C24.41 3.49, 24.41 0.64, 24.41 -6.34 M24.41 -6.34 C27.42 -4.93, 30.44 -3.53, 38 0 M24.41 -6.34 C29.2 -4.11, 33.99 -1.87, 38 0 M38 0 C38 0, 38 0, 38 0 M38 0 C38 0, 38 0, 38 0" stroke="#000000" stroke-width="1" fill="none"></path></g></g><g stroke-linecap="round"><g transform="translate(571 130) rotate(0 19 0)"><path d="M0 0 C6.33 0, 31.67 0, 38 0 M0 0 C6.33 0, 31.67 0, 38 0" stroke="#000000" stroke-width="1" fill="none"></path></g><g transform="translate(571 130) rotate(0 19 0)"><path d="M38 0 L24.41 6.34 L24.41 -6.34 L38 0" stroke="none" stroke-width="0" fill="#000000" fill-rule="evenodd"></path><path d="M38 0 C32.68 2.48, 27.36 4.96, 24.41 6.34 M38 0 C34.02 1.86, 30.03 3.71, 24.41 6.34 M24.41 6.34 C24.41 3.56, 24.41 0.78, 24.41 -6.34 M24.41 6.34 C24.41 2.48, 24.41 -1.38, 24.41 -6.34 M24.41 -6.34 C27.93 -4.7, 31.45 -3.05, 38 0 M24.41 -6.34 C29.21 -4.1, 34.01 -1.86, 38 0 M38 0 C38 0, 38 0, 38 0 M38 0 C38 0, 38 0, 38 0" stroke="#000000" stroke-width="1" fill="none"></path></g></g><g transform="translate(130 10) rotate(0 58 23.5)"><text x="0" y="18.5" font-family="Helvetica, Segoe UI Emoji" font-size="20px" fill="#000000" text-anchor="start" style="white-space: pre;" direction="ltr">git commit &amp; </text><text x="0" y="42" font-family="Helvetica, Segoe UI Emoji" font-size="20px" fill="#000000" text-anchor="start" style="white-space: pre;" direction="ltr">push to main</text></g><g transform="translate(370 10) rotate(0 27 23.5)"><text x="27" y="18.5" font-family="Helvetica, Segoe UI Emoji" font-size="20px" fill="#000000" text-anchor="middle" style="white-space: pre;" direction="ltr">build </text><text x="27" y="42" font-family="Helvetica, Segoe UI Emoji" font-size="20px" fill="#000000" text-anchor="middle" style="white-space: pre;" direction="ltr">image</text></g><g transform="translate(550 10) rotate(0 41 23.5)"><text x="0" y="18.5" font-family="Helvetica, Segoe UI Emoji" font-size="20px" fill="#000000" text-anchor="start" style="white-space: pre;" direction="ltr">push</text><text x="0" y="42" font-family="Helvetica, Segoe UI Emoji" font-size="20px" fill="#000000" text-anchor="start" style="white-space: pre;" direction="ltr">container</text></g><g transform="translate(750 30) rotate(0 29.5 11.5)"><text x="0" y="18" font-family="Helvetica, Segoe UI Emoji" font-size="20px" fill="#000000" text-anchor="start" style="white-space: pre;" direction="ltr">deploy</text></g><g transform="translate(10 190) rotate(0 176 11.5)"><text x="0" y="18" font-family="Helvetica, Segoe UI Emoji" font-size="20px" fill="#000000" text-anchor="start" style="white-space: pre;" direction="ltr">EYEAM GCP serverless CI/CD Pipeline</text></g><g transform="translate(850 30) rotate(0 72.5 11.5)"><text x="0" y="18" font-family="Helvetica, Segoe UI Emoji" font-size="20px" fill="#000000" text-anchor="start" style="white-space: pre;" direction="ltr">application layer</text></g><g stroke-linecap="round"><g transform="translate(190 130) rotate(0 0 -30)"><path d="M0 0 C0 -22.52, 0 -45.04, 0 -60 M0 0 C0 -20.23, 0 -40.46, 0 -60" stroke="#000000" stroke-width="1" fill="none"></path></g><g transform="translate(190 130) rotate(0 0 -30)"><path d="M8 -60 C8 -59.54, 7.96 -59.07, 7.88 -58.61 C7.8 -58.15, 7.68 -57.7, 7.52 -57.26 C7.36 -56.83, 7.16 -56.4, 6.93 -56 C6.7 -55.6, 6.43 -55.21, 6.13 -54.86 C5.83 -54.5, 5.5 -54.17, 5.14 -53.87 C4.79 -53.57, 4.4 -53.3, 4 -53.07 C3.6 -52.84, 3.17 -52.64, 2.74 -52.48 C2.3 -52.32, 1.85 -52.2, 1.39 -52.12 C0.93 -52.04, 0.46 -52, 0 -52 C-0.46 -52, -0.93 -52.04, -1.39 -52.12 C-1.85 -52.2, -2.3 -52.32, -2.74 -52.48 C-3.17 -52.64, -3.6 -52.84, -4 -53.07 C-4.4 -53.3, -4.79 -53.57, -5.14 -53.87 C-5.5 -54.17, -5.83 -54.5, -6.13 -54.86 C-6.43 -55.21, -6.7 -55.6, -6.93 -56 C-7.16 -56.4, -7.36 -56.83, -7.52 -57.26 C-7.68 -57.7, -7.8 -58.15, -7.88 -58.61 C-7.96 -59.07, -8 -59.54, -8 -60 C-8 -60.46, -7.96 -60.93, -7.88 -61.39 C-7.8 -61.85, -7.68 -62.3, -7.52 -62.74 C-7.36 -63.17, -7.16 -63.6, -6.93 -64 C-6.7 -64.4, -6.43 -64.79, -6.13 -65.14 C-5.83 -65.5, -5.5 -65.83, -5.14 -66.13 C-4.79 -66.43, -4.4 -66.7, -4 -66.93 C-3.6 -67.16, -3.17 -67.36, -2.74 -67.52 C-2.3 -67.68, -1.85 -67.8, -1.39 -67.88 C-0.93 -67.96, -0.46 -68, 0 -68 C0.46 -68, 0.93 -67.96, 1.39 -67.88 C1.85 -67.8, 2.3 -67.68, 2.74 -67.52 C3.17 -67.36, 3.6 -67.16, 4 -66.93 C4.4 -66.7, 4.79 -66.43, 5.14 -66.13 C5.5 -65.83, 5.83 -65.5, 6.13 -65.14 C6.43 -64.79, 6.7 -64.4, 6.93 -64 C7.16 -63.6, 7.36 -63.17, 7.52 -62.74 C7.68 -62.3, 7.8 -61.85, 7.88 -61.39 C7.96 -60.93, 7.98 -60.23, 8 -60 C8.02 -59.77, 8.02 -60.23, 8 -60" stroke="none" stroke-width="0" fill="#000000"></path></g></g><g stroke-linecap="round"><g transform="translate(390 130) rotate(0 0 -30)"><path d="M0 0 C0 -12.51, 0 -25.03, 0 -60 M0 0 C0 -12.87, 0 -25.73, 0 -60" stroke="#000000" stroke-width="1" fill="none"></path></g><g transform="translate(390 130) rotate(0 0 -30)"><path d="M8 -60 C8 -59.54, 7.96 -59.07, 7.88 -58.61 C7.8 -58.15, 7.68 -57.7, 7.52 -57.26 C7.36 -56.83, 7.16 -56.4, 6.93 -56 C6.7 -55.6, 6.43 -55.21, 6.13 -54.86 C5.83 -54.5, 5.5 -54.17, 5.14 -53.87 C4.79 -53.57, 4.4 -53.3, 4 -53.07 C3.6 -52.84, 3.17 -52.64, 2.74 -52.48 C2.3 -52.32, 1.85 -52.2, 1.39 -52.12 C0.93 -52.04, 0.46 -52, 0 -52 C-0.46 -52, -0.93 -52.04, -1.39 -52.12 C-1.85 -52.2, -2.3 -52.32, -2.74 -52.48 C-3.17 -52.64, -3.6 -52.84, -4 -53.07 C-4.4 -53.3, -4.79 -53.57, -5.14 -53.87 C-5.5 -54.17, -5.83 -54.5, -6.13 -54.86 C-6.43 -55.21, -6.7 -55.6, -6.93 -56 C-7.16 -56.4, -7.36 -56.83, -7.52 -57.26 C-7.68 -57.7, -7.8 -58.15, -7.88 -58.61 C-7.96 -59.07, -8 -59.54, -8 -60 C-8 -60.46, -7.96 -60.93, -7.88 -61.39 C-7.8 -61.85, -7.68 -62.3, -7.52 -62.74 C-7.36 -63.17, -7.16 -63.6, -6.93 -64 C-6.7 -64.4, -6.43 -64.79, -6.13 -65.14 C-5.83 -65.5, -5.5 -65.83, -5.14 -66.13 C-4.79 -66.43, -4.4 -66.7, -4 -66.93 C-3.6 -67.16, -3.17 -67.36, -2.74 -67.52 C-2.3 -67.68, -1.85 -67.8, -1.39 -67.88 C-0.93 -67.96, -0.46 -68, 0 -68 C0.46 -68, 0.93 -67.96, 1.39 -67.88 C1.85 -67.8, 2.3 -67.68, 2.74 -67.52 C3.17 -67.36, 3.6 -67.16, 4 -66.93 C4.4 -66.7, 4.79 -66.43, 5.14 -66.13 C5.5 -65.83, 5.83 -65.5, 6.13 -65.14 C6.43 -64.79, 6.7 -64.4, 6.93 -64 C7.16 -63.6, 7.36 -63.17, 7.52 -62.74 C7.68 -62.3, 7.8 -61.85, 7.88 -61.39 C7.96 -60.93, 7.98 -60.23, 8 -60 C8.02 -59.77, 8.02 -60.23, 8 -60" stroke="none" stroke-width="0" fill="#000000"></path></g></g><g stroke-linecap="round"><g transform="translate(590 130) rotate(0 0 -30)"><path d="M0 0 C0 -12.87, 0 -25.73, 0 -60 M0 0 C0 -15.31, 0 -30.63, 0 -60" stroke="#000000" stroke-width="1" fill="none"></path></g><g transform="translate(590 130) rotate(0 0 -30)"><path d="M8 -60 C8 -59.54, 7.96 -59.07, 7.88 -58.61 C7.8 -58.15, 7.68 -57.7, 7.52 -57.26 C7.36 -56.83, 7.16 -56.4, 6.93 -56 C6.7 -55.6, 6.43 -55.21, 6.13 -54.86 C5.83 -54.5, 5.5 -54.17, 5.14 -53.87 C4.79 -53.57, 4.4 -53.3, 4 -53.07 C3.6 -52.84, 3.17 -52.64, 2.74 -52.48 C2.3 -52.32, 1.85 -52.2, 1.39 -52.12 C0.93 -52.04, 0.46 -52, 0 -52 C-0.46 -52, -0.93 -52.04, -1.39 -52.12 C-1.85 -52.2, -2.3 -52.32, -2.74 -52.48 C-3.17 -52.64, -3.6 -52.84, -4 -53.07 C-4.4 -53.3, -4.79 -53.57, -5.14 -53.87 C-5.5 -54.17, -5.83 -54.5, -6.13 -54.86 C-6.43 -55.21, -6.7 -55.6, -6.93 -56 C-7.16 -56.4, -7.36 -56.83, -7.52 -57.26 C-7.68 -57.7, -7.8 -58.15, -7.88 -58.61 C-7.96 -59.07, -8 -59.54, -8 -60 C-8 -60.46, -7.96 -60.93, -7.88 -61.39 C-7.8 -61.85, -7.68 -62.3, -7.52 -62.74 C-7.36 -63.17, -7.16 -63.6, -6.93 -64 C-6.7 -64.4, -6.43 -64.79, -6.13 -65.14 C-5.83 -65.5, -5.5 -65.83, -5.14 -66.13 C-4.79 -66.43, -4.4 -66.7, -4 -66.93 C-3.6 -67.16, -3.17 -67.36, -2.74 -67.52 C-2.3 -67.68, -1.85 -67.8, -1.39 -67.88 C-0.93 -67.96, -0.46 -68, 0 -68 C0.46 -68, 0.93 -67.96, 1.39 -67.88 C1.85 -67.8, 2.3 -67.68, 2.74 -67.52 C3.17 -67.36, 3.6 -67.16, 4 -66.93 C4.4 -66.7, 4.79 -66.43, 5.14 -66.13 C5.5 -65.83, 5.83 -65.5, 6.13 -65.14 C6.43 -64.79, 6.7 -64.4, 6.93 -64 C7.16 -63.6, 7.36 -63.17, 7.52 -62.74 C7.68 -62.3, 7.8 -61.85, 7.88 -61.39 C7.96 -60.93, 7.98 -60.23, 8 -60 C8.02 -59.77, 8.02 -60.23, 8 -60" stroke="none" stroke-width="0" fill="#000000"></path></g></g><g stroke-linecap="round"><g transform="translate(790 130) rotate(0 0 -30)"><path d="M0 0 C0 -21.04, 0 -42.09, 0 -60 M0 0 C0 -19.1, 0 -38.21, 0 -60" stroke="#000000" stroke-width="1" fill="none"></path></g><g transform="translate(790 130) rotate(0 0 -30)"><path d="M8 -60 C8 -59.54, 7.96 -59.07, 7.88 -58.61 C7.8 -58.15, 7.68 -57.7, 7.52 -57.26 C7.36 -56.83, 7.16 -56.4, 6.93 -56 C6.7 -55.6, 6.43 -55.21, 6.13 -54.86 C5.83 -54.5, 5.5 -54.17, 5.14 -53.87 C4.79 -53.57, 4.4 -53.3, 4 -53.07 C3.6 -52.84, 3.17 -52.64, 2.74 -52.48 C2.3 -52.32, 1.85 -52.2, 1.39 -52.12 C0.93 -52.04, 0.46 -52, 0 -52 C-0.46 -52, -0.93 -52.04, -1.39 -52.12 C-1.85 -52.2, -2.3 -52.32, -2.74 -52.48 C-3.17 -52.64, -3.6 -52.84, -4 -53.07 C-4.4 -53.3, -4.79 -53.57, -5.14 -53.87 C-5.5 -54.17, -5.83 -54.5, -6.13 -54.86 C-6.43 -55.21, -6.7 -55.6, -6.93 -56 C-7.16 -56.4, -7.36 -56.83, -7.52 -57.26 C-7.68 -57.7, -7.8 -58.15, -7.88 -58.61 C-7.96 -59.07, -8 -59.54, -8 -60 C-8 -60.46, -7.96 -60.93, -7.88 -61.39 C-7.8 -61.85, -7.68 -62.3, -7.52 -62.74 C-7.36 -63.17, -7.16 -63.6, -6.93 -64 C-6.7 -64.4, -6.43 -64.79, -6.13 -65.14 C-5.83 -65.5, -5.5 -65.83, -5.14 -66.13 C-4.79 -66.43, -4.4 -66.7, -4 -66.93 C-3.6 -67.16, -3.17 -67.36, -2.74 -67.52 C-2.3 -67.68, -1.85 -67.8, -1.39 -67.88 C-0.93 -67.96, -0.46 -68, 0 -68 C0.46 -68, 0.93 -67.96, 1.39 -67.88 C1.85 -67.8, 2.3 -67.68, 2.74 -67.52 C3.17 -67.36, 3.6 -67.16, 4 -66.93 C4.4 -66.7, 4.79 -66.43, 5.14 -66.13 C5.5 -65.83, 5.83 -65.5, 6.13 -65.14 C6.43 -64.79, 6.7 -64.4, 6.93 -64 C7.16 -63.6, 7.36 -63.17, 7.52 -62.74 C7.68 -62.3, 7.8 -61.85, 7.88 -61.39 C7.96 -60.93, 7.98 -60.23, 8 -60 C8.02 -59.77, 8.02 -60.23, 8 -60" stroke="none" stroke-width="0" fill="#000000"></path></g></g><g stroke-linecap="round" transform="translate(830 130) rotate(0 80 36)"><path d="M18 0 L142 0 L149.88 1.13 L155.5 4.5 L157.47 7.03 L159.72 13.78 L160 54 L158.88 61.88 L157.47 64.97 L152.97 69.47 L149.88 70.88 L142 72 L18 72 L10.13 70.88 L4.5 67.5 L2.53 64.97 L0.28 58.22 L0.28 13.78 L1.13 10.13 L4.5 4.5 L10.13 1.13 L18 0" stroke="none" stroke-width="0" fill="#FFF"></path><path d="M18 0 M18 0 C47.95 0, 77.91 0, 142 0 M18 0 C54.18 0, 90.37 0, 142 0 M142 0 C154 0, 160 6, 160 18 M142 0 C154 0, 160 6, 160 18 M160 18 C160 27.07, 160 36.13, 160 54 M160 18 C160 25.54, 160 33.08, 160 54 M160 54 C160 66, 154 72, 142 72 M160 54 C160 66, 154 72, 142 72 M142 72 C109.05 72, 76.1 72, 18 72 M142 72 C93.5 72, 45 72, 18 72 M18 72 C6 72, 0 66, 0 54 M18 72 C6 72, 0 66, 0 54 M0 54 C0 41.61, 0 29.22, 0 18 M0 54 C0 40.26, 0 26.52, 0 18 M0 18 C0 6, 6 0, 18 0 M0 18 C0 6, 6 0, 18 0" stroke="#364fc7" stroke-width="2" fill="none"></path></g><g transform="translate(895 159) rotate(0 31.5 13.5)"><text x="0" y="10.5" font-family="Helvetica, Segoe UI Emoji" font-size="12px" fill="#364fc7" text-anchor="start" style="white-space: pre;" direction="ltr">Cloud Run</text><text x="0" y="24" font-family="Helvetica, Segoe UI Emoji" font-size="12px" fill="#364fc7" text-anchor="start" style="white-space: pre;" direction="ltr">cloudsql api</text></g><g stroke-linecap="round"><g transform="translate(858.3755550384521 153.5022222995758) rotate(0 8.311112403869629 6.248888850212097)" fill-rule="evenodd"><path d="M0 0 L4.15 12.5 L16.62 12.5 L0 0 L0 0" stroke="none" stroke-width="0" fill="#aecbfa" fill-rule="evenodd"></path><path d="M0 0 C1.33 4, 2.66 8, 4.15 12.5 M0 0 C1.63 4.92, 3.27 9.84, 4.15 12.5 M4.15 12.5 C8.47 12.5, 12.79 12.5, 16.62 12.5 M4.15 12.5 C8.25 12.5, 12.34 12.5, 16.62 12.5 M16.62 12.5 C13.21 9.93, 9.8 7.36, 0 0 M16.62 12.5 C13.1 9.85, 9.57 7.2, 0 0 M0 0 C0 0, 0 0, 0 0 M0 0 C0 0, 0 0, 0 0 M0 0 C0 0, 0 0, 0 0 M0 0 C0 0, 0 0, 0 0" stroke="#364fc7" stroke-width="1" fill="none"></path></g></g><g stroke-linecap="round"><g transform="translate(874.9977798461914 166) rotate(0 -8.311112403869629 6.248889923095703)" fill-rule="evenodd"><path d="M0 0 L-12.47 0 L-16.62 12.5 L0 0 L0 0" stroke="none" stroke-width="0" fill="#4285f4" fill-rule="evenodd"></path><path d="M0 0 C-4.05 0, -8.1 0, -12.47 0 M0 0 C-4.53 0, -9.06 0, -12.47 0 M-12.47 0 C-13.57 3.32, -14.68 6.64, -16.62 12.5 M-12.47 0 C-13.46 2.98, -14.45 5.95, -16.62 12.5 M-16.62 12.5 C-10.2 7.67, -3.78 2.84, 0 0 M-16.62 12.5 C-11.08 8.33, -5.54 4.17, 0 0 M0 0 C0 0, 0 0, 0 0 M0 0 C0 0, 0 0, 0 0 M0 0 C0 0, 0 0, 0 0 M0 0 C0 0, 0 0, 0 0" stroke="#364fc7" stroke-width="1" fill="none"></path></g></g><g stroke-linecap="round"><g transform="translate(851.0866665840149 178.4977798461914) rotate(0 3.644444227218628 -6.248889923095703)" fill-rule="evenodd"><path d="M0 0 L4.17 -2.08 L7.29 -12.5 L3.12 -12.5 L0 0 L0 0" stroke="none" stroke-width="0" fill="#4285f4" fill-rule="evenodd"></path><path d="M0 0 C1.35 -0.67, 2.69 -1.34, 4.17 -2.08 M0 0 C1.31 -0.65, 2.62 -1.31, 4.17 -2.08 M4.17 -2.08 C5.25 -5.69, 6.33 -9.31, 7.29 -12.5 M4.17 -2.08 C5.25 -5.68, 6.33 -9.28, 7.29 -12.5 M7.29 -12.5 C6.15 -12.5, 5.01 -12.5, 3.12 -12.5 M7.29 -12.5 C5.92 -12.5, 4.55 -12.5, 3.12 -12.5 M3.12 -12.5 C2.14 -8.56, 1.16 -4.63, 0 0 M3.12 -12.5 C2.22 -8.9, 1.32 -5.29, 0 0 M0 0 C0 0, 0 0, 0 0 M0 0 C0 0, 0 0, 0 0 M0 0 C0 0, 0 0, 0 0 M0 0 C0 0, 0 0, 0 0" stroke="#364fc7" stroke-width="1" fill="none"></path></g></g><g stroke-linecap="round"><g transform="translate(851.0866665840149 153.5022222995758) rotate(0 3.644444227218628 6.248888850212097)" fill-rule="evenodd"><path d="M0 0 L3.12 12.5 L7.29 12.5 L4.17 2.08 L0 0 L0 0" stroke="none" stroke-width="0" fill="#aecbfa" fill-rule="evenodd"></path><path d="M0 0 C0.66 2.63, 1.32 5.27, 3.12 12.5 M0 0 C0.88 3.54, 1.77 7.07, 3.12 12.5 M3.12 12.5 C4.14 12.5, 5.16 12.5, 7.29 12.5 M3.12 12.5 C4.55 12.5, 5.97 12.5, 7.29 12.5 M7.29 12.5 C6.43 9.64, 5.58 6.78, 4.17 2.08 M7.29 12.5 C6.1 8.52, 4.91 4.55, 4.17 2.08 M4.17 2.08 C3.02 1.51, 1.86 0.93, 0 0 M4.17 2.08 C3.08 1.54, 2 1, 0 0 M0 0 C0 0, 0 0, 0 0 M0 0 C0 0, 0 0, 0 0 M0 0 C0 0, 0 0, 0 0 M0 0 C0 0, 0 0, 0 0" stroke="#364fc7" stroke-width="1" fill="none"></path></g></g><g stroke-linecap="round"><g stroke-opacity="0.9" fill-opacity="0.9" transform="translate(770 130) rotate(0 29.5 0)"><path d="M0 0 C12.28 0, 24.56 0, 59 0 M0 0 C15.88 0, 31.77 0, 59 0" stroke="#000000" stroke-width="1" fill="none"></path></g><g stroke-opacity="0.9" fill-opacity="0.9" transform="translate(770 130) rotate(0 29.5 0)"><path d="M59 0 L45.41 6.34 L45.41 -6.34 L59 0" stroke="none" stroke-width="0" fill="#000000" fill-rule="evenodd"></path><path d="M59 0 C56.17 1.32, 53.34 2.64, 45.41 6.34 M59 0 C55.34 1.71, 51.68 3.41, 45.41 6.34 M45.41 6.34 C45.41 1.94, 45.41 -2.45, 45.41 -6.34 M45.41 6.34 C45.41 2.19, 45.41 -1.96, 45.41 -6.34 M45.41 -6.34 C48.79 -4.76, 52.18 -3.18, 59 0 M45.41 -6.34 C49.1 -4.62, 52.8 -2.89, 59 0 M59 0 C59 0, 59 0, 59 0 M59 0 C59 0, 59 0, 59 0" stroke="#000000" stroke-width="1" fill="none"></path></g></g></svg>