<svg version="1.1" xmlns="http://www.w3.org/2000/svg" viewBox="0 0 1340 221" width="1340" height="221">
  <!-- svg-source:excalidraw -->
  
  <defs>
    <style>
      @font-face {
        font-family: "Virgil";
        src: url("https://excalidraw.com/Virgil.woff2");
      }
      @font-face {
        font-family: "Cascadia";
        src: url("https://excalidraw.com/Cascadia.woff2");
      }
    </style>
  </defs>
  <rect x="0" y="0" width="1340" height="221" fill="transparent"></rect><g stroke-linecap="round" transform="translate(870 70) rotate(0 80 36)"><path d="M18 0 L142 0 L149.88 1.13 L155.5 4.5 L157.47 7.03 L159.72 13.78 L160 54 L158.88 61.88 L157.47 64.97 L152.97 69.47 L149.88 70.88 L142 72 L18 72 L10.13 70.88 L4.5 67.5 L2.53 64.97 L0.28 58.22 L0.28 13.78 L1.13 10.13 L4.5 4.5 L10.13 1.13 L18 0" stroke="none" stroke-width="0" fill="#FFF"></path><path d="M18 0 M18 0 C50.46 0, 82.92 0, 142 0 M18 0 C44.03 0, 70.05 0, 142 0 M142 0 C154 0, 160 6, 160 18 M142 0 C154 0, 160 6, 160 18 M160 18 C160 30.09, 160 42.17, 160 54 M160 18 C160 29.79, 160 41.58, 160 54 M160 54 C160 66, 154 72, 142 72 M160 54 C160 66, 154 72, 142 72 M142 72 C111.43 72, 80.85 72, 18 72 M142 72 C97.23 72, 52.46 72, 18 72 M18 72 C6 72, 0 66, 0 54 M18 72 C6 72, 0 66, 0 54 M0 54 C0 44.83, 0 35.67, 0 18 M0 54 C0 46.25, 0 38.51, 0 18 M0 18 C0 6, 6 0, 18 0 M0 18 C0 6, 6 0, 18 0" stroke="#364fc7" stroke-width="2" fill="none"></path></g><g transform="translate(935 92) rotate(0 42.5 14)"><text x="0" y="12" font-family="Helvetica, Segoe UI Emoji" font-size="12px" fill="#364fc7" text-anchor="start" style="white-space: pre;" direction="ltr">Container</text><text x="0" y="26" font-family="Helvetica, Segoe UI Emoji" font-size="12px" fill="#364fc7" text-anchor="start" style="white-space: pre;" direction="ltr">Registry</text></g><g stroke-linecap="round"><g transform="translate(895.3933334350586 94) rotate(0 -3.1133333444595337 12)" fill-rule="evenodd"><path d="M0 0 L-6.23 3.68 L-6.23 20.32 L0 24 L0 20.8 L-3.56 18.69 L-3.56 5.31 L0 3.2 L0 0 L0 0" stroke="none" stroke-width="0" fill="#aecbfa" fill-rule="evenodd"></path><path d="M0 0 C-2.1 1.24, -4.19 2.48, -6.23 3.68 M0 0 C-1.49 0.88, -2.98 1.76, -6.23 3.68 M-6.23 3.68 C-6.23 9.74, -6.23 15.8, -6.23 20.32 M-6.23 3.68 C-6.23 8.77, -6.23 13.86, -6.23 20.32 M-6.23 20.32 C-4.9 21.1, -3.57 21.89, 0 24 M-6.23 20.32 C-4.41 21.4, -2.59 22.47, 0 24 M0 24 C0 22.85, 0 21.7, 0 20.8 M0 24 C0 22.74, 0 21.49, 0 20.8 M0 20.8 C-1.14 20.12, -2.28 19.45, -3.56 18.69 M0 20.8 C-1.38 19.98, -2.76 19.17, -3.56 18.69 M-3.56 18.69 C-3.56 15.76, -3.56 12.83, -3.56 5.31 M-3.56 18.69 C-3.56 15.57, -3.56 12.44, -3.56 5.31 M-3.56 5.31 C-2.67 4.78, -1.78 4.25, 0 3.2 M-3.56 5.31 C-2.34 4.58, -1.12 3.86, 0 3.2 M0 3.2 C0 2.41, 0 1.62, 0 0 M0 3.2 C0 2.01, 0 0.82, 0 0 M0 0 C0 0, 0 0, 0 0 M0 0 C0 0, 0 0, 0 0 M0 0 C0 0, 0 0, 0 0 M0 0 C0 0, 0 0, 0 0" stroke="#364fc7" stroke-width="1" fill="none"></path></g></g><g stroke-linecap="round"><g transform="translate(898.9400005340576 102.18666744232178) rotate(0 3.560000419616699 -2.1066670417785645)" fill-rule="evenodd"><path d="M0 0 L3.56 2.09 L7.12 0 L7.12 -4.21 L3.56 -6.31 L0 -4.21 L0 0 L0 0" stroke="none" stroke-width="0" fill="#aecbfa" fill-rule="evenodd"></path><path d="M0 0 C1.05 0.62, 2.1 1.23, 3.56 2.09 M0 0 C1.28 0.75, 2.56 1.5, 3.56 2.09 M3.56 2.09 C4.83 1.35, 6.1 0.6, 7.12 0 M3.56 2.09 C4.64 1.46, 5.71 0.83, 7.12 0 M7.12 0 C7.12 -1.09, 7.12 -2.18, 7.12 -4.21 M7.12 0 C7.12 -1.05, 7.12 -2.11, 7.12 -4.21 M7.12 -4.21 C5.92 -4.92, 4.73 -5.62, 3.56 -6.31 M7.12 -4.21 C5.71 -5.04, 4.3 -5.87, 3.56 -6.31 M3.56 -6.31 C2.67 -5.78, 1.78 -5.26, 0 -4.21 M3.56 -6.31 C2.65 -5.77, 1.75 -5.24, 0 -4.21 M0 -4.21 C0 -3.08, 0 -1.95, 0 0 M0 -4.21 C0 -3.24, 0 -2.27, 0 0 M0 0 C0 0, 0 0, 0 0 M0 0 C0 0, 0 0, 0 0 M0 0 C0 0, 0 0, 0 0 M0 0 C0 0, 0 0, 0 0" stroke="#364fc7" stroke-width="1" fill="none"></path></g></g><g stroke-linecap="round"><g transform="translate(898.9400005340576 97.97333335876465) rotate(0 3.560000419616699 3.1533336639404297)" fill-rule="evenodd"><path d="M0 0 L0 4.21 L3.56 6.31 L7.12 4.21 L7.12 0 L3.56 2.11 L0 0 L0 0" stroke="none" stroke-width="0" fill="#669df6" fill-rule="evenodd"></path><path d="M0 0 C0 1.41, 0 2.82, 0 4.21 M0 0 C0 1.2, 0 2.41, 0 4.21 M0 4.21 C1.15 4.89, 2.3 5.57, 3.56 6.31 M0 4.21 C1.35 5.01, 2.7 5.8, 3.56 6.31 M3.56 6.31 C4.97 5.48, 6.37 4.65, 7.12 4.21 M3.56 6.31 C4.52 5.74, 5.48 5.18, 7.12 4.21 M7.12 4.21 C7.12 2.59, 7.12 0.96, 7.12 0 M7.12 4.21 C7.12 3.03, 7.12 1.86, 7.12 0 M7.12 0 C6.16 0.57, 5.2 1.14, 3.56 2.11 M7.12 0 C6.15 0.58, 5.18 1.15, 3.56 2.11 M3.56 2.11 C2.77 1.64, 1.97 1.17, 0 0 M3.56 2.11 C2.35 1.39, 1.13 0.67, 0 0 M0 0 C0 0, 0 0, 0 0 M0 0 C0 0, 0 0, 0 0 M0 0 C0 0, 0 0, 0 0 M0 0 C0 0, 0 0, 0 0" stroke="#364fc7" stroke-width="1" fill="none"></path></g></g><g stroke-linecap="round"><g transform="translate(902.5 104.28000068664551) rotate(0 1.7800006866455078 -3.1533336639404297)" fill-rule="evenodd"><path d="M0 0 L3.56 -2.09 L3.56 -6.31 L0 -4.2 L0 0 L0 0" stroke="none" stroke-width="0" fill="#4285f4" fill-rule="evenodd"></path><path d="M0 0 C1.08 -0.64, 2.17 -1.27, 3.56 -2.09 M0 0 C0.82 -0.48, 1.64 -0.96, 3.56 -2.09 M3.56 -2.09 C3.56 -3.27, 3.56 -4.46, 3.56 -6.31 M3.56 -2.09 C3.56 -3.18, 3.56 -4.26, 3.56 -6.31 M3.56 -6.31 C2.26 -5.54, 0.96 -4.77, 0 -4.2 M3.56 -6.31 C2.21 -5.51, 0.87 -4.71, 0 -4.2 M0 -4.2 C0 -3.24, 0 -2.28, 0 0 M0 -4.2 C0 -2.56, 0 -0.92, 0 0 M0 0 C0 0, 0 0, 0 0 M0 0 C0 0, 0 0, 0 0 M0 0 C0 0, 0 0, 0 0 M0 0 C0 0, 0 0, 0 0" stroke="#364fc7" stroke-width="1" fill="none"></path></g></g><g stroke-linecap="round"><g transform="translate(903.3933334350586 110.84000015258789) rotate(0 3.553333282470703 -2.113332748413086)" fill-rule="evenodd"><path d="M0 0 L3.55 2.09 L7.11 0 L7.11 -4.21 L3.55 -6.32 L0 -4.21 L0 0 L0 0" stroke="none" stroke-width="0" fill="#aecbfa" fill-rule="evenodd"></path><path d="M0 0 C0.99 0.59, 1.99 1.17, 3.55 2.09 M0 0 C1.11 0.65, 2.22 1.31, 3.55 2.09 M3.55 2.09 C4.85 1.32, 6.16 0.56, 7.11 0 M3.55 2.09 C4.63 1.45, 5.72 0.82, 7.11 0 M7.11 0 C7.11 -1.65, 7.11 -3.3, 7.11 -4.21 M7.11 0 C7.11 -1.04, 7.11 -2.08, 7.11 -4.21 M7.11 -4.21 C6.25 -4.72, 5.4 -5.22, 3.55 -6.32 M7.11 -4.21 C6.23 -4.73, 5.34 -5.26, 3.55 -6.32 M3.55 -6.32 C2.37 -5.62, 1.2 -4.92, 0 -4.21 M3.55 -6.32 C2.78 -5.87, 2.02 -5.41, 0 -4.21 M0 -4.21 C0 -2.58, 0 -0.95, 0 0 M0 -4.21 C0 -3.22, 0 -2.24, 0 0 M0 0 C0 0, 0 0, 0 0 M0 0 C0 0, 0 0, 0 0 M0 0 C0 0, 0 0, 0 0 M0 0 C0 0, 0 0, 0 0" stroke="#364fc7" stroke-width="1" fill="none"></path></g></g><g stroke-linecap="round"><g transform="translate(903.3933334350586 106.62666702270508) rotate(0 3.553333282470703 3.1533336639404297)" fill-rule="evenodd"><path d="M0 0 L0 4.21 L3.55 6.31 L7.11 4.21 L7.11 0 L3.55 2.11 L0 0 L0 0" stroke="none" stroke-width="0" fill="#669df6" fill-rule="evenodd"></path><path d="M0 0 C0 1.22, 0 2.44, 0 4.21 M0 0 C0 1.01, 0 2.03, 0 4.21 M0 4.21 C1.13 4.88, 2.25 5.54, 3.55 6.31 M0 4.21 C1.41 5.04, 2.81 5.87, 3.55 6.31 M3.55 6.31 C4.29 5.87, 5.04 5.43, 7.11 4.21 M3.55 6.31 C4.47 5.76, 5.39 5.22, 7.11 4.21 M7.11 4.21 C7.11 2.83, 7.11 1.45, 7.11 0 M7.11 4.21 C7.11 2.87, 7.11 1.53, 7.11 0 M7.11 0 C5.82 0.76, 4.54 1.52, 3.55 2.11 M7.11 0 C6.11 0.59, 5.1 1.18, 3.55 2.11 M3.55 2.11 C2.78 1.65, 2.02 1.2, 0 0 M3.55 2.11 C2.71 1.61, 1.88 1.11, 0 0 M0 0 C0 0, 0 0, 0 0 M0 0 C0 0, 0 0, 0 0 M0 0 C0 0, 0 0, 0 0 M0 0 C0 0, 0 0, 0 0" stroke="#364fc7" stroke-width="1" fill="none"></path></g></g><g stroke-linecap="round"><g transform="translate(906.9400005340576 112.93333435058594) rotate(0 1.7799997329711914 -3.1533336639404297)" fill-rule="evenodd"><path d="M0 0 L3.56 -2.09 L3.56 -6.31 L0 -4.2 L0 0 L0 0" stroke="none" stroke-width="0" fill="#4285f4" fill-rule="evenodd"></path><path d="M0 0 C1.4 -0.82, 2.8 -1.64, 3.56 -2.09 M0 0 C1.1 -0.65, 2.2 -1.3, 3.56 -2.09 M3.56 -2.09 C3.56 -3.06, 3.56 -4.03, 3.56 -6.31 M3.56 -2.09 C3.56 -3.61, 3.56 -5.14, 3.56 -6.31 M3.56 -6.31 C2.42 -5.63, 1.28 -4.96, 0 -4.2 M3.56 -6.31 C2.25 -5.53, 0.95 -4.76, 0 -4.2 M0 -4.2 C0 -2.55, 0 -0.9, 0 0 M0 -4.2 C0 -2.58, 0 -0.95, 0 0 M0 0 C0 0, 0 0, 0 0 M0 0 C0 0, 0 0, 0 0 M0 0 C0 0, 0 0, 0 0 M0 0 C0 0, 0 0, 0 0" stroke="#364fc7" stroke-width="1" fill="none"></path></g></g><g stroke-linecap="round"><g transform="translate(894.5 110.84000015258789) rotate(0 3.553333282470703 -2.113332748413086)" fill-rule="evenodd"><path d="M0 0 L3.56 2.09 L7.11 0 L7.11 -4.21 L3.56 -6.32 L0 -4.21 L0 0 L0 0" stroke="none" stroke-width="0" fill="#aecbfa" fill-rule="evenodd"></path><path d="M0 0 C1.08 0.63, 2.16 1.27, 3.56 2.09 M0 0 C0.74 0.43, 1.47 0.87, 3.56 2.09 M3.56 2.09 C4.41 1.59, 5.26 1.09, 7.11 0 M3.56 2.09 C4.42 1.59, 5.28 1.08, 7.11 0 M7.11 0 C7.11 -1.51, 7.11 -3.03, 7.11 -4.21 M7.11 0 C7.11 -1.65, 7.11 -3.3, 7.11 -4.21 M7.11 -4.21 C5.78 -5, 4.46 -5.79, 3.56 -6.32 M7.11 -4.21 C6.3 -4.7, 5.48 -5.18, 3.56 -6.32 M3.56 -6.32 C2.22 -5.53, 0.88 -4.73, 0 -4.21 M3.56 -6.32 C2.7 -5.81, 1.83 -5.3, 0 -4.21 M0 -4.21 C0 -3.24, 0 -2.26, 0 0 M0 -4.21 C0 -2.95, 0 -1.69, 0 0 M0 0 C0 0, 0 0, 0 0 M0 0 C0 0, 0 0, 0 0 M0 0 C0 0, 0 0, 0 0 M0 0 C0 0, 0 0, 0 0" stroke="#364fc7" stroke-width="1" fill="none"></path></g></g><g stroke-linecap="round"><g transform="translate(894.5 106.62666702270508) rotate(0 3.553333282470703 3.1533336639404297)" fill-rule="evenodd"><path d="M0 0 L0 4.21 L3.56 6.31 L7.11 4.21 L7.11 0 L3.56 2.11 L0 0 L0 0" stroke="none" stroke-width="0" fill="#669df6" fill-rule="evenodd"></path><path d="M0 0 C0 1.02, 0 2.05, 0 4.21 M0 0 C0 1.35, 0 2.7, 0 4.21 M0 4.21 C0.74 4.65, 1.48 5.08, 3.56 6.31 M0 4.21 C0.76 4.66, 1.53 5.11, 3.56 6.31 M3.56 6.31 C4.9 5.51, 6.24 4.72, 7.11 4.21 M3.56 6.31 C4.27 5.88, 4.99 5.46, 7.11 4.21 M7.11 4.21 C7.11 3.31, 7.11 2.4, 7.11 0 M7.11 4.21 C7.11 2.75, 7.11 1.28, 7.11 0 M7.11 0 C6.39 0.43, 5.67 0.86, 3.56 2.11 M7.11 0 C5.97 0.68, 4.83 1.35, 3.56 2.11 M3.56 2.11 C2.76 1.63, 1.97 1.16, 0 0 M3.56 2.11 C2.22 1.31, 0.88 0.52, 0 0 M0 0 C0 0, 0 0, 0 0 M0 0 C0 0, 0 0, 0 0 M0 0 C0 0, 0 0, 0 0 M0 0 C0 0, 0 0, 0 0" stroke="#364fc7" stroke-width="1" fill="none"></path></g></g><g stroke-linecap="round"><g transform="translate(898.0600004196167 112.93333435058594) rotate(0 1.7733330726623535 -3.1533336639404297)" fill-rule="evenodd"><path d="M0 0 L3.55 -2.09 L3.55 -6.31 L0 -4.2 L0 0 L0 0" stroke="none" stroke-width="0" fill="#4285f4" fill-rule="evenodd"></path><path d="M0 0 C1.21 -0.71, 2.42 -1.43, 3.55 -2.09 M0 0 C0.97 -0.57, 1.94 -1.15, 3.55 -2.09 M3.55 -2.09 C3.55 -3.76, 3.55 -5.42, 3.55 -6.31 M3.55 -2.09 C3.55 -3.2, 3.55 -4.3, 3.55 -6.31 M3.55 -6.31 C2.52 -5.69, 1.49 -5.08, 0 -4.2 M3.55 -6.31 C2.36 -5.6, 1.17 -4.89, 0 -4.2 M0 -4.2 C0 -3.15, 0 -2.09, 0 0 M0 -4.2 C0 -3.16, 0 -2.13, 0 0 M0 0 C0 0, 0 0, 0 0 M0 0 C0 0, 0 0, 0 0 M0 0 C0 0, 0 0, 0 0 M0 0 C0 0, 0 0, 0 0" stroke="#364fc7" stroke-width="1" fill="none"></path></g></g><g stroke-linecap="round"><g transform="translate(889.1666667461395 100.8933334350586) rotate(0 1.3333333730697632 5.106667518615723)" fill-rule="evenodd"><path d="M0 0 L0 10.23 L2.67 11.8 L2.67 -1.59 L0 0 L0 0" stroke="none" stroke-width="0" fill="#669df6" fill-rule="evenodd"></path><path d="M0 0 C0 4.05, 0 8.1, 0 10.23 M0 0 C0 2.53, 0 5.05, 0 10.23 M0 10.23 C0.83 10.71, 1.65 11.2, 2.67 11.8 M0 10.23 C0.61 10.58, 1.21 10.94, 2.67 11.8 M2.67 11.8 C2.67 7.93, 2.67 4.06, 2.67 -1.59 M2.67 11.8 C2.67 7.14, 2.67 2.48, 2.67 -1.59 M2.67 -1.59 C1.82 -1.09, 0.98 -0.58, 0 0 M2.67 -1.59 C2.02 -1.2, 1.37 -0.82, 0 0 M0 0 C0 0, 0 0, 0 0 M0 0 C0 0, 0 0, 0 0 M0 0 C0 0, 0 0, 0 0 M0 0 C0 0, 0 0, 0 0" stroke="#364fc7" stroke-width="1" fill="none"></path></g></g><g stroke-linecap="round"><g transform="translate(889.1666667461395 100.8933334350586) rotate(0 1.3333333730697632 -0.7933330535888672)" fill-rule="evenodd"><path d="M0 0 L2.67 -0.61 L2.67 -1.59 L0 0 L0 0" stroke="none" stroke-width="0" fill="#4285f4" fill-rule="evenodd"></path><path d="M0 0 C0.64 -0.15, 1.28 -0.29, 2.67 -0.61 M0 0 C0.97 -0.22, 1.94 -0.45, 2.67 -0.61 M2.67 -0.61 C2.67 -0.91, 2.67 -1.21, 2.67 -1.59 M2.67 -0.61 C2.67 -0.82, 2.67 -1.03, 2.67 -1.59 M2.67 -1.59 C1.89 -1.12, 1.11 -0.66, 0 0 M2.67 -1.59 C1.71 -1.02, 0.75 -0.45, 0 0 M0 0 C0 0, 0 0, 0 0 M0 0 C0 0, 0 0, 0 0 M0 0 C0 0, 0 0, 0 0 M0 0 C0 0, 0 0, 0 0" stroke="#364fc7" stroke-width="1" fill="none"></path></g></g><g stroke-linecap="round"><g transform="translate(891.833333492279 112.69333457946777) rotate(0 -1.3333333730697632 -0.7866668701171875)" fill-rule="evenodd"><path d="M0 0 L0 -0.77 L-2.67 -1.57 L0 0 L0 0" stroke="none" stroke-width="0" fill="#4285f4" fill-rule="evenodd"></path><path d="M0 0 C0 -0.28, 0 -0.56, 0 -0.77 M0 0 C0 -0.28, 0 -0.55, 0 -0.77 M0 -0.77 C-0.81 -1.02, -1.61 -1.26, -2.67 -1.57 M0 -0.77 C-0.69 -0.98, -1.38 -1.19, -2.67 -1.57 M-2.67 -1.57 C-2 -1.18, -1.33 -0.79, 0 0 M-2.67 -1.57 C-1.77 -1.04, -0.87 -0.52, 0 0 M0 0 C0 0, 0 0, 0 0 M0 0 C0 0, 0 0, 0 0 M0 0 C0 0, 0 0, 0 0 M0 0 C0 0, 0 0, 0 0" stroke="#364fc7" stroke-width="1" fill="none"></path></g></g><g stroke-linecap="round"><g transform="translate(909.6066665649414 94) rotate(0 3.1133337020874023 12)" fill-rule="evenodd"><path d="M0 0 L0 3.2 L3.56 5.31 L3.56 18.69 L0 20.8 L0 24 L6.23 20.32 L6.23 3.68 L0 0 L0 0" stroke="none" stroke-width="0" fill="#aecbfa" fill-rule="evenodd"></path><path d="M0 0 C0 0.91, 0 1.83, 0 3.2 M0 0 C0 1.03, 0 2.07, 0 3.2 M0 3.2 C1.35 4, 2.7 4.8, 3.56 5.31 M0 3.2 C1.41 4.03, 2.81 4.86, 3.56 5.31 M3.56 5.31 C3.56 8.92, 3.56 12.54, 3.56 18.69 M3.56 5.31 C3.56 10.48, 3.56 15.64, 3.56 18.69 M3.56 18.69 C2.56 19.28, 1.57 19.87, 0 20.8 M3.56 18.69 C2.6 19.26, 1.64 19.83, 0 20.8 M0 20.8 C0 21.67, 0 22.55, 0 24 M0 20.8 C0 21.51, 0 22.23, 0 24 M0 24 C2.12 22.74, 4.25 21.49, 6.23 20.32 M0 24 C2.44 22.56, 4.87 21.12, 6.23 20.32 M6.23 20.32 C6.23 13.91, 6.23 7.49, 6.23 3.68 M6.23 20.32 C6.23 14.43, 6.23 8.55, 6.23 3.68 M6.23 3.68 C4.96 2.93, 3.7 2.18, 0 0 M6.23 3.68 C4.42 2.61, 2.6 1.54, 0 0 M0 0 C0 0, 0 0, 0 0 M0 0 C0 0, 0 0, 0 0 M0 0 C0 0, 0 0, 0 0 M0 0 C0 0, 0 0, 0 0" stroke="#364fc7" stroke-width="1" fill="none"></path></g></g><g stroke-linecap="round"><g transform="translate(913.1666679382324 112.69333457946777) rotate(0 1.3333330154418945 -6.693333625793457)" fill-rule="evenodd"><path d="M0 0 L2.67 -1.57 L2.67 -11.8 L0 -13.39 L0 0 L0 0" stroke="none" stroke-width="0" fill="#669df6" fill-rule="evenodd"></path><path d="M0 0 C0.61 -0.36, 1.23 -0.72, 2.67 -1.57 M0 0 C0.75 -0.44, 1.5 -0.88, 2.67 -1.57 M2.67 -1.57 C2.67 -4.2, 2.67 -6.83, 2.67 -11.8 M2.67 -1.57 C2.67 -5.31, 2.67 -9.05, 2.67 -11.8 M2.67 -11.8 C1.66 -12.4, 0.65 -13, 0 -13.39 M2.67 -11.8 C2.06 -12.16, 1.45 -12.53, 0 -13.39 M0 -13.39 C0 -8.16, 0 -2.94, 0 0 M0 -13.39 C0 -9.15, 0 -4.9, 0 0 M0 0 C0 0, 0 0, 0 0 M0 0 C0 0, 0 0, 0 0 M0 0 C0 0, 0 0, 0 0 M0 0 C0 0, 0 0, 0 0" stroke="#364fc7" stroke-width="1" fill="none"></path></g></g><g stroke-linecap="round"><g transform="translate(913.1666679382324 100.28000068664551) rotate(0 1.3333330154418945 -0.18000030517578125)" fill-rule="evenodd"><path d="M0 0 L2.67 0.61 L0 -0.97 L0 0 L0 0" stroke="none" stroke-width="0" fill="#4285f4" fill-rule="evenodd"></path><path d="M0 0 C0.83 0.19, 1.67 0.38, 2.67 0.61 M0 0 C0.98 0.23, 1.96 0.45, 2.67 0.61 M2.67 0.61 C1.85 0.13, 1.04 -0.36, 0 -0.97 M2.67 0.61 C1.62 -0.01, 0.58 -0.63, 0 -0.97 M0 -0.97 C0 -0.73, 0 -0.49, 0 0 M0 -0.97 C0 -0.74, 0 -0.51, 0 0 M0 0 C0 0, 0 0, 0 0 M0 0 C0 0, 0 0, 0 0 M0 0 C0 0, 0 0, 0 0 M0 0 C0 0, 0 0, 0 0" stroke="#364fc7" stroke-width="1" fill="none"></path></g></g><g stroke-linecap="round"><g transform="translate(913.1666679382324 111.92000198364258) rotate(0 1.3333330154418945 -0.013334274291992188)" fill-rule="evenodd"><path d="M0 0 L0 0.77 L2.67 -0.8 L0 0 L0 0" stroke="none" stroke-width="0" fill="#4285f4" fill-rule="evenodd"></path><path d="M0 0 C0 0.19, 0 0.37, 0 0.77 M0 0 C0 0.25, 0 0.49, 0 0.77 M0 0.77 C1.06 0.15, 2.12 -0.48, 2.67 -0.8 M0 0.77 C0.56 0.44, 1.12 0.11, 2.67 -0.8 M2.67 -0.8 C1.98 -0.59, 1.29 -0.39, 0 0 M2.67 -0.8 C1.79 -0.54, 0.92 -0.28, 0 0 M0 0 C0 0, 0 0, 0 0 M0 0 C0 0, 0 0, 0 0 M0 0 C0 0, 0 0, 0 0 M0 0 C0 0, 0 0, 0 0" stroke="#364fc7" stroke-width="1" fill="none"></path></g></g><g stroke-linecap="round" transform="translate(590 70) rotate(0 80 36)"><path d="M18 0 L142 0 L149.88 1.13 L155.5 4.5 L157.47 7.03 L159.72 13.78 L160 54 L158.88 61.88 L157.47 64.97 L152.97 69.47 L149.88 70.88 L142 72 L18 72 L10.13 70.88 L4.5 67.5 L2.53 64.97 L0.28 58.22 L0.28 13.78 L1.13 10.13 L4.5 4.5 L10.13 1.13 L18 0" stroke="none" stroke-width="0" fill="white"></path><path d="M18 0 M18 0 C63.51 0, 109.02 0, 142 0 M18 0 C65.88 0, 113.76 0, 142 0 M142 0 C154 0, 160 6, 160 18 M142 0 C154 0, 160 6, 160 18 M160 18 C160 31.93, 160 45.85, 160 54 M160 18 C160 27.72, 160 37.44, 160 54 M160 54 C160 66, 154 72, 142 72 M160 54 C160 66, 154 72, 142 72 M142 72 C113.69 72, 85.38 72, 18 72 M142 72 C114.31 72, 86.62 72, 18 72 M18 72 C6 72, 0 66, 0 54 M18 72 C6 72, 0 66, 0 54 M0 54 C0 42.06, 0 30.12, 0 18 M0 54 C0 39.91, 0 25.83, 0 18 M0 18 C0 6, 6 0, 18 0 M0 18 C0 6, 6 0, 18 0" stroke="#364fc7" stroke-width="2" fill="none"></path></g><g transform="translate(655 99) rotate(0 42.5 7)"><text x="0" y="13" font-family="Helvetica, Segoe UI Emoji" font-size="12px" fill="#364fc7" text-anchor="start" style="white-space: pre;" direction="ltr">Cloud Build</text></g><g stroke-linecap="round"><g transform="translate(622.7000007629395 111.65333366394043) rotate(0 1.5599994659423828 -4.519999980926514)" fill-rule="evenodd"><path d="M0 0 L4.69 -2.71 L4.69 -8.12 L3.12 -9.04 L-1.57 -0.91 L0 0 L0 0" stroke="none" stroke-width="0" fill="#4285f4" fill-rule="evenodd"></path><path d="M0 0 C1.5 -0.87, 3 -1.73, 4.69 -2.71 M0 0 C0.97 -0.56, 1.95 -1.12, 4.69 -2.71 M4.69 -2.71 C4.69 -3.87, 4.69 -5.03, 4.69 -8.12 M4.69 -2.71 C4.69 -4.76, 4.69 -6.8, 4.69 -8.12 M4.69 -8.12 C4.38 -8.31, 4.06 -8.49, 3.12 -9.04 M4.69 -8.12 C4.36 -8.32, 4.02 -8.52, 3.12 -9.04 M3.12 -9.04 C1.49 -6.21, -0.14 -3.38, -1.57 -0.91 M3.12 -9.04 C2.17 -7.39, 1.21 -5.74, -1.57 -0.91 M-1.57 -0.91 C-1.07 -0.62, -0.56 -0.32, 0 0 M-1.57 -0.91 C-1.22 -0.7, -0.87 -0.5, 0 0 M0 0 C0 0, 0 0, 0 0 M0 0 C0 0, 0 0, 0 0 M0 0 C0 0, 0 0, 0 0 M0 0 C0 0, 0 0, 0 0" stroke="#364fc7" stroke-width="1" fill="none"></path></g></g><g stroke-linecap="round"><g transform="translate(618.006667137146 103.53333282470703) rotate(0 3.1399998664855957 1.8000011444091797)" fill-rule="evenodd"><path d="M0 0 L0 5.41 L1.57 6.32 L6.28 -1.8 L4.69 -2.72 L0 0 L0 0" stroke="none" stroke-width="0" fill="#669df6" fill-rule="evenodd"></path><path d="M0 0 C0 1.48, 0 2.96, 0 5.41 M0 0 C0 2.14, 0 4.27, 0 5.41 M0 5.41 C0.41 5.65, 0.82 5.89, 1.57 6.32 M0 5.41 C0.46 5.68, 0.91 5.94, 1.57 6.32 M1.57 6.32 C3.15 3.59, 4.73 0.87, 6.28 -1.8 M1.57 6.32 C2.75 4.28, 3.93 2.25, 6.28 -1.8 M6.28 -1.8 C5.89 -2.03, 5.5 -2.25, 4.69 -2.72 M6.28 -1.8 C5.91 -2.02, 5.54 -2.23, 4.69 -2.72 M4.69 -2.72 C3.5 -2.03, 2.3 -1.34, 0 0 M4.69 -2.72 C3.66 -2.12, 2.62 -1.52, 0 0 M0 0 C0 0, 0 0, 0 0 M0 0 C0 0, 0 0, 0 0 M0 0 C0 0, 0 0, 0 0 M0 0 C0 0, 0 0, 0 0" stroke="#364fc7" stroke-width="1" fill="none"></path></g></g><g stroke-linecap="round"><g transform="translate(621.7800006866455 113.26666831970215) rotate(0 -5.313333511352539 -3.4266676902770996)" fill-rule="evenodd"><path d="M0 0 L-5.63 -3.25 L-5.63 -9.73 L-10.63 -12.63 L-10.63 -0.36 L0 5.77 L0 0 L0 0" stroke="none" stroke-width="0" fill="#aecbfa" fill-rule="evenodd"></path><path d="M0 0 C-1.39 -0.8, -2.78 -1.61, -5.63 -3.25 M0 0 C-1.74 -1.01, -3.48 -2.01, -5.63 -3.25 M-5.63 -3.25 C-5.63 -4.73, -5.63 -6.2, -5.63 -9.73 M-5.63 -3.25 C-5.63 -5.13, -5.63 -7, -5.63 -9.73 M-5.63 -9.73 C-7.37 -10.74, -9.11 -11.75, -10.63 -12.63 M-5.63 -9.73 C-7.21 -10.65, -8.78 -11.56, -10.63 -12.63 M-10.63 -12.63 C-10.63 -9.65, -10.63 -6.67, -10.63 -0.36 M-10.63 -12.63 C-10.63 -9.01, -10.63 -5.39, -10.63 -0.36 M-10.63 -0.36 C-7.44 1.48, -4.26 3.32, 0 5.77 M-10.63 -0.36 C-7.19 1.62, -3.76 3.6, 0 5.77 M0 5.77 C0 3.78, 0 1.78, 0 0 M0 5.77 C0 4.31, 0 2.85, 0 0 M0 0 C0 0, 0 0, 0 0 M0 0 C0 0, 0 0, 0 0 M0 0 C0 0, 0 0, 0 0 M0 0 C0 0, 0 0, 0 0" stroke="#364fc7" stroke-width="1" fill="none"></path></g></g><g stroke-linecap="round"><g transform="translate(617.0733337402344 101.93333339691162) rotate(0 5.62666654586792 -4.519999980926514)" fill-rule="evenodd"><path d="M0 0 L5.63 -3.25 L11.25 0 L16.27 -2.89 L5.63 -9.04 L-5.01 -2.89 L0 0 L0 0" stroke="none" stroke-width="0" fill="#aecbfa" fill-rule="evenodd"></path><path d="M0 0 C2.05 -1.18, 4.1 -2.37, 5.63 -3.25 M0 0 C1.72 -1, 3.44 -1.99, 5.63 -3.25 M5.63 -3.25 C6.83 -2.56, 8.02 -1.87, 11.25 0 M5.63 -3.25 C7.27 -2.3, 8.92 -1.35, 11.25 0 M11.25 0 C13.06 -1.04, 14.86 -2.08, 16.27 -2.89 M11.25 0 C13.22 -1.14, 15.19 -2.27, 16.27 -2.89 M16.27 -2.89 C12.86 -4.86, 9.44 -6.83, 5.63 -9.04 M16.27 -2.89 C12.14 -5.28, 8.02 -7.66, 5.63 -9.04 M5.63 -9.04 C3.3 -7.69, 0.96 -6.35, -5.01 -2.89 M5.63 -9.04 C3.14 -7.6, 0.65 -6.17, -5.01 -2.89 M-5.01 -2.89 C-3.76 -2.17, -2.51 -1.45, 0 0 M-5.01 -2.89 C-3.29 -1.9, -1.57 -0.91, 0 0 M0 0 C0 0, 0 0, 0 0 M0 0 C0 0, 0 0, 0 0 M0 0 C0 0, 0 0, 0 0 M0 0 C0 0, 0 0, 0 0" stroke="#364fc7" stroke-width="1" fill="none"></path></g></g><g stroke-linecap="round"><g transform="translate(629.2466659545898 110.01333427429199) rotate(0 -0.30666542053222656 -0.17333364486694336)" fill-rule="evenodd"><path d="M0 0 L-5.63 3.25 L-5.63 9.03 L5.01 2.89 L5.01 -9.37 L0 -6.48 L0 0 L0 0" stroke="none" stroke-width="0" fill="#aecbfa" fill-rule="evenodd"></path><path d="M0 0 C-2.01 1.16, -4.02 2.32, -5.63 3.25 M0 0 C-1.7 0.98, -3.4 1.97, -5.63 3.25 M-5.63 3.25 C-5.63 4.75, -5.63 6.24, -5.63 9.03 M-5.63 3.25 C-5.63 4.7, -5.63 6.14, -5.63 9.03 M-5.63 9.03 C-2.05 6.96, 1.53 4.9, 5.01 2.89 M-5.63 9.03 C-1.42 6.6, 2.79 4.18, 5.01 2.89 M5.01 2.89 C5.01 -0.18, 5.01 -3.25, 5.01 -9.37 M5.01 2.89 C5.01 -0.23, 5.01 -3.35, 5.01 -9.37 M5.01 -9.37 C3.67 -8.6, 2.32 -7.82, 0 -6.48 M5.01 -9.37 C3.86 -8.71, 2.7 -8.04, 0 -6.48 M0 -6.48 C0 -4.86, 0 -3.24, 0 0 M0 -6.48 C0 -4.67, 0 -2.87, 0 0 M0 0 C0 0, 0 0, 0 0 M0 0 C0 0, 0 0, 0 0 M0 0 C0 0, 0 0, 0 0 M0 0 C0 0, 0 0, 0 0" stroke="#364fc7" stroke-width="1" fill="none"></path></g></g><g stroke-linecap="round" transform="translate(330 70) rotate(0 80 36)"><path d="M18 0 L142 0 L149.88 1.13 L155.5 4.5 L157.47 7.03 L159.72 13.78 L160 54 L158.88 61.88 L157.47 64.97 L152.97 69.47 L149.88 70.88 L142 72 L18 72 L10.13 70.88 L4.5 67.5 L2.53 64.97 L0.28 58.22 L0.28 13.78 L1.13 10.13 L4.5 4.5 L10.13 1.13 L18 0" stroke="none" stroke-width="0" fill="#DEDEDE"></path><path d="M18 0 M18 0 C43.93 0, 69.87 0, 142 0 M18 0 C53.97 0, 89.94 0, 142 0 M142 0 C154 0, 160 6, 160 18 M142 0 C154 0, 160 6, 160 18 M160 18 C160 29.96, 160 41.92, 160 54 M160 18 C160 27.49, 160 36.99, 160 54 M160 54 C160 66, 154 72, 142 72 M160 54 C160 66, 154 72, 142 72 M142 72 C97.47 72, 52.94 72, 18 72 M142 72 C101.24 72, 60.47 72, 18 72 M18 72 C6 72, 0 66, 0 54 M18 72 C6 72, 0 66, 0 54 M0 54 C0 46.77, 0 39.54, 0 18 M0 54 C0 44.88, 0 35.77, 0 18 M0 18 C0 6, 6 0, 18 0 M0 18 C0 6, 6 0, 18 0" stroke="#000" stroke-width="2" fill="none"></path></g><g transform="translate(395 99) rotate(0 33.5 13.5)"><text x="0" y="10.5" font-family="Helvetica, Segoe UI Emoji" font-size="12px" fill="#000000" text-anchor="start" style="white-space: pre;" direction="ltr">Github Repo</text><text x="0" y="24" font-family="Helvetica, Segoe UI Emoji" font-size="12px" fill="#000000" text-anchor="start" style="white-space: pre;" direction="ltr"></text></g><g stroke-linecap="round"><g transform="translate(346.5 90) rotate(0 16 16)" fill-rule="evenodd"><path d="M0 0 L32 0 L32 32 L0 32 L0 0" stroke="none" stroke-width="0" fill="#00000000" fill-rule="evenodd"></path><path d="M0 0 C7.62 0, 15.23 0, 32 0 M0 0 C7.87 0, 15.74 0, 32 0 M32 0 C32 12.06, 32 24.11, 32 32 M32 0 C32 9.59, 32 19.18, 32 32 M32 32 C24.35 32, 16.7 32, 0 32 M32 32 C19.42 32, 6.84 32, 0 32 M0 32 C0 22.05, 0 12.1, 0 0 M0 32 C0 21.87, 0 11.73, 0 0 M0 0 C0 0, 0 0, 0 0 M0 0 C0 0, 0 0, 0 0" stroke="#00000000" stroke-width="1" fill="none"></path></g></g><g stroke-linecap="round"><g transform="translate(365.1666679382324 95.33333349227905) rotate(0 3.6066665649414062 4.393333673477173)" fill-rule="evenodd"><path d="M0 0 L3.05 3.05 L-0.79 6.89 L1.11 8.79 L4.95 4.95 L8 8 L8 0 L0 0" stroke="none" stroke-width="0" fill="#000" fill-rule="evenodd"></path><path d="M0 0 C1.01 1.01, 2.01 2.01, 3.05 3.05 M0 0 C1 1, 2.01 2.01, 3.05 3.05 M3.05 3.05 C1.83 4.28, 0.6 5.5, -0.79 6.89 M3.05 3.05 C1.55 4.56, 0.05 6.06, -0.79 6.89 M-0.79 6.89 C-0.13 7.55, 0.53 8.21, 1.11 8.79 M-0.79 6.89 C-0.35 7.33, 0.09 7.77, 1.11 8.79 M1.11 8.79 C2.22 7.67, 3.34 6.56, 4.95 4.95 M1.11 8.79 C1.97 7.93, 2.83 7.07, 4.95 4.95 M4.95 4.95 C5.97 5.97, 7 7, 8 8 M4.95 4.95 C5.62 5.62, 6.29 6.29, 8 8 M8 8 C8 5.01, 8 2.03, 8 0 M8 8 C8 6.24, 8 4.48, 8 0 M8 0 C5.83 0, 3.67 0, 0 0 M8 0 C5.29 0, 2.58 0, 0 0 M0 0 C0 0, 0 0, 0 0 M0 0 C0 0, 0 0, 0 0" stroke="#00000000" stroke-width="1" fill="none"></path></g></g><g stroke-linecap="round"><g transform="translate(359.8333339691162 95.33333349227905) rotate(0 -2.000000238418579 10.666667222976685)" fill-rule="evenodd"><path d="M0 0 L-8 0 L-8 8 L-4.95 4.95 L1.33 11.21 L1.33 21.33 L4 21.33 L4 10.12 L-3.05 3.05 L0 0" stroke="none" stroke-width="0" fill="#000" fill-rule="evenodd"></path><path d="M0 0 C-2.72 0, -5.43 0, -8 0 M0 0 C-2.19 0, -4.39 0, -8 0 M-8 0 C-8 2.26, -8 4.52, -8 8 M-8 0 C-8 2.35, -8 4.71, -8 8 M-8 8 C-7.07 7.07, -6.14 6.14, -4.95 4.95 M-8 8 C-6.9 6.9, -5.8 5.8, -4.95 4.95 M-4.95 4.95 C-2.89 7, -0.83 9.06, 1.33 11.21 M-4.95 4.95 C-3.28 6.61, -1.61 8.28, 1.33 11.21 M1.33 11.21 C1.33 14, 1.33 16.78, 1.33 21.33 M1.33 11.21 C1.33 14.6, 1.33 17.98, 1.33 21.33 M1.33 21.33 C1.94 21.33, 2.55 21.33, 4 21.33 M1.33 21.33 C1.89 21.33, 2.44 21.33, 4 21.33 M4 21.33 C4 17.96, 4 14.6, 4 10.12 M4 21.33 C4 17.62, 4 13.91, 4 10.12 M4 10.12 C1.2 7.32, -1.59 4.52, -3.05 3.05 M4 10.12 C1.66 7.78, -0.67 5.44, -3.05 3.05 M-3.05 3.05 C-2.19 2.19, -1.34 1.34, 0 0 M-3.05 3.05 C-2.11 2.11, -1.17 1.17, 0 0 M0 0 C0 0, 0 0, 0 0 M0 0 C0 0, 0 0, 0 0" stroke="#00000000" stroke-width="1" fill="none"></path></g></g><g stroke-linecap="round" transform="translate(1130 10) rotate(0 100 100)"><path d="M50 0 L150 0 L161.72 0.78 L176.37 4.88 L184.18 9.57 L190.43 15.82 L192.97 19.53 L196.88 28.13 L199.8 43.95 L199.8 156.05 L198.24 166.99 L195.12 176.37 L190.43 184.18 L184.18 190.43 L180.47 192.97 L171.88 196.88 L156.05 199.8 L43.95 199.8 L33.01 198.24 L23.63 195.12 L15.82 190.43 L9.57 184.18 L7.03 180.47 L3.12 171.88 L0.2 156.05 L0 50 L1.76 33.01 L4.88 23.63 L7.03 19.53 L9.57 15.82 L15.82 9.57 L23.63 4.88 L28.13 3.12 L38.28 0.78 L50 0" stroke="none" stroke-width="0" fill="#4c6ef5"></path><path d="M50 0 M50 0 C71.82 0, 93.65 0, 150 0 M50 0 C73.45 0, 96.89 0, 150 0 M150 0 C183.33 0, 200 16.67, 200 50 M150 0 C183.33 0, 200 16.67, 200 50 M200 50 C200 72.59, 200 95.18, 200 150 M200 50 C200 70.71, 200 91.41, 200 150 M200 150 C200 183.33, 183.33 200, 150 200 M200 150 C200 183.33, 183.33 200, 150 200 M150 200 C113.31 200, 76.62 200, 50 200 M150 200 C118.9 200, 87.8 200, 50 200 M50 200 C16.67 200, 0 183.33, 0 150 M50 200 C16.67 200, 0 183.33, 0 150 M0 150 C0 110.58, 0 71.16, 0 50 M0 150 C0 117.42, 0 84.84, 0 50 M0 50 C0 16.67, 16.67 0, 50 0 M0 50 C0 16.67, 16.67 0, 50 0" stroke="#000000" stroke-width="1" fill="none"></path></g><g stroke-linecap="round" transform="translate(1150 30) rotate(0 80 36)"><path d="M18 0 L142 0 L149.88 1.13 L155.5 4.5 L157.47 7.03 L159.72 13.78 L160 54 L158.88 61.88 L157.47 64.97 L152.97 69.47 L149.88 70.88 L142 72 L18 72 L10.13 70.88 L4.5 67.5 L2.53 64.97 L0.28 58.22 L0.28 13.78 L1.13 10.13 L4.5 4.5 L10.13 1.13 L18 0" stroke="none" stroke-width="0" fill="#FFF"></path><path d="M18 0 M18 0 C57.23 0, 96.47 0, 142 0 M18 0 C46.18 0, 74.36 0, 142 0 M142 0 C154 0, 160 6, 160 18 M142 0 C154 0, 160 6, 160 18 M160 18 C160 28.43, 160 38.86, 160 54 M160 18 C160 26, 160 34.01, 160 54 M160 54 C160 66, 154 72, 142 72 M160 54 C160 66, 154 72, 142 72 M142 72 C109.8 72, 77.61 72, 18 72 M142 72 C96.56 72, 51.13 72, 18 72 M18 72 C6 72, 0 66, 0 54 M18 72 C6 72, 0 66, 0 54 M0 54 C0 44.69, 0 35.38, 0 18 M0 54 C0 41.91, 0 29.82, 0 18 M0 18 C0 6, 6 0, 18 0 M0 18 C0 6, 6 0, 18 0" stroke="#364fc7" stroke-width="2" fill="none"></path></g><g transform="translate(1215 59) rotate(0 42.5 7)"><text x="0" y="13" font-family="Helvetica, Segoe UI Emoji" font-size="12px" fill="#364fc7" text-anchor="start" style="white-space: pre;" direction="ltr">Cloud Run</text></g><g stroke-linecap="round"><g transform="translate(1178.3755550384521 53.502222299575806) rotate(0 8.311112403869629 6.248888850212097)" fill-rule="evenodd"><path d="M0 0 L4.15 12.5 L16.62 12.5 L0 0 L0 0" stroke="none" stroke-width="0" fill="#aecbfa" fill-rule="evenodd"></path><path d="M0 0 C1.16 3.49, 2.32 6.99, 4.15 12.5 M0 0 C1.61 4.85, 3.22 9.69, 4.15 12.5 M4.15 12.5 C8.64 12.5, 13.13 12.5, 16.62 12.5 M4.15 12.5 C8.53 12.5, 12.9 12.5, 16.62 12.5 M16.62 12.5 C12.35 9.29, 8.09 6.08, 0 0 M16.62 12.5 C12.17 9.15, 7.72 5.8, 0 0 M0 0 C0 0, 0 0, 0 0 M0 0 C0 0, 0 0, 0 0 M0 0 C0 0, 0 0, 0 0 M0 0 C0 0, 0 0, 0 0" stroke="#364fc7" stroke-width="1" fill="none"></path></g></g><g stroke-linecap="round"><g transform="translate(1194.9977798461914 66) rotate(0 -8.311112403869629 6.248889923095703)" fill-rule="evenodd"><path d="M0 0 L-12.47 0 L-16.62 12.5 L0 0 L0 0" stroke="none" stroke-width="0" fill="#4285f4" fill-rule="evenodd"></path><path d="M0 0 C-3.61 0, -7.22 0, -12.47 0 M0 0 C-3.85 0, -7.7 0, -12.47 0 M-12.47 0 C-13.77 3.91, -15.07 7.83, -16.62 12.5 M-12.47 0 C-13.87 4.22, -15.28 8.45, -16.62 12.5 M-16.62 12.5 C-11.43 8.59, -6.23 4.68, 0 0 M-16.62 12.5 C-12.81 9.63, -8.99 6.76, 0 0 M0 0 C0 0, 0 0, 0 0 M0 0 C0 0, 0 0, 0 0 M0 0 C0 0, 0 0, 0 0 M0 0 C0 0, 0 0, 0 0" stroke="#364fc7" stroke-width="1" fill="none"></path></g></g><g stroke-linecap="round"><g transform="translate(1171.086666584015 78.4977798461914) rotate(0 3.644444227218628 -6.248889923095703)" fill-rule="evenodd"><path d="M0 0 L4.17 -2.08 L7.29 -12.5 L3.12 -12.5 L0 0 L0 0" stroke="none" stroke-width="0" fill="#4285f4" fill-rule="evenodd"></path><path d="M0 0 C1.15 -0.58, 2.31 -1.15, 4.17 -2.08 M0 0 C1.17 -0.58, 2.33 -1.16, 4.17 -2.08 M4.17 -2.08 C4.95 -4.68, 5.73 -7.28, 7.29 -12.5 M4.17 -2.08 C5.25 -5.7, 6.34 -9.32, 7.29 -12.5 M7.29 -12.5 C6.23 -12.5, 5.16 -12.5, 3.12 -12.5 M7.29 -12.5 C5.63 -12.5, 3.97 -12.5, 3.12 -12.5 M3.12 -12.5 C2.03 -8.12, 0.93 -3.74, 0 0 M3.12 -12.5 C2.19 -8.76, 1.25 -5.02, 0 0 M0 0 C0 0, 0 0, 0 0 M0 0 C0 0, 0 0, 0 0 M0 0 C0 0, 0 0, 0 0 M0 0 C0 0, 0 0, 0 0" stroke="#364fc7" stroke-width="1" fill="none"></path></g></g><g stroke-linecap="round"><g transform="translate(1171.086666584015 53.502222299575806) rotate(0 3.644444227218628 6.248888850212097)" fill-rule="evenodd"><path d="M0 0 L3.12 12.5 L7.29 12.5 L4.17 2.08 L0 0 L0 0" stroke="none" stroke-width="0" fill="#aecbfa" fill-rule="evenodd"></path><path d="M0 0 C0.75 3.01, 1.5 6.02, 3.12 12.5 M0 0 C1.25 4.99, 2.49 9.98, 3.12 12.5 M3.12 12.5 C4.01 12.5, 4.9 12.5, 7.29 12.5 M3.12 12.5 C4.51 12.5, 5.91 12.5, 7.29 12.5 M7.29 12.5 C6.36 9.41, 5.44 6.33, 4.17 2.08 M7.29 12.5 C6.2 8.85, 5.1 5.2, 4.17 2.08 M4.17 2.08 C2.74 1.37, 1.32 0.66, 0 0 M4.17 2.08 C2.54 1.27, 0.91 0.45, 0 0 M0 0 C0 0, 0 0, 0 0 M0 0 C0 0, 0 0, 0 0 M0 0 C0 0, 0 0, 0 0 M0 0 C0 0, 0 0, 0 0" stroke="#364fc7" stroke-width="1" fill="none"></path></g></g><g stroke-linecap="round" transform="translate(1150 110) rotate(0 80 36)"><path d="M18 0 L142 0 L149.88 1.13 L155.5 4.5 L157.47 7.03 L159.72 13.78 L160 54 L158.88 61.88 L157.47 64.97 L152.97 69.47 L149.88 70.88 L142 72 L18 72 L10.13 70.88 L4.5 67.5 L2.53 64.97 L0.28 58.22 L0.28 13.78 L1.13 10.13 L4.5 4.5 L10.13 1.13 L18 0" stroke="none" stroke-width="0" fill="#FFF"></path><path d="M18 0 M18 0 C63.46 0, 108.92 0, 142 0 M18 0 C65.21 0, 112.42 0, 142 0 M142 0 C154 0, 160 6, 160 18 M142 0 C154 0, 160 6, 160 18 M160 18 C160 28.83, 160 39.66, 160 54 M160 18 C160 29.21, 160 40.43, 160 54 M160 54 C160 66, 154 72, 142 72 M160 54 C160 66, 154 72, 142 72 M142 72 C97.44 72, 52.87 72, 18 72 M142 72 C116.34 72, 90.68 72, 18 72 M18 72 C6 72, 0 66, 0 54 M18 72 C6 72, 0 66, 0 54 M0 54 C0 40.44, 0 26.88, 0 18 M0 54 C0 41.8, 0 29.61, 0 18 M0 18 C0 6, 6 0, 18 0 M0 18 C0 6, 6 0, 18 0" stroke="#364fc7" stroke-width="2" fill="none"></path></g><g transform="translate(1215 139) rotate(0 42.5 7)"><text x="0" y="13" font-family="Helvetica, Segoe UI Emoji" font-size="12px" fill="#364fc7" text-anchor="start" style="white-space: pre;" direction="ltr">Cloud Functions</text></g><g stroke-linecap="round"><g transform="translate(1168.3131700754166 150.98376846313477) rotate(0 2.121898829936981 -5.035223007202148)" fill-rule="evenodd"><path d="M0 0 L4.24 3.45 L4.24 -13.52 L0 -10.09 L0 0" stroke="none" stroke-width="0" fill="#669df6" fill-rule="evenodd"></path><path d="M0 0 C0.99 0.8, 1.97 1.6, 4.24 3.45 M0 0 C1.26 1.02, 2.52 2.05, 4.24 3.45 M4.24 3.45 C4.24 -2.25, 4.24 -7.94, 4.24 -13.52 M4.24 3.45 C4.24 -3.31, 4.24 -10.07, 4.24 -13.52 M4.24 -13.52 C3.18 -12.66, 2.12 -11.8, 0 -10.09 M4.24 -13.52 C3.21 -12.68, 2.17 -11.84, 0 -10.09 M0 -10.09 C0 -6.73, 0 -3.37, 0 0 M0 -10.09 C0 -7.87, 0 -5.66, 0 0 M0 0 C0 0, 0 0, 0 0 M0 0 C0 0, 0 0, 0 0" stroke="#364fc7" stroke-width="1" fill="none"></path></g></g><g stroke-linecap="round"><g transform="translate(1168.3131700754166 143.11853122711182) rotate(0 2.121898829936981 -2.8275656700134277)" fill-rule="evenodd"><path d="M0 0 L4.24 -2.83 L4.24 -5.66 L0 0" stroke="none" stroke-width="0" fill="#4285f4" fill-rule="evenodd"></path><path d="M0 0 C1.25 -0.83, 2.5 -1.67, 4.24 -2.83 M0 0 C1.27 -0.85, 2.55 -1.7, 4.24 -2.83 M4.24 -2.83 C4.24 -3.42, 4.24 -4.02, 4.24 -5.66 M4.24 -2.83 C4.24 -3.71, 4.24 -4.6, 4.24 -5.66 M4.24 -5.66 C2.74 -3.65, 1.23 -1.64, 0 0 M4.24 -5.66 C2.98 -3.97, 1.71 -2.28, 0 0 M0 0 C0 0, 0 0, 0 0 M0 0 C0 0, 0 0, 0 0" stroke="#364fc7" stroke-width="1" fill="none"></path></g></g><g stroke-linecap="round"><g transform="translate(1172.5569677352905 154.43369102478027) rotate(0 -2.121898829936981 -2.830015182495117)" fill-rule="evenodd"><path d="M0 0 L0 -2.83 L-4.24 -5.66 L0 0" stroke="none" stroke-width="0" fill="#4285f4" fill-rule="evenodd"></path><path d="M0 0 C0 -0.62, 0 -1.23, 0 -2.83 M0 0 C0 -1.08, 0 -2.16, 0 -2.83 M0 -2.83 C-1.66 -3.93, -3.31 -5.04, -4.24 -5.66 M0 -2.83 C-1.26 -3.67, -2.52 -4.51, -4.24 -5.66 M-4.24 -5.66 C-3.37 -4.49, -2.49 -3.32, 0 0 M-4.24 -5.66 C-2.89 -3.85, -1.53 -2.04, 0 0 M0 0 C0 0, 0 0, 0 0 M0 0 C0 0, 0 0, 0 0" stroke="#364fc7" stroke-width="1" fill="none"></path></g></g><g stroke-linecap="round"><g transform="translate(1176.7958660125732 157.26125526428223) rotate(0 -4.241347968578339 -2.830014228820801)" fill-rule="evenodd"><path d="M0 0 L-8.48 -8.49 L-8.48 -2.83 L-2.83 2.83 L0 0" stroke="none" stroke-width="0" fill="#aecbfa" fill-rule="evenodd"></path><path d="M0 0 C-1.9 -1.9, -3.8 -3.8, -8.48 -8.49 M0 0 C-3.12 -3.12, -6.24 -6.25, -8.48 -8.49 M-8.48 -8.49 C-8.48 -6.9, -8.48 -5.32, -8.48 -2.83 M-8.48 -8.49 C-8.48 -7.08, -8.48 -5.67, -8.48 -2.83 M-8.48 -2.83 C-6.41 -0.75, -4.34 1.32, -2.83 2.83 M-8.48 -2.83 C-6.97 -1.32, -5.46 0.19, -2.83 2.83 M-2.83 2.83 C-2.09 2.09, -1.35 1.35, 0 0 M-2.83 2.83 C-2.17 2.17, -1.52 1.52, 0 0 M0 0 C0 0, 0 0, 0 0 M0 0 C0 0, 0 0, 0 0" stroke="#364fc7" stroke-width="1" fill="none"></path></g></g><g stroke-linecap="round"><g transform="translate(1173.9535994529724 131.82297098636627) rotate(0 -1.4039823412895203 5.647780120372772)" fill-rule="evenodd"><path d="M0 0 L-5.64 5.64 L-5.63 11.3 L2.83 2.83 L0 0" stroke="none" stroke-width="0" fill="#aecbfa" fill-rule="evenodd"></path><path d="M0 0 C-2.07 2.07, -4.13 4.13, -5.64 5.64 M0 0 C-1.82 1.82, -3.65 3.65, -5.64 5.64 M-5.64 5.64 C-5.64 7.54, -5.63 9.44, -5.63 11.3 M-5.64 5.64 C-5.64 6.88, -5.63 8.11, -5.63 11.3 M-5.63 11.3 C-3.58 9.24, -1.53 7.19, 2.83 2.83 M-5.63 11.3 C-2.81 8.48, 0.01 5.66, 2.83 2.83 M2.83 2.83 C1.93 1.93, 1.03 1.03, 0 0 M2.83 2.83 C1.98 1.98, 1.14 1.13, 0 0 M0 0 C0 0, 0 0, 0 0 M0 0 C0 0, 0 0, 0 0" stroke="#364fc7" stroke-width="1" fill="none"></path></g></g><g stroke-linecap="round"><g transform="translate(1196.5937213897705 140.9280252456665) rotate(0 -2.119448661804199 5.035222053527832)" fill-rule="evenodd"><path d="M0 0 L-4.24 -3.45 L-4.24 13.52 L0 10.09 L0 0" stroke="none" stroke-width="0" fill="#669df6" fill-rule="evenodd"></path><path d="M0 0 C-1.15 -0.93, -2.3 -1.87, -4.24 -3.45 M0 0 C-0.99 -0.81, -1.99 -1.62, -4.24 -3.45 M-4.24 -3.45 C-4.24 1.05, -4.24 5.54, -4.24 13.52 M-4.24 -3.45 C-4.24 1.35, -4.24 6.15, -4.24 13.52 M-4.24 13.52 C-2.63 12.22, -1.01 10.91, 0 10.09 M-4.24 13.52 C-3.12 12.62, -2 11.71, 0 10.09 M0 10.09 C0 6.95, 0 3.81, 0 0 M0 10.09 C0 7.5, 0 4.91, 0 0 M0 0 C0 0, 0 0, 0 0 M0 0 C0 0, 0 0, 0 0" stroke="#364fc7" stroke-width="1" fill="none"></path></g></g><g stroke-linecap="round"><g transform="translate(1196.5937213897705 148.78836250305176) rotate(0 -2.119448661804199 2.830015182495117)" fill-rule="evenodd"><path d="M0 0 L-4.24 2.83 L-4.24 5.66 L0 0" stroke="none" stroke-width="0" fill="#4285f4" fill-rule="evenodd"></path><path d="M0 0 C-1.7 1.13, -3.39 2.26, -4.24 2.83 M0 0 C-0.86 0.57, -1.72 1.14, -4.24 2.83 M-4.24 2.83 C-4.24 3.78, -4.24 4.74, -4.24 5.66 M-4.24 2.83 C-4.24 3.47, -4.24 4.11, -4.24 5.66 M-4.24 5.66 C-3.2 4.28, -2.17 2.9, 0 0 M-4.24 5.66 C-3.39 4.52, -2.53 3.38, 0 0 M0 0 C0 0, 0 0, 0 0 M0 0 C0 0, 0 0, 0 0" stroke="#364fc7" stroke-width="1" fill="none"></path></g></g><g stroke-linecap="round"><g transform="translate(1192.354824066162 137.47810173034668) rotate(0 2.119448661804199 2.8275651931762695)" fill-rule="evenodd"><path d="M0 0 L0 2.83 L4.24 5.66 L0 0" stroke="none" stroke-width="0" fill="#4285f4" fill-rule="evenodd"></path><path d="M0 0 C0 0.99, 0 1.97, 0 2.83 M0 0 C0 0.74, 0 1.49, 0 2.83 M0 2.83 C1.19 3.62, 2.39 4.42, 4.24 5.66 M0 2.83 C1.39 3.76, 2.79 4.69, 4.24 5.66 M4.24 5.66 C3.02 4.03, 1.8 2.4, 0 0 M4.24 5.66 C3.28 4.37, 2.31 3.09, 0 0 M0 0 C0 0, 0 0, 0 0 M0 0 C0 0, 0 0, 0 0" stroke="#364fc7" stroke-width="1" fill="none"></path></g></g><g stroke-linecap="round"><g transform="translate(1188.111026763916 134.65053606033325) rotate(0 4.241347312927246 2.8275654911994934)" fill-rule="evenodd"><path d="M0 0 L8.48 8.48 L8.48 2.83 L2.83 -2.83 L0 0" stroke="none" stroke-width="0" fill="#aecbfa" fill-rule="evenodd"></path><path d="M0 0 C3.04 3.04, 6.07 6.07, 8.48 8.48 M0 0 C2.19 2.19, 4.39 4.39, 8.48 8.48 M8.48 8.48 C8.48 6.72, 8.48 4.95, 8.48 2.83 M8.48 8.48 C8.48 6.46, 8.48 4.45, 8.48 2.83 M8.48 2.83 C6.32 0.66, 4.15 -1.51, 2.83 -2.83 M8.48 2.83 C6.63 0.97, 4.77 -0.88, 2.83 -2.83 M2.83 -2.83 C1.94 -1.94, 1.05 -1.05, 0 0 M2.83 -2.83 C2.22 -2.22, 1.62 -1.62, 0 0 M0 0 C0 0, 0 0, 0 0 M0 0 C0 0, 0 0, 0 0" stroke="#364fc7" stroke-width="1" fill="none"></path></g></g><g stroke-linecap="round"><g transform="translate(1190.9532928466797 160.0888214111328) rotate(0 1.4064311981201172 -5.650229454040527)" fill-rule="evenodd"><path d="M0 0 L5.64 -5.64 L5.63 -11.3 L-2.83 -2.83 L0 0" stroke="none" stroke-width="0" fill="#aecbfa" fill-rule="evenodd"></path><path d="M0 0 C2.2 -2.2, 4.41 -4.41, 5.64 -5.64 M0 0 C1.42 -1.42, 2.84 -2.84, 5.64 -5.64 M5.64 -5.64 C5.63 -7.8, 5.63 -9.95, 5.63 -11.3 M5.64 -5.64 C5.64 -7.72, 5.63 -9.79, 5.63 -11.3 M5.63 -11.3 C2.85 -8.52, 0.07 -5.73, -2.83 -2.83 M5.63 -11.3 C3.08 -8.75, 0.54 -6.2, -2.83 -2.83 M-2.83 -2.83 C-1.89 -1.89, -0.96 -0.96, 0 0 M-2.83 -2.83 C-1.81 -1.81, -0.8 -0.8, 0 0 M0 0 C0 0, 0 0, 0 0 M0 0 C0 0, 0 0, 0 0" stroke="#364fc7" stroke-width="1" fill="none"></path></g></g><g stroke-linecap="round" transform="translate(1175.379632949829 144.52986240386963) rotate(0 1.4162328243255615 1.4162328243255615)"><path d="M2.83 1.42 C2.83 1.5, 2.83 1.58, 2.81 1.66 C2.8 1.74, 2.78 1.82, 2.75 1.9 C2.72 1.98, 2.68 2.05, 2.64 2.12 C2.6 2.2, 2.55 2.26, 2.5 2.33 C2.45 2.39, 2.39 2.45, 2.33 2.5 C2.26 2.55, 2.2 2.6, 2.12 2.64 C2.05 2.68, 1.98 2.72, 1.9 2.75 C1.82 2.78, 1.74 2.8, 1.66 2.81 C1.58 2.83, 1.5 2.83, 1.42 2.83 C1.33 2.83, 1.25 2.83, 1.17 2.81 C1.09 2.8, 1.01 2.78, 0.93 2.75 C0.85 2.72, 0.78 2.68, 0.71 2.64 C0.64 2.6, 0.57 2.55, 0.51 2.5 C0.44 2.45, 0.38 2.39, 0.33 2.33 C0.28 2.26, 0.23 2.2, 0.19 2.12 C0.15 2.05, 0.11 1.98, 0.09 1.9 C0.06 1.82, 0.04 1.74, 0.02 1.66 C0.01 1.58, 0 1.5, 0 1.42 C0 1.33, 0.01 1.25, 0.02 1.17 C0.04 1.09, 0.06 1.01, 0.09 0.93 C0.11 0.85, 0.15 0.78, 0.19 0.71 C0.23 0.64, 0.28 0.57, 0.33 0.51 C0.38 0.44, 0.44 0.38, 0.51 0.33 C0.57 0.28, 0.64 0.23, 0.71 0.19 C0.78 0.15, 0.85 0.11, 0.93 0.09 C1.01 0.06, 1.09 0.04, 1.17 0.02 C1.25 0.01, 1.33 0, 1.42 0 C1.5 0, 1.58 0.01, 1.66 0.02 C1.74 0.04, 1.82 0.06, 1.9 0.09 C1.98 0.11, 2.05 0.15, 2.12 0.19 C2.2 0.23, 2.26 0.28, 2.33 0.33 C2.39 0.38, 2.45 0.44, 2.5 0.51 C2.55 0.57, 2.6 0.64, 2.64 0.71 C2.68 0.78, 2.72 0.85, 2.75 0.93 C2.78 1.01, 2.8 1.09, 2.81 1.17 C2.83 1.25, 2.83 1.38, 2.83 1.42 C2.84 1.46, 2.84 1.38, 2.83 1.42" stroke="none" stroke-width="0" fill="#aecbfa"></path><path d="M2.83 1.42 C2.83 1.5, 2.83 1.58, 2.81 1.66 C2.8 1.74, 2.78 1.82, 2.75 1.9 C2.72 1.98, 2.68 2.05, 2.64 2.12 C2.6 2.2, 2.55 2.26, 2.5 2.33 C2.45 2.39, 2.39 2.45, 2.33 2.5 C2.26 2.55, 2.2 2.6, 2.12 2.64 C2.05 2.68, 1.98 2.72, 1.9 2.75 C1.82 2.78, 1.74 2.8, 1.66 2.81 C1.58 2.83, 1.5 2.83, 1.42 2.83 C1.33 2.83, 1.25 2.83, 1.17 2.81 C1.09 2.8, 1.01 2.78, 0.93 2.75 C0.85 2.72, 0.78 2.68, 0.71 2.64 C0.64 2.6, 0.57 2.55, 0.51 2.5 C0.44 2.45, 0.38 2.39, 0.33 2.33 C0.28 2.26, 0.23 2.2, 0.19 2.12 C0.15 2.05, 0.11 1.98, 0.09 1.9 C0.06 1.82, 0.04 1.74, 0.02 1.66 C0.01 1.58, 0 1.5, 0 1.42 C0 1.33, 0.01 1.25, 0.02 1.17 C0.04 1.09, 0.06 1.01, 0.09 0.93 C0.11 0.85, 0.15 0.78, 0.19 0.71 C0.23 0.64, 0.28 0.57, 0.33 0.51 C0.38 0.44, 0.44 0.38, 0.51 0.33 C0.57 0.28, 0.64 0.23, 0.71 0.19 C0.78 0.15, 0.85 0.11, 0.93 0.09 C1.01 0.06, 1.09 0.04, 1.17 0.02 C1.25 0.01, 1.33 0, 1.42 0 C1.5 0, 1.58 0.01, 1.66 0.02 C1.74 0.04, 1.82 0.06, 1.9 0.09 C1.98 0.11, 2.05 0.15, 2.12 0.19 C2.2 0.23, 2.26 0.28, 2.33 0.33 C2.39 0.38, 2.45 0.44, 2.5 0.51 C2.55 0.57, 2.6 0.64, 2.64 0.71 C2.68 0.78, 2.72 0.85, 2.75 0.93 C2.78 1.01, 2.8 1.09, 2.81 1.17 C2.83 1.25, 2.83 1.38, 2.83 1.42 C2.84 1.46, 2.84 1.38, 2.83 1.42" stroke="#364fc7" stroke-width="1" fill="none"></path></g><g stroke-linecap="round" transform="translate(1181.0396642684937 144.52986240386963) rotate(0 1.4162328243255615 1.4162328243255615)"><path d="M2.83 1.42 C2.83 1.5, 2.83 1.58, 2.81 1.66 C2.8 1.74, 2.78 1.82, 2.75 1.9 C2.72 1.98, 2.68 2.05, 2.64 2.12 C2.6 2.2, 2.55 2.26, 2.5 2.33 C2.45 2.39, 2.39 2.45, 2.33 2.5 C2.26 2.55, 2.2 2.6, 2.12 2.64 C2.05 2.68, 1.98 2.72, 1.9 2.75 C1.82 2.78, 1.74 2.8, 1.66 2.81 C1.58 2.83, 1.5 2.83, 1.42 2.83 C1.33 2.83, 1.25 2.83, 1.17 2.81 C1.09 2.8, 1.01 2.78, 0.93 2.75 C0.85 2.72, 0.78 2.68, 0.71 2.64 C0.64 2.6, 0.57 2.55, 0.51 2.5 C0.44 2.45, 0.38 2.39, 0.33 2.33 C0.28 2.26, 0.23 2.2, 0.19 2.12 C0.15 2.05, 0.11 1.98, 0.09 1.9 C0.06 1.82, 0.04 1.74, 0.02 1.66 C0.01 1.58, 0 1.5, 0 1.42 C0 1.33, 0.01 1.25, 0.02 1.17 C0.04 1.09, 0.06 1.01, 0.09 0.93 C0.11 0.85, 0.15 0.78, 0.19 0.71 C0.23 0.64, 0.28 0.57, 0.33 0.51 C0.38 0.44, 0.44 0.38, 0.51 0.33 C0.57 0.28, 0.64 0.23, 0.71 0.19 C0.78 0.15, 0.85 0.11, 0.93 0.09 C1.01 0.06, 1.09 0.04, 1.17 0.02 C1.25 0.01, 1.33 0, 1.42 0 C1.5 0, 1.58 0.01, 1.66 0.02 C1.74 0.04, 1.82 0.06, 1.9 0.09 C1.98 0.11, 2.05 0.15, 2.12 0.19 C2.2 0.23, 2.26 0.28, 2.33 0.33 C2.39 0.38, 2.45 0.44, 2.5 0.51 C2.55 0.57, 2.6 0.64, 2.64 0.71 C2.68 0.78, 2.72 0.85, 2.75 0.93 C2.78 1.01, 2.8 1.09, 2.81 1.17 C2.83 1.25, 2.83 1.38, 2.83 1.42 C2.84 1.46, 2.84 1.38, 2.83 1.42" stroke="none" stroke-width="0" fill="#aecbfa"></path><path d="M2.83 1.42 C2.83 1.5, 2.83 1.58, 2.81 1.66 C2.8 1.74, 2.78 1.82, 2.75 1.9 C2.72 1.98, 2.68 2.05, 2.64 2.12 C2.6 2.2, 2.55 2.26, 2.5 2.33 C2.45 2.39, 2.39 2.45, 2.33 2.5 C2.26 2.55, 2.2 2.6, 2.12 2.64 C2.05 2.68, 1.98 2.72, 1.9 2.75 C1.82 2.78, 1.74 2.8, 1.66 2.81 C1.58 2.83, 1.5 2.83, 1.42 2.83 C1.33 2.83, 1.25 2.83, 1.17 2.81 C1.09 2.8, 1.01 2.78, 0.93 2.75 C0.85 2.72, 0.78 2.68, 0.71 2.64 C0.64 2.6, 0.57 2.55, 0.51 2.5 C0.44 2.45, 0.38 2.39, 0.33 2.33 C0.28 2.26, 0.23 2.2, 0.19 2.12 C0.15 2.05, 0.11 1.98, 0.09 1.9 C0.06 1.82, 0.04 1.74, 0.02 1.66 C0.01 1.58, 0 1.5, 0 1.42 C0 1.33, 0.01 1.25, 0.02 1.17 C0.04 1.09, 0.06 1.01, 0.09 0.93 C0.11 0.85, 0.15 0.78, 0.19 0.71 C0.23 0.64, 0.28 0.57, 0.33 0.51 C0.38 0.44, 0.44 0.38, 0.51 0.33 C0.57 0.28, 0.64 0.23, 0.71 0.19 C0.78 0.15, 0.85 0.11, 0.93 0.09 C1.01 0.06, 1.09 0.04, 1.17 0.02 C1.25 0.01, 1.33 0, 1.42 0 C1.5 0, 1.58 0.01, 1.66 0.02 C1.74 0.04, 1.82 0.06, 1.9 0.09 C1.98 0.11, 2.05 0.15, 2.12 0.19 C2.2 0.23, 2.26 0.28, 2.33 0.33 C2.39 0.38, 2.45 0.44, 2.5 0.51 C2.55 0.57, 2.6 0.64, 2.64 0.71 C2.68 0.78, 2.72 0.85, 2.75 0.93 C2.78 1.01, 2.8 1.09, 2.81 1.17 C2.83 1.25, 2.83 1.38, 2.83 1.42 C2.84 1.46, 2.84 1.38, 2.83 1.42" stroke="#364fc7" stroke-width="1" fill="none"></path></g><g stroke-linecap="round" transform="translate(1186.6800918579102 144.52986240386963) rotate(0 1.4162328243255615 1.4162328243255615)"><path d="M2.83 1.42 C2.83 1.5, 2.83 1.58, 2.81 1.66 C2.8 1.74, 2.78 1.82, 2.75 1.9 C2.72 1.98, 2.68 2.05, 2.64 2.12 C2.6 2.2, 2.55 2.26, 2.5 2.33 C2.45 2.39, 2.39 2.45, 2.33 2.5 C2.26 2.55, 2.2 2.6, 2.12 2.64 C2.05 2.68, 1.98 2.72, 1.9 2.75 C1.82 2.78, 1.74 2.8, 1.66 2.81 C1.58 2.83, 1.5 2.83, 1.42 2.83 C1.33 2.83, 1.25 2.83, 1.17 2.81 C1.09 2.8, 1.01 2.78, 0.93 2.75 C0.85 2.72, 0.78 2.68, 0.71 2.64 C0.64 2.6, 0.57 2.55, 0.51 2.5 C0.44 2.45, 0.38 2.39, 0.33 2.33 C0.28 2.26, 0.23 2.2, 0.19 2.12 C0.15 2.05, 0.11 1.98, 0.09 1.9 C0.06 1.82, 0.04 1.74, 0.02 1.66 C0.01 1.58, 0 1.5, 0 1.42 C0 1.33, 0.01 1.25, 0.02 1.17 C0.04 1.09, 0.06 1.01, 0.09 0.93 C0.11 0.85, 0.15 0.78, 0.19 0.71 C0.23 0.64, 0.28 0.57, 0.33 0.51 C0.38 0.44, 0.44 0.38, 0.51 0.33 C0.57 0.28, 0.64 0.23, 0.71 0.19 C0.78 0.15, 0.85 0.11, 0.93 0.09 C1.01 0.06, 1.09 0.04, 1.17 0.02 C1.25 0.01, 1.33 0, 1.42 0 C1.5 0, 1.58 0.01, 1.66 0.02 C1.74 0.04, 1.82 0.06, 1.9 0.09 C1.98 0.11, 2.05 0.15, 2.12 0.19 C2.2 0.23, 2.26 0.28, 2.33 0.33 C2.39 0.38, 2.45 0.44, 2.5 0.51 C2.55 0.57, 2.6 0.64, 2.64 0.71 C2.68 0.78, 2.72 0.85, 2.75 0.93 C2.78 1.01, 2.8 1.09, 2.81 1.17 C2.83 1.25, 2.83 1.38, 2.83 1.42 C2.84 1.46, 2.84 1.38, 2.83 1.42" stroke="none" stroke-width="0" fill="#aecbfa"></path><path d="M2.83 1.42 C2.83 1.5, 2.83 1.58, 2.81 1.66 C2.8 1.74, 2.78 1.82, 2.75 1.9 C2.72 1.98, 2.68 2.05, 2.64 2.12 C2.6 2.2, 2.55 2.26, 2.5 2.33 C2.45 2.39, 2.39 2.45, 2.33 2.5 C2.26 2.55, 2.2 2.6, 2.12 2.64 C2.05 2.68, 1.98 2.72, 1.9 2.75 C1.82 2.78, 1.74 2.8, 1.66 2.81 C1.58 2.83, 1.5 2.83, 1.42 2.83 C1.33 2.83, 1.25 2.83, 1.17 2.81 C1.09 2.8, 1.01 2.78, 0.93 2.75 C0.85 2.72, 0.78 2.68, 0.71 2.64 C0.64 2.6, 0.57 2.55, 0.51 2.5 C0.44 2.45, 0.38 2.39, 0.33 2.33 C0.28 2.26, 0.23 2.2, 0.19 2.12 C0.15 2.05, 0.11 1.98, 0.09 1.9 C0.06 1.82, 0.04 1.74, 0.02 1.66 C0.01 1.58, 0 1.5, 0 1.42 C0 1.33, 0.01 1.25, 0.02 1.17 C0.04 1.09, 0.06 1.01, 0.09 0.93 C0.11 0.85, 0.15 0.78, 0.19 0.71 C0.23 0.64, 0.28 0.57, 0.33 0.51 C0.38 0.44, 0.44 0.38, 0.51 0.33 C0.57 0.28, 0.64 0.23, 0.71 0.19 C0.78 0.15, 0.85 0.11, 0.93 0.09 C1.01 0.06, 1.09 0.04, 1.17 0.02 C1.25 0.01, 1.33 0, 1.42 0 C1.5 0, 1.58 0.01, 1.66 0.02 C1.74 0.04, 1.82 0.06, 1.9 0.09 C1.98 0.11, 2.05 0.15, 2.12 0.19 C2.2 0.23, 2.26 0.28, 2.33 0.33 C2.39 0.38, 2.45 0.44, 2.5 0.51 C2.55 0.57, 2.6 0.64, 2.64 0.71 C2.68 0.78, 2.72 0.85, 2.75 0.93 C2.78 1.01, 2.8 1.09, 2.81 1.17 C2.83 1.25, 2.83 1.38, 2.83 1.42 C2.84 1.46, 2.84 1.38, 2.83 1.42" stroke="#364fc7" stroke-width="1" fill="none"></path></g><g stroke-linecap="round" transform="translate(10 70) rotate(0 80 36)"><path d="M18 0 L142 0 L149.88 1.13 L155.5 4.5 L157.47 7.03 L159.72 13.78 L160 54 L158.88 61.88 L157.47 64.97 L152.97 69.47 L149.88 70.88 L142 72 L18 72 L10.13 70.88 L4.5 67.5 L2.53 64.97 L0.28 58.22 L0.28 13.78 L1.13 10.13 L4.5 4.5 L10.13 1.13 L18 0" stroke="none" stroke-width="0" fill="#DEDEDE"></path><path d="M18 0 M18 0 C46.93 0, 75.86 0, 142 0 M18 0 C59.23 0, 100.46 0, 142 0 M142 0 C154 0, 160 6, 160 18 M142 0 C154 0, 160 6, 160 18 M160 18 C160 31.76, 160 45.53, 160 54 M160 18 C160 25.41, 160 32.82, 160 54 M160 54 C160 66, 154 72, 142 72 M160 54 C160 66, 154 72, 142 72 M142 72 C115.21 72, 88.43 72, 18 72 M142 72 C95.28 72, 48.57 72, 18 72 M18 72 C6 72, 0 66, 0 54 M18 72 C6 72, 0 66, 0 54 M0 54 C0 43.14, 0 32.28, 0 18 M0 54 C0 42.11, 0 30.23, 0 18 M0 18 C0 6, 6 0, 18 0 M0 18 C0 6, 6 0, 18 0" stroke="#000" stroke-width="2" fill="none"></path></g><g transform="translate(75 99) rotate(0 27.5 6.5)"><text x="0" y="11" font-family="Helvetica, Segoe UI Emoji" font-size="12px" fill="#000000" text-anchor="start" style="white-space: pre;" direction="ltr">Developer</text></g><g stroke-linecap="round"><g transform="translate(26.5 90) rotate(0 16 16)" fill-rule="evenodd"><path d="M0 0 L32 0 L32 32 L0 32 L0 0" stroke="none" stroke-width="0" fill="#00000000" fill-rule="evenodd"></path><path d="M0 0 C8.36 0, 16.72 0, 32 0 M0 0 C6.96 0, 13.93 0, 32 0 M32 0 C32 8.4, 32 16.79, 32 32 M32 0 C32 9.13, 32 18.26, 32 32 M32 32 C20.33 32, 8.65 32, 0 32 M32 32 C21.82 32, 11.65 32, 0 32 M0 32 C0 23.15, 0 14.29, 0 0 M0 32 C0 25.14, 0 18.28, 0 0 M0 0 C0 0, 0 0, 0 0 M0 0 C0 0, 0 0, 0 0" stroke="#00000000" stroke-width="1" fill="none"></path></g></g><g stroke-linecap="round"><g transform="translate(48.5 106) rotate(0 -0.0066661834716796875 -3.3333330154418945)" fill-rule="evenodd"><path d="M0 0 L0 0 L1.3 -0.26 L2.35 -0.98 L3.06 -2.04 L3.32 -3.33 L3.06 -4.63 L2.35 -5.69 L1.3 -6.4 L0 -6.67 L-1.3 -6.4 L-2.36 -5.69 L-3.07 -4.63 L-3.33 -3.33 L-3.07 -2.04 L-2.36 -0.98 L-1.3 -0.26 L0 0 L0 0" stroke="none" stroke-width="0" fill="#000" fill-rule="evenodd"></path><path d="M0 0 C0 0, 0 0, 0 0 M0 0 C0 0, 0 0, 0 0 M0 0 C0.31 -0.06, 0.62 -0.13, 1.3 -0.26 M0 0 C0.32 -0.06, 0.63 -0.13, 1.3 -0.26 M1.3 -0.26 C1.62 -0.48, 1.94 -0.7, 2.35 -0.98 M1.3 -0.26 C1.55 -0.43, 1.8 -0.6, 2.35 -0.98 M2.35 -0.98 C2.5 -1.21, 2.66 -1.44, 3.06 -2.04 M2.35 -0.98 C2.52 -1.24, 2.7 -1.49, 3.06 -2.04 M3.06 -2.04 C3.14 -2.41, 3.21 -2.79, 3.32 -3.33 M3.06 -2.04 C3.16 -2.54, 3.26 -3.03, 3.32 -3.33 M3.32 -3.33 C3.24 -3.75, 3.15 -4.16, 3.06 -4.63 M3.32 -3.33 C3.22 -3.84, 3.12 -4.35, 3.06 -4.63 M3.06 -4.63 C2.8 -5.02, 2.53 -5.41, 2.35 -5.69 M3.06 -4.63 C2.86 -4.93, 2.66 -5.23, 2.35 -5.69 M2.35 -5.69 C2.07 -5.88, 1.8 -6.07, 1.3 -6.4 M2.35 -5.69 C2.02 -5.92, 1.68 -6.14, 1.3 -6.4 M1.3 -6.4 C0.84 -6.5, 0.39 -6.59, 0 -6.67 M1.3 -6.4 C0.97 -6.47, 0.64 -6.54, 0 -6.67 M0 -6.67 C-0.52 -6.56, -1.03 -6.46, -1.3 -6.4 M0 -6.67 C-0.44 -6.58, -0.87 -6.49, -1.3 -6.4 M-1.3 -6.4 C-1.71 -6.12, -2.13 -5.84, -2.36 -5.69 M-1.3 -6.4 C-1.67 -6.15, -2.04 -5.9, -2.36 -5.69 M-2.36 -5.69 C-2.64 -5.27, -2.92 -4.85, -3.07 -4.63 M-2.36 -5.69 C-2.63 -5.28, -2.91 -4.88, -3.07 -4.63 M-3.07 -4.63 C-3.16 -4.18, -3.25 -3.73, -3.33 -3.33 M-3.07 -4.63 C-3.15 -4.24, -3.23 -3.86, -3.33 -3.33 M-3.33 -3.33 C-3.24 -2.88, -3.15 -2.44, -3.07 -2.04 M-3.33 -3.33 C-3.26 -2.96, -3.18 -2.59, -3.07 -2.04 M-3.07 -2.04 C-2.91 -1.79, -2.74 -1.55, -2.36 -0.98 M-3.07 -2.04 C-2.82 -1.66, -2.56 -1.28, -2.36 -0.98 M-2.36 -0.98 C-2.07 -0.79, -1.79 -0.59, -1.3 -0.26 M-2.36 -0.98 C-2.06 -0.78, -1.77 -0.58, -1.3 -0.26 M-1.3 -0.26 C-0.87 -0.17, -0.43 -0.09, 0 0 M-1.3 -0.26 C-0.97 -0.2, -0.64 -0.13, 0 0 M0 0 C0 0, 0 0, 0 0 M0 0 C0 0, 0 0, 0 0 M0 0 C0 0, 0 0, 0 0 M0 0 C0 0, 0 0, 0 0" stroke="#00000000" stroke-width="1" fill="none"></path></g></g><g stroke-linecap="round"><g transform="translate(38.5 104.6666669845581) rotate(0 -0.006666660308837891 -4)" fill-rule="evenodd"><path d="M0 0 L0 0 L1.56 -0.31 L2.82 -1.17 L3.68 -2.44 L3.99 -4 L3.68 -5.56 L2.82 -6.83 L1.56 -7.69 L0 -8 L-1.56 -7.69 L-2.83 -6.83 L-3.69 -5.56 L-4 -4 L-3.69 -2.44 L-2.83 -1.17 L-1.56 -0.31 L0 0 L0 0" stroke="none" stroke-width="0" fill="#000" fill-rule="evenodd"></path><path d="M0 0 C0 0, 0 0, 0 0 M0 0 C0 0, 0 0, 0 0 M0 0 C0.36 -0.07, 0.72 -0.14, 1.56 -0.31 M0 0 C0.33 -0.07, 0.66 -0.13, 1.56 -0.31 M1.56 -0.31 C1.86 -0.52, 2.16 -0.72, 2.82 -1.17 M1.56 -0.31 C1.94 -0.57, 2.33 -0.83, 2.82 -1.17 M2.82 -1.17 C3.03 -1.49, 3.25 -1.8, 3.68 -2.44 M2.82 -1.17 C3.08 -1.56, 3.34 -1.95, 3.68 -2.44 M3.68 -2.44 C3.79 -3.01, 3.9 -3.58, 3.99 -4 M3.68 -2.44 C3.76 -2.89, 3.85 -3.34, 3.99 -4 M3.99 -4 C3.92 -4.35, 3.85 -4.7, 3.68 -5.56 M3.99 -4 C3.92 -4.35, 3.85 -4.69, 3.68 -5.56 M3.68 -5.56 C3.37 -6.01, 3.07 -6.45, 2.82 -6.83 M3.68 -5.56 C3.36 -6.02, 3.05 -6.49, 2.82 -6.83 M2.82 -6.83 C2.52 -7.03, 2.23 -7.23, 1.56 -7.69 M2.82 -6.83 C2.38 -7.13, 1.94 -7.42, 1.56 -7.69 M1.56 -7.69 C1.11 -7.78, 0.66 -7.87, 0 -8 M1.56 -7.69 C1.02 -7.8, 0.48 -7.9, 0 -8 M0 -8 C-0.48 -7.9, -0.96 -7.81, -1.56 -7.69 M0 -8 C-0.6 -7.88, -1.21 -7.76, -1.56 -7.69 M-1.56 -7.69 C-1.89 -7.46, -2.22 -7.24, -2.83 -6.83 M-1.56 -7.69 C-1.96 -7.42, -2.35 -7.15, -2.83 -6.83 M-2.83 -6.83 C-3.1 -6.42, -3.38 -6.02, -3.69 -5.56 M-2.83 -6.83 C-3.06 -6.48, -3.3 -6.13, -3.69 -5.56 M-3.69 -5.56 C-3.77 -5.15, -3.85 -4.75, -4 -4 M-3.69 -5.56 C-3.79 -5.07, -3.88 -4.57, -4 -4 M-4 -4 C-3.91 -3.53, -3.81 -3.06, -3.69 -2.44 M-4 -4 C-3.92 -3.6, -3.84 -3.19, -3.69 -2.44 M-3.69 -2.44 C-3.44 -2.08, -3.2 -1.72, -2.83 -1.17 M-3.69 -2.44 C-3.44 -2.08, -3.2 -1.71, -2.83 -1.17 M-2.83 -1.17 C-2.4 -0.88, -1.98 -0.6, -1.56 -0.31 M-2.83 -1.17 C-2.55 -0.98, -2.26 -0.79, -1.56 -0.31 M-1.56 -0.31 C-1.2 -0.24, -0.85 -0.17, 0 0 M-1.56 -0.31 C-1.05 -0.21, -0.54 -0.11, 0 0 M0 0 C0 0, 0 0, 0 0 M0 0 C0 0, 0 0, 0 0 M0 0 C0 0, 0 0, 0 0 M0 0 C0 0, 0 0, 0 0" stroke="#00000000" stroke-width="1" fill="none"></path></g></g><g stroke-linecap="round"><g transform="translate(48.5 108.66666793823242) rotate(0 4.76837158203125e-7 3.3333330154418945)" fill-rule="evenodd"><path d="M0 0 L0 0 L-2.18 0.23 L-4.58 0.92 L-6.53 2.06 L-7.12 2.81 L-7.33 3.67 L-7.33 6.67 L7.33 6.67 L7.33 3.67 L7.33 3.67 L7.12 2.81 L6.53 2.06 L4.58 0.92 L2.18 0.23 L0 0 L0 0" stroke="none" stroke-width="0" fill="#000" fill-rule="evenodd"></path><path d="M0 0 C0 0, 0 0, 0 0 M0 0 C0 0, 0 0, 0 0 M0 0 C-0.71 0.08, -1.42 0.15, -2.18 0.23 M0 0 C-0.72 0.08, -1.45 0.15, -2.18 0.23 M-2.18 0.23 C-3.1 0.49, -4.03 0.76, -4.58 0.92 M-2.18 0.23 C-2.87 0.43, -3.56 0.63, -4.58 0.92 M-4.58 0.92 C-5.28 1.33, -5.97 1.73, -6.53 2.06 M-4.58 0.92 C-5.1 1.23, -5.63 1.53, -6.53 2.06 M-6.53 2.06 C-6.75 2.34, -6.96 2.61, -7.12 2.81 M-6.53 2.06 C-6.69 2.27, -6.85 2.47, -7.12 2.81 M-7.12 2.81 C-7.2 3.13, -7.28 3.46, -7.33 3.67 M-7.12 2.81 C-7.18 3.07, -7.25 3.33, -7.33 3.67 M-7.33 3.67 C-7.33 4.48, -7.33 5.3, -7.33 6.67 M-7.33 3.67 C-7.33 4.72, -7.33 5.78, -7.33 6.67 M-7.33 6.67 C-3.85 6.67, -0.36 6.67, 7.33 6.67 M-7.33 6.67 C-3.9 6.67, -0.46 6.67, 7.33 6.67 M7.33 6.67 C7.33 5.92, 7.33 5.17, 7.33 3.67 M7.33 6.67 C7.33 5.52, 7.33 4.38, 7.33 3.67 M7.33 3.67 C7.33 3.67, 7.33 3.67, 7.33 3.67 M7.33 3.67 C7.33 3.67, 7.33 3.67, 7.33 3.67 M7.33 3.67 C7.28 3.44, 7.22 3.22, 7.12 2.81 M7.33 3.67 C7.27 3.4, 7.2 3.13, 7.12 2.81 M7.12 2.81 C6.93 2.57, 6.74 2.33, 6.53 2.06 M7.12 2.81 C6.95 2.6, 6.79 2.39, 6.53 2.06 M6.53 2.06 C6.13 1.83, 5.73 1.59, 4.58 0.92 M6.53 2.06 C5.93 1.71, 5.34 1.36, 4.58 0.92 M4.58 0.92 C4.09 0.78, 3.6 0.64, 2.18 0.23 M4.58 0.92 C4.02 0.76, 3.45 0.6, 2.18 0.23 M2.18 0.23 C1.32 0.14, 0.46 0.05, 0 0 M2.18 0.23 C1.71 0.18, 1.25 0.13, 0 0 M0 0 C0 0, 0 0, 0 0 M0 0 C0 0, 0 0, 0 0 M0 0 C0 0, 0 0, 0 0 M0 0 C0 0, 0 0, 0 0" stroke="#00000000" stroke-width="1" fill="none"></path></g></g><g stroke-linecap="round"><g transform="translate(38.5 107.33333396911621) rotate(0 -3.086666703224182 4)" fill-rule="evenodd"><path d="M0 0 L0 0 L-1.29 0.07 L-2.77 0.29 L-5.83 1.17 L-7.2 1.82 L-8.31 2.63 L-9.06 3.57 L-9.33 4.67 L-9.33 8 L0 8 L0 5 L0 5 L0.11 4.01 L0.56 2.83 L1.52 1.57 L3.16 0.37 L1.48 0.1 L0 0 L0 0" stroke="none" stroke-width="0" fill="#000" fill-rule="evenodd"></path><path d="M0 0 C0 0, 0 0, 0 0 M0 0 C0 0, 0 0, 0 0 M0 0 C-0.48 0.03, -0.96 0.05, -1.29 0.07 M0 0 C-0.47 0.03, -0.94 0.05, -1.29 0.07 M-1.29 0.07 C-1.63 0.12, -1.96 0.17, -2.77 0.29 M-1.29 0.07 C-1.71 0.14, -2.13 0.2, -2.77 0.29 M-2.77 0.29 C-3.64 0.54, -4.52 0.79, -5.83 1.17 M-2.77 0.29 C-3.9 0.62, -5.04 0.94, -5.83 1.17 M-5.83 1.17 C-6.21 1.35, -6.58 1.53, -7.2 1.82 M-5.83 1.17 C-6.33 1.41, -6.82 1.65, -7.2 1.82 M-7.2 1.82 C-7.58 2.1, -7.97 2.38, -8.31 2.63 M-7.2 1.82 C-7.48 2.03, -7.76 2.23, -8.31 2.63 M-8.31 2.63 C-8.57 2.95, -8.82 3.27, -9.06 3.57 M-8.31 2.63 C-8.59 2.97, -8.86 3.32, -9.06 3.57 M-9.06 3.57 C-9.16 3.97, -9.26 4.37, -9.33 4.67 M-9.06 3.57 C-9.16 3.97, -9.26 4.37, -9.33 4.67 M-9.33 4.67 C-9.33 5.45, -9.33 6.23, -9.33 8 M-9.33 4.67 C-9.33 5.67, -9.33 6.67, -9.33 8 M-9.33 8 C-6.9 8, -4.46 8, 0 8 M-9.33 8 C-7.14 8, -4.95 8, 0 8 M0 8 C0 7.08, 0 6.16, 0 5 M0 8 C0 7.12, 0 6.24, 0 5 M0 5 C0 5, 0 5, 0 5 M0 5 C0 5, 0 5, 0 5 M0 5 C0.04 4.64, 0.08 4.28, 0.11 4.01 M0 5 C0.03 4.71, 0.07 4.41, 0.11 4.01 M0.11 4.01 C0.23 3.7, 0.34 3.4, 0.56 2.83 M0.11 4.01 C0.22 3.72, 0.33 3.43, 0.56 2.83 M0.56 2.83 C0.91 2.37, 1.26 1.91, 1.52 1.57 M0.56 2.83 C0.93 2.34, 1.31 1.85, 1.52 1.57 M1.52 1.57 C1.85 1.33, 2.18 1.09, 3.16 0.37 M1.52 1.57 C1.86 1.32, 2.21 1.07, 3.16 0.37 M3.16 0.37 C2.62 0.28, 2.07 0.19, 1.48 0.1 M3.16 0.37 C2.71 0.3, 2.26 0.23, 1.48 0.1 M1.48 0.1 C1.03 0.07, 0.58 0.04, 0 0 M1.48 0.1 C0.9 0.06, 0.33 0.02, 0 0 M0 0 C0 0, 0 0, 0 0 M0 0 C0 0, 0 0, 0 0 M0 0 C0 0, 0 0, 0 0 M0 0 C0 0, 0 0, 0 0" stroke="#00000000" stroke-width="1" fill="none"></path></g></g><g stroke-linecap="round"><g transform="translate(171 110) rotate(0 79 0)"><path d="M0 0 C26.33 0, 131.67 0, 158 0 M0 0 C26.33 0, 131.67 0, 158 0" stroke="#000000" stroke-width="1" fill="none"></path></g><g transform="translate(171 110) rotate(0 79 0)"><path d="M158 0 L144.41 6.34 L144.41 -6.34 L158 0" stroke="none" stroke-width="0" fill="#000000" fill-rule="evenodd"></path><path d="M158 0 C155.03 1.38, 152.07 2.77, 144.41 6.34 M158 0 C154.68 1.55, 151.35 3.1, 144.41 6.34 M144.41 6.34 C144.41 2.68, 144.41 -0.99, 144.41 -6.34 M144.41 6.34 C144.41 1.46, 144.41 -3.41, 144.41 -6.34 M144.41 -6.34 C148.73 -4.32, 153.05 -2.31, 158 0 M144.41 -6.34 C149.76 -3.84, 155.11 -1.35, 158 0 M158 0 C158 0, 158 0, 158 0 M158 0 C158 0, 158 0, 158 0" stroke="#000000" stroke-width="1" fill="none"></path></g></g><g stroke-linecap="round"><g transform="translate(491 110) rotate(0 49 0)"><path d="M0 0 C16.33 0, 81.67 0, 98 0 M0 0 C16.33 0, 81.67 0, 98 0" stroke="#000000" stroke-width="1" fill="none"></path></g><g transform="translate(491 110) rotate(0 49 0)"><path d="M98 0 L84.41 6.34 L84.41 -6.34 L98 0" stroke="none" stroke-width="0" fill="#000000" fill-rule="evenodd"></path><path d="M98 0 C93.85 1.93, 89.71 3.87, 84.41 6.34 M98 0 C93.03 2.32, 88.06 4.64, 84.41 6.34 M84.41 6.34 C84.41 2.7, 84.41 -0.95, 84.41 -6.34 M84.41 6.34 C84.41 3.49, 84.41 0.64, 84.41 -6.34 M84.41 -6.34 C87.42 -4.93, 90.44 -3.53, 98 0 M84.41 -6.34 C89.2 -4.11, 93.99 -1.87, 98 0 M98 0 C98 0, 98 0, 98 0 M98 0 C98 0, 98 0, 98 0" stroke="#000000" stroke-width="1" fill="none"></path></g></g><g stroke-linecap="round"><g transform="translate(751 110) rotate(0 59 0)"><path d="M0 0 C19.67 0, 98.33 0, 118 0 M0 0 C19.67 0, 98.33 0, 118 0" stroke="#000000" stroke-width="1" fill="none"></path></g><g transform="translate(751 110) rotate(0 59 0)"><path d="M118 0 L104.41 6.34 L104.41 -6.34 L118 0" stroke="none" stroke-width="0" fill="#000000" fill-rule="evenodd"></path><path d="M118 0 C112.68 2.48, 107.36 4.96, 104.41 6.34 M118 0 C114.02 1.86, 110.03 3.71, 104.41 6.34 M104.41 6.34 C104.41 3.56, 104.41 0.78, 104.41 -6.34 M104.41 6.34 C104.41 2.48, 104.41 -1.38, 104.41 -6.34 M104.41 -6.34 C107.93 -4.7, 111.45 -3.05, 118 0 M104.41 -6.34 C109.21 -4.1, 114.01 -1.86, 118 0 M118 0 C118 0, 118 0, 118 0 M118 0 C118 0, 118 0, 118 0" stroke="#000000" stroke-width="1" fill="none"></path></g></g><g stroke-linecap="round"><g transform="translate(1031 110) rotate(0 49 0)"><path d="M0 0 C16.33 0, 81.67 0, 98 0 M0 0 C16.33 0, 81.67 0, 98 0" stroke="#000000" stroke-width="1" fill="none"></path></g><g transform="translate(1031 110) rotate(0 49 0)"><path d="M98 0 L84.41 6.34 L84.41 -6.34 L98 0" stroke="none" stroke-width="0" fill="#000000" fill-rule="evenodd"></path><path d="M98 0 C94.14 1.8, 90.28 3.6, 84.41 6.34 M98 0 C93.04 2.31, 88.09 4.62, 84.41 6.34 M84.41 6.34 C84.41 2.21, 84.41 -1.92, 84.41 -6.34 M84.41 6.34 C84.41 2.76, 84.41 -0.81, 84.41 -6.34 M84.41 -6.34 C88.6 -4.38, 92.79 -2.43, 98 0 M84.41 -6.34 C87.37 -4.96, 90.34 -3.57, 98 0 M98 0 C98 0, 98 0, 98 0 M98 0 C98 0, 98 0, 98 0" stroke="#000000" stroke-width="1" fill="none"></path></g></g><g transform="translate(190 50) rotate(0 58 23.5)"><text x="0" y="18.5" font-family="Helvetica, Segoe UI Emoji" font-size="20px" fill="#000000" text-anchor="start" style="white-space: pre;" direction="ltr">git commit &amp; </text><text x="0" y="42" font-family="Helvetica, Segoe UI Emoji" font-size="20px" fill="#000000" text-anchor="start" style="white-space: pre;" direction="ltr">push to main</text></g><g transform="translate(510 50) rotate(0 27 23.5)"><text x="0" y="18.5" font-family="Helvetica, Segoe UI Emoji" font-size="20px" fill="#000000" text-anchor="start" style="white-space: pre;" direction="ltr">build</text><text x="0" y="42" font-family="Helvetica, Segoe UI Emoji" font-size="20px" fill="#000000" text-anchor="start" style="white-space: pre;" direction="ltr">image</text></g><g transform="translate(770 50) rotate(0 41 23.5)"><text x="0" y="18.5" font-family="Helvetica, Segoe UI Emoji" font-size="20px" fill="#000000" text-anchor="start" style="white-space: pre;" direction="ltr">push</text><text x="0" y="42" font-family="Helvetica, Segoe UI Emoji" font-size="20px" fill="#000000" text-anchor="start" style="white-space: pre;" direction="ltr">container</text></g><g transform="translate(1050 70) rotate(0 29.5 11.5)"><text x="0" y="18" font-family="Helvetica, Segoe UI Emoji" font-size="20px" fill="#000000" text-anchor="start" style="white-space: pre;" direction="ltr">deploy</text></g><g transform="translate(10 170) rotate(0 317 20.5)"><text x="0" y="33" font-family="Helvetica, Segoe UI Emoji" font-size="36px" fill="#000000" text-anchor="start" style="white-space: pre;" direction="ltr">EYEAM GCP serverless CI/CD Pipeline</text></g></svg>